<?xml version="1.0" encoding="iso-8859-1"?>
<!-- Generator: Adobe Illustrator 17.1.0, SVG Export Plug-In . SVG Version: 6.00 Build 0)  -->
<!DOCTYPE svg PUBLIC "-//W3C//DTD SVG 1.1//EN" "http://www.w3.org/Graphics/SVG/1.1/DTD/svg11.dtd">
<svg version="1.1" id="Layer_1" xmlns="http://www.w3.org/2000/svg" xmlns:xlink="http://www.w3.org/1999/xlink" x="0px" y="0px"
	 viewBox="0 0 235.67 59.177" style="enable-background:new 0 0 235.67 59.177;" xml:space="preserve" width='300' height='84'>
<g>
	<path style="fill-rule:evenodd;clip-rule:evenodd;fill:#1B1B1B;" d="M0,57.881h10.872l5.472-13.752h19.584L41.4,57.881h10.872
		L30.095,4.601h-7.92L0,57.881L0,57.881z M20.088,34.553l6.048-15.552l6.048,15.552H20.088z"/>
	<path style="fill-rule:evenodd;clip-rule:evenodd;fill:#1B1B1B;" d="M115.62,19.865c-4.464-10.224-13.68-16.2-24.696-16.2
		c-18.864,0-27.864,15.696-27.864,27.576c0,12.241,9.072,27.936,27.72,27.936c11.592,0,20.16-6.408,24.552-15.768h-11.448
		c-3.311,4.32-8.064,6.192-12.816,6.192c-10.223,0-18.144-8.352-18.144-18.36c0-9.36,7.416-18,18.073-18
		c6.336,0,10.728,3.24,13.392,6.625H115.62z"/>
	<path style="fill-rule:evenodd;clip-rule:evenodd;fill:#1B1B1B;" d="M133.43,57.881h17.114c26.929,0,28.368-20.664,28.368-26.352
		c0-10.368-4.105-26.929-28.584-26.929H133.43V57.881L133.43,57.881z M143.295,48.305V14.177h6.458
		c5.4,0,19.296,0.504,19.296,17.352c0,16.128-13.394,16.776-18.793,16.776H143.295z"/>
	<polygon style="fill-rule:evenodd;clip-rule:evenodd;fill:#1B1B1B;" points="200.048,57.881 209.912,57.881 209.912,36.065 
		234.878,36.065 234.878,26.489 209.912,26.489 209.912,14.177 235.67,14.177 235.67,4.601 200.048,4.601 	"/>
	<circle style="fill-rule:evenodd;clip-rule:evenodd;fill:#BD2E21;" cx="59.718" cy="53.908" r="4.252"/>
	<circle style="fill-rule:evenodd;clip-rule:evenodd;fill:#43A1D0;" cx="122.791" cy="31.556" r="5.953"/>
	<circle style="fill-rule:evenodd;clip-rule:evenodd;fill:#E6AE23;" cx="186.321" cy="7.819" r="7.654"/>
</g>
</svg>
