<?xml version="1.0" encoding="UTF-8" standalone="no"?>
<!-- Created with Inkscape (http://www.inkscape.org/) -->

<svg
   xmlns:dc="http://purl.org/dc/elements/1.1/"
   xmlns:cc="http://creativecommons.org/ns#"
   xmlns:rdf="http://www.w3.org/1999/02/22-rdf-syntax-ns#"
   xmlns:svg="http://www.w3.org/2000/svg"
   xmlns="http://www.w3.org/2000/svg"
   xmlns:xlink="http://www.w3.org/1999/xlink"
   xmlns:sodipodi="http://sodipodi.sourceforge.net/DTD/sodipodi-0.dtd"
   xmlns:inkscape="http://www.inkscape.org/namespaces/inkscape"
   width="660"
   height="240"
   viewBox="0 0 174.62506 63.499996"
   version="1.1"
   id="svg8"
   inkscape:version="0.92.4 (5da689c313, 2019-01-14)">
  <defs
     id="defs2">
    <rect
       height="289.33301"
       width="782.39801"
       id="SVGID_1_"
       x="0"
       y="0" />
    <rect
       height="123.448"
       width="123.448"
       transform="matrix(-0.3101,-0.9507,0.9507,-0.3101,61.2094,334.9347)"
       y="83.533997"
       x="90.407997"
       id="SVGID_3_" />
    <rect
       height="289.33301"
       width="782.39801"
       id="SVGID_5_"
       x="0"
       y="0" />
    <rect
       height="289.33301"
       width="782.39801"
       id="SVGID_1_-2"
       x="0"
       y="0" />
    <rect
       height="123.448"
       width="123.448"
       transform="matrix(-0.3101,-0.9507,0.9507,-0.3101,61.2094,334.9347)"
       y="83.533997"
       x="90.407997"
       id="SVGID_3_-9" />
    <rect
       height="289.33301"
       width="782.39801"
       id="SVGID_5_-3"
       x="0"
       y="0" />
  </defs>
  <sodipodi:namedview
     id="base"
     pagecolor="#ffffff"
     bordercolor="#666666"
     borderopacity="1.0"
     inkscape:pageopacity="0.0"
     inkscape:pageshadow="2"
     inkscape:zoom="0.35"
     inkscape:cx="-35.714286"
     inkscape:cy="560"
     inkscape:document-units="mm"
     inkscape:current-layer="layer1"
     showgrid="false"
     units="px"
     inkscape:window-width="1920"
     inkscape:window-height="1017"
     inkscape:window-x="-8"
     inkscape:window-y="-8"
     inkscape:window-maximized="1" />
  <metadata
     id="metadata5">
    <rdf:RDF>
      <cc:Work
         rdf:about="">
        <dc:format>image/svg+xml</dc:format>
        <dc:type
           rdf:resource="http://purl.org/dc/dcmitype/StillImage" />
        <dc:title></dc:title>
      </cc:Work>
    </rdf:RDF>
  </metadata>
  <g
     inkscape:label="Layer 1"
     inkscape:groupmode="layer"
     id="layer1"
     transform="translate(0,-233.50003)">
    <g
       transform="matrix(0.26458333,0,0,0.26458333,-8.3112836,226.99913)"
       id="g4763">
      <path
         style="fill:#00b4cd"
         inkscape:connector-curvature="0"
         d="M 262.158,255.321 H 41.48 V 34.645 H 262.158 Z M 42.945,253.856 H 260.692 V 36.11 H 42.945 Z"
         id="path4505" />
      <path
         style="fill:none;stroke:#00245b;stroke-width:1.71099997;stroke-miterlimit:10"
         inkscape:connector-curvature="0"
         stroke-miterlimit="10"
         d="M 262.158,255.321 H 41.48 V 34.645 H 262.158 Z M 42.945,253.856 H 260.692 V 36.11 H 42.945 Z"
         id="path4507" />
      <polyline
         style="fill:none;stroke:#00245b;stroke-width:0.56999999;stroke-miterlimit:10"
         stroke-miterlimit="10"
         points="189.7,222.761 189.581,223.101   189.241,222.981 "
         id="polyline4509" />
      <line
         style="fill:none;stroke:#00245b;stroke-width:0.56999999;stroke-miterlimit:10;stroke-dasharray:0.721, 0.721"
         stroke-miterlimit="10"
         x1="188.561"
         y1="222.743"
         x2="74.622002"
         y2="182.77699"
         id="line4511" />
      <polyline
         style="fill:none;stroke:#00245b;stroke-width:0.56999999;stroke-miterlimit:10"
         stroke-miterlimit="10"
         points="74.281,182.658 73.941,182.539   74.06,182.199 "
         id="polyline4513" />
      <line
         style="fill:none;stroke:#00245b;stroke-width:0.56999999;stroke-miterlimit:10;stroke-dasharray:0.721, 0.721"
         stroke-miterlimit="10"
         x1="74.299004"
         y1="181.519"
         x2="114.264"
         y2="67.579002"
         id="line4515" />
      <polyline
         style="fill:none;stroke:#00245b;stroke-width:0.56999999;stroke-miterlimit:10"
         stroke-miterlimit="10"
         points="114.383,67.238 114.502,66.898   114.842,67.018 "
         id="polyline4517" />
      <line
         style="fill:none;stroke:#00245b;stroke-width:0.56999999;stroke-miterlimit:10;stroke-dasharray:0.721, 0.721"
         stroke-miterlimit="10"
         x1="115.522"
         y1="67.255997"
         x2="229.46201"
         y2="107.222"
         id="line4519" />
      <polyline
         style="fill:none;stroke:#00245b;stroke-width:0.56999999;stroke-miterlimit:10"
         stroke-miterlimit="10"
         points="229.803,107.341 230.143,107.46   230.024,107.8 "
         id="polyline4521" />
      <line
         style="fill:none;stroke:#00245b;stroke-width:0.56999999;stroke-miterlimit:10;stroke-dasharray:0.721, 0.721"
         stroke-miterlimit="10"
         x1="229.785"
         y1="108.48"
         x2="189.819"
         y2="222.42"
         id="line4523" />
      <rect
         style="fill:none;stroke:#000000;stroke-width:0.99800003;stroke-miterlimit:10"
         x="90.318001"
         y="83.533997"
         transform="matrix(0.9507,-0.3101,0.3101,0.9507,-37.5497,54.3092)"
         stroke-miterlimit="10"
         width="123.447"
         height="123.448"
         id="rect4525" />
      <g
         id="g4557">
	<defs
   id="defs4529">
		<rect
   y="0"
   x="0"
   id="rect4527"
   width="782.39801"
   height="289.33301" />

	</defs>

	<clipPath
   id="clipPath4533">
		<use
   height="100%"
   width="100%"
   y="0"
   x="0"
   style="overflow:visible"
   xlink:href="#SVGID_1_-2"
   overflow="visible"
   id="use4531" />

	</clipPath>

	
		<circle
   style="fill:none;stroke:#00245b;stroke-width:0.56999999;stroke-miterlimit:10"
   clip-path="url(#SVGID_2_)"
   stroke-miterlimit="10"
   cx="152.177"
   cy="145.019"
   r="15.424"
   id="circle4535" />

	
		<rect
   style="fill:none;stroke:#00245b;stroke-width:1.14100003;stroke-miterlimit:10"
   x="65.577003"
   y="59.169998"
   transform="matrix(0.9507,-0.3101,0.3101,0.9507,-37.4863,54.2674)"
   clip-path="url(#SVGID_2_)"
   stroke-miterlimit="10"
   width="172.73399"
   height="171.74001"
   id="rect4537" />

	<polygon
   style="fill:none;stroke:#00245b;stroke-width:1.14100003;stroke-miterlimit:10"
   clip-path="url(#SVGID_2_)"
   stroke-miterlimit="10"
   points="207.831,36.489 261.217,200.167 260.813,200.299 96.191,253.996 96.06,253.591 42.67,89.913 43.075,89.782 207.697,36.085 "
   id="polygon4539" />

	<polygon
   style="fill:#00b4cd"
   clip-path="url(#SVGID_2_)"
   points="43.064,197.458 42.972,197.724 82.259,211.587 82.04,210.91 43.692,197.378 61.187,147.304 60.898,146.414 "
   id="polygon4541" />

	<polygon
   style="fill:none;stroke:#00245b;stroke-width:1.99699998;stroke-miterlimit:10"
   clip-path="url(#SVGID_2_)"
   stroke-miterlimit="10"
   points="43.064,197.458 42.972,197.724 82.259,211.587 82.04,210.91 43.692,197.378 61.187,147.304 60.898,146.414 "
   id="polygon4543" />

	<polygon
   style="fill:#00b4cd"
   clip-path="url(#SVGID_2_)"
   points="99.904,36.344 99.637,36.25 85.734,75.867 86.411,75.646 99.983,36.971 150.563,54.721 151.448,54.432 "
   id="polygon4545" />

	<polygon
   style="fill:none;stroke:#00245b;stroke-width:1.99699998;stroke-miterlimit:10"
   clip-path="url(#SVGID_2_)"
   stroke-miterlimit="10"
   points="99.904,36.344 99.637,36.25 85.734,75.867 86.411,75.646 99.983,36.971 150.563,54.721 151.448,54.432 "
   id="polygon4547" />

	<polygon
   style="fill:#00b4cd"
   clip-path="url(#SVGID_2_)"
   points="204.179,254.297 204.446,254.391 218.285,214.416 217.609,214.636 204.1,253.669 152.485,235.715 151.596,236.001 "
   id="polygon4549" />

	<polygon
   style="fill:none;stroke:#00245b;stroke-width:1.99699998;stroke-miterlimit:10"
   clip-path="url(#SVGID_2_)"
   stroke-miterlimit="10"
   points="204.179,254.297 204.446,254.391 218.285,214.416 217.609,214.636 204.1,253.669 152.485,235.715 151.596,236.001 "
   id="polygon4551" />

	<polygon
   style="fill:#00b4cd"
   clip-path="url(#SVGID_2_)"
   points="243.105,144.226 261.018,93.182 261.111,92.916 222.008,79.048 222.227,79.724 260.39,93.262 242.818,143.337 "
   id="polygon4553" />

	<polygon
   style="fill:none;stroke:#00245b;stroke-width:1.99699998;stroke-miterlimit:10"
   clip-path="url(#SVGID_2_)"
   stroke-miterlimit="10"
   points="243.105,144.226 261.018,93.182 261.111,92.916 222.008,79.048 222.227,79.724 260.39,93.262 242.818,143.337 "
   id="polygon4555" />

</g>
      <g
         id="g4603">
	<defs
   id="defs4561">
		
			<rect
   id="rect4559"
   x="90.407997"
   y="83.533997"
   transform="matrix(-0.3101,-0.9507,0.9507,-0.3101,61.2094,334.9347)"
   width="123.448"
   height="123.448" />

	</defs>

	<clipPath
   id="clipPath4565">
		<use
   height="100%"
   width="100%"
   y="0"
   x="0"
   style="overflow:visible"
   xlink:href="#SVGID_3_-9"
   overflow="visible"
   id="use4563" />

	</clipPath>

	
		<line
   style="fill:none;stroke:#00245b;stroke-width:0.285;stroke-miterlimit:10"
   clip-path="url(#SVGID_4_)"
   stroke-miterlimit="10"
   x1="152.177"
   y1="36.367001"
   x2="152.177"
   y2="255.91299"
   id="line4567" />

	
		<line
   style="fill:none;stroke:#00245b;stroke-width:0.285;stroke-miterlimit:10"
   clip-path="url(#SVGID_4_)"
   stroke-miterlimit="10"
   x1="262.38"
   y1="145.12"
   x2="40.810001"
   y2="145.12"
   id="line4569" />

	
		<line
   style="fill:none;stroke:#00245b;stroke-width:0.285;stroke-miterlimit:10"
   clip-path="url(#SVGID_4_)"
   stroke-miterlimit="10"
   x1="262.38"
   y1="125.87"
   x2="40.810001"
   y2="164.57401"
   id="line4571" />

	
		<line
   style="fill:none;stroke:#00245b;stroke-width:0.285;stroke-miterlimit:10"
   clip-path="url(#SVGID_4_)"
   stroke-miterlimit="10"
   x1="262.38"
   y1="105.383"
   x2="40.810001"
   y2="185.276"
   id="line4573" />

	
		<line
   style="fill:none;stroke:#00245b;stroke-width:0.285;stroke-miterlimit:10"
   clip-path="url(#SVGID_4_)"
   stroke-miterlimit="10"
   x1="262.48199"
   y1="82.028999"
   x2="40.811001"
   y2="208.81799"
   id="line4575" />

	
		<line
   style="fill:none;stroke:#00245b;stroke-width:0.285;stroke-miterlimit:10"
   clip-path="url(#SVGID_4_)"
   stroke-miterlimit="10"
   x1="262.29401"
   y1="53.583"
   x2="40.810001"
   y2="237.69701"
   id="line4577" />

	
		<line
   style="fill:none;stroke:#00245b;stroke-width:0.285;stroke-miterlimit:10"
   clip-path="url(#SVGID_4_)"
   stroke-miterlimit="10"
   x1="244.222"
   y1="36.449001"
   x2="58.372002"
   y2="255.871"
   id="line4579" />

	
		<line
   style="fill:none;stroke:#00245b;stroke-width:0.285;stroke-miterlimit:10"
   clip-path="url(#SVGID_4_)"
   stroke-miterlimit="10"
   x1="215.55701"
   y1="36.367001"
   x2="87.634003"
   y2="255.87"
   id="line4581" />

	
		<line
   style="fill:none;stroke:#00245b;stroke-width:0.285;stroke-miterlimit:10"
   clip-path="url(#SVGID_4_)"
   stroke-miterlimit="10"
   x1="192.133"
   y1="36.367001"
   x2="111.488"
   y2="255.87"
   id="line4583" />

	
		<line
   style="fill:none;stroke:#00245b;stroke-width:0.285;stroke-miterlimit:10"
   clip-path="url(#SVGID_4_)"
   stroke-miterlimit="10"
   x1="171.533"
   y1="36.367001"
   x2="132.457"
   y2="255.91299"
   id="line4585" />

	
		<line
   style="fill:none;stroke:#00245b;stroke-width:0.285;stroke-miterlimit:10"
   clip-path="url(#SVGID_4_)"
   stroke-miterlimit="10"
   x1="132.821"
   y1="36.367001"
   x2="171.89"
   y2="255.87"
   id="line4587" />

	
		<line
   style="fill:none;stroke:#00245b;stroke-width:0.285;stroke-miterlimit:10"
   clip-path="url(#SVGID_4_)"
   stroke-miterlimit="10"
   x1="112.222"
   y1="36.367001"
   x2="192.867"
   y2="255.87"
   id="line4589" />

	
		<line
   style="fill:none;stroke:#00245b;stroke-width:0.285;stroke-miterlimit:10"
   clip-path="url(#SVGID_4_)"
   stroke-miterlimit="10"
   x1="88.797997"
   y1="36.367001"
   x2="216.72099"
   y2="255.87"
   id="line4591" />

	
		<line
   style="fill:none;stroke:#00245b;stroke-width:0.285;stroke-miterlimit:10"
   clip-path="url(#SVGID_4_)"
   stroke-miterlimit="10"
   x1="60.063999"
   y1="36.367001"
   x2="245.98199"
   y2="255.87"
   id="line4593" />

	
		<line
   style="fill:none;stroke:#00245b;stroke-width:0.285;stroke-miterlimit:10"
   clip-path="url(#SVGID_4_)"
   stroke-miterlimit="10"
   x1="41.891998"
   y1="53.360001"
   x2="263.57401"
   y2="237.806"
   id="line4595" />

	
		<line
   style="fill:none;stroke:#00245b;stroke-width:0.285;stroke-miterlimit:10"
   clip-path="url(#SVGID_4_)"
   stroke-miterlimit="10"
   x1="40.810001"
   y1="81.421997"
   x2="262.38"
   y2="208.15199"
   id="line4597" />

	
		<line
   style="fill:none;stroke:#00245b;stroke-width:0.285;stroke-miterlimit:10"
   clip-path="url(#SVGID_4_)"
   stroke-miterlimit="10"
   x1="40.810001"
   y1="104.963"
   x2="262.38"
   y2="184.856"
   id="line4599" />

	
		<line
   style="fill:none;stroke:#00245b;stroke-width:0.285;stroke-miterlimit:10"
   clip-path="url(#SVGID_4_)"
   stroke-miterlimit="10"
   x1="40.810001"
   y1="125.666"
   x2="262.38"
   y2="164.37"
   id="line4601" />

</g>
      <g
         id="g4761">
	<defs
   id="defs4607">
		<rect
   y="0"
   x="0"
   id="rect4605"
   width="782.39801"
   height="289.33301" />

	</defs>

	<clipPath
   id="clipPath4611">
		<use
   height="100%"
   width="100%"
   y="0"
   x="0"
   style="overflow:visible"
   xlink:href="#SVGID_5_-3"
   overflow="visible"
   id="use4609" />

	</clipPath>

	
		<rect
   style="fill:none;stroke:#00245b;stroke-miterlimit:10"
   x="90.407997"
   y="83.535004"
   transform="matrix(-0.9507,0.3101,-0.3101,-0.9507,341.8081,236.1803)"
   clip-path="url(#SVGID_6_)"
   stroke-miterlimit="10"
   width="123.447"
   height="123.447"
   id="rect4613" />

	<path
   style="fill:#00245b"
   inkscape:connector-curvature="0"
   clip-path="url(#SVGID_6_)"
   d="m 289.811,37.788 h 4.019 c 2.84,0 4.891,0.818 6.15,2.452 1.26,1.636 1.89,4.007 1.89,7.115 v 22.51 c 0,3.11 -0.63,5.495 -1.89,7.157 -1.259,1.661 -3.31,2.492 -6.15,2.492 h -4.019 v 10.531 h -3.217 V 79.514 h -4.018 c -2.843,0 -4.893,-0.831 -6.151,-2.492 -1.26,-1.662 -1.889,-4.047 -1.889,-7.157 v -22.51 c 0,-3.108 0.629,-5.479 1.889,-7.115 1.258,-1.634 3.308,-2.452 6.151,-2.452 h 4.018 v -4.02 h 3.217 z M 277.75,69.865 c 0,2.091 0.374,3.713 1.125,4.865 0.75,1.153 1.983,1.728 3.7,1.728 h 4.018 V 40.843 h -4.018 c -1.717,0 -2.95,0.563 -3.7,1.689 -0.751,1.124 -1.125,2.733 -1.125,4.823 z m 12.061,-29.022 v 35.615 h 4.019 c 1.714,0 2.947,-0.575 3.699,-1.728 0.75,-1.152 1.125,-2.774 1.125,-4.865 v -22.51 c 0,-2.09 -0.375,-3.699 -1.125,-4.823 -0.752,-1.126 -1.985,-1.689 -3.699,-1.689 z"
   id="path4615" />

	<path
   style="fill:#00245b"
   inkscape:connector-curvature="0"
   clip-path="url(#SVGID_6_)"
   d="m 318.027,41.728 c 0,-2.895 0.63,-5.078 1.89,-6.553 1.259,-1.474 3.309,-2.211 6.15,-2.211 2.841,0 4.891,0.737 6.151,2.211 1.258,1.475 1.888,3.658 1.888,6.553 v 40.278 c 0,2.894 -0.63,5.092 -1.888,6.592 -1.26,1.5 -3.31,2.251 -6.151,2.251 -2.841,0 -4.891,-0.751 -6.15,-2.251 -1.26,-1.5 -1.89,-3.698 -1.89,-6.592 z m 3.216,40.278 c 0,1.876 0.375,3.309 1.126,4.301 0.75,0.992 1.982,1.488 3.698,1.488 1.715,0 2.947,-0.496 3.698,-1.488 0.75,-0.992 1.125,-2.425 1.125,-4.301 V 41.728 c 0,-1.876 -0.375,-3.297 -1.125,-4.261 -0.751,-0.966 -1.983,-1.447 -3.698,-1.447 -1.716,0 -2.948,0.481 -3.698,1.447 -0.751,0.964 -1.126,2.385 -1.126,4.261 z"
   id="path4617" />

	<polygon
   style="fill:#00245b"
   clip-path="url(#SVGID_6_)"
   points="353.964,63.434 353.964,90.045 350.748,90.045 350.748,33.768 353.964,33.768 353.964,60.379 363.611,60.379 363.611,33.768 366.827,33.768 366.827,90.045 363.611,90.045 363.611,63.434 "
   id="polygon4619" />

	<path
   style="fill:#00245b"
   inkscape:connector-curvature="0"
   clip-path="url(#SVGID_6_)"
   d="m 399.868,90.045 h -16.079 v 6.512 h -2.814 V 86.91 c 0.697,0 1.299,-0.442 1.809,-1.326 0.509,-0.885 0.925,-2.023 1.246,-3.418 0.321,-1.393 0.575,-2.946 0.764,-4.663 0.186,-1.714 0.307,-3.376 0.362,-4.984 l 1.446,-38.75 H 400.27 V 86.91 h 2.411 v 9.647 h -2.813 z M 388.371,72.519 c -0.054,1.34 -0.148,2.721 -0.28,4.141 -0.135,1.421 -0.323,2.774 -0.564,4.059 -0.241,1.287 -0.576,2.466 -1.005,3.537 -0.429,1.074 -0.964,1.958 -1.607,2.654 h 12.14 V 36.904 h -7.397 z"
   id="path4621" />

	<path
   style="fill:#00245b"
   inkscape:connector-curvature="0"
   clip-path="url(#SVGID_6_)"
   d="m 439.824,33.768 h 8.039 c 2.84,0 4.891,0.818 6.15,2.452 1.259,1.636 1.889,4.007 1.889,7.115 v 16.723 c 0,3.108 -0.63,5.495 -1.889,7.155 -1.26,1.661 -3.311,2.492 -6.15,2.492 h -4.823 v 20.34 h -3.216 z m 3.216,3.056 V 66.65 h 4.823 c 1.714,0 2.947,-0.576 3.697,-1.729 0.75,-1.151 1.125,-2.773 1.125,-4.863 V 43.335 c 0,-2.09 -0.375,-3.698 -1.125,-4.823 -0.75,-1.126 -1.983,-1.688 -3.697,-1.688 z"
   id="path4623" />

	<path
   style="fill:#00245b"
   inkscape:connector-curvature="0"
   clip-path="url(#SVGID_6_)"
   d="m 484.04,79.514 h -10.37 l -1.447,10.53 h -3.297 l 8.361,-56.357 h 3.216 l 8.361,56.357 h -3.296 z m -9.888,-3.056 h 9.486 l -2.331,-16.32 -2.412,-18.893 -2.412,18.893 z"
   id="path4625" />

	<path
   style="fill:#00245b"
   inkscape:connector-curvature="0"
   clip-path="url(#SVGID_6_)"
   d="m 514.27,58.691 c 0.75,-1.125 1.126,-2.734 1.126,-4.824 V 41.728 c 0,-1.876 -0.376,-3.297 -1.126,-4.261 -0.751,-0.966 -1.983,-1.447 -3.698,-1.447 -1.716,0 -2.948,0.481 -3.698,1.447 -0.751,0.964 -1.125,2.385 -1.125,4.261 v 8.119 h -3.216 v -8.119 c 0,-2.895 0.629,-5.078 1.89,-6.553 1.258,-1.474 3.308,-2.211 6.149,-2.211 2.84,0 4.89,0.737 6.15,2.211 1.259,1.475 1.889,3.658 1.889,6.553 v 12.139 c 0,4.18 -1.34,6.861 -4.02,8.04 2.68,1.179 4.02,3.859 4.02,8.039 v 12.06 c 0,2.894 -0.63,5.092 -1.889,6.592 -1.261,1.5 -3.311,2.251 -6.15,2.251 -2.842,0 -4.892,-0.751 -6.149,-2.251 -1.261,-1.5 -1.89,-3.698 -1.89,-6.592 v -8.04 h 3.216 v 8.04 c 0,1.876 0.374,3.309 1.125,4.301 0.75,0.992 1.982,1.488 3.698,1.488 1.715,0 2.947,-0.496 3.698,-1.488 0.75,-0.992 1.126,-2.425 1.126,-4.301 v -12.06 c 0,-2.09 -0.376,-3.697 -1.126,-4.823 -0.751,-1.126 -1.983,-1.689 -3.698,-1.689 h -4.02 v -3.055 h 4.02 c 1.714,0 2.947,-0.563 3.698,-1.688"
   id="path4627" />

	<path
   style="fill:#00245b"
   inkscape:connector-curvature="0"
   clip-path="url(#SVGID_6_)"
   d="m 543.292,33.768 c 2.573,0 4.422,0.684 5.547,2.05 1.125,1.368 1.688,3.337 1.688,5.91 v 13.667 c 0,3.27 -1.072,5.441 -3.216,6.512 2.679,1.073 4.02,3.485 4.02,7.235 v 12.06 c 0,2.894 -0.631,5.092 -1.889,6.593 -1.261,1.5 -3.311,2.25 -6.15,2.25 h -8.04 V 33.768 Z m -4.824,3.056 v 23.555 h 4.824 c 2.679,0 4.02,-1.66 4.02,-4.984 V 41.728 c 0,-3.269 -1.341,-4.904 -4.02,-4.904 z m 0,26.61 v 23.557 h 4.824 c 1.715,0 2.946,-0.496 3.698,-1.488 0.748,-0.991 1.125,-2.424 1.125,-4.301 v -12.06 c 0,-1.875 -0.377,-3.295 -1.125,-4.261 -0.752,-0.964 -1.983,-1.447 -3.698,-1.447 z"
   id="path4629" />

	<polygon
   style="fill:#00245b"
   clip-path="url(#SVGID_6_)"
   points="567.893,90.045 567.893,33.768 571.108,33.768 571.108,65.926 570.867,76.458 580.756,36.26 580.997,33.768 583.972,33.768 583.972,90.045 580.756,90.045 580.756,57.887 580.997,47.355 571.108,87.552 570.867,90.045 "
   id="polygon4631" />

	<polygon
   style="fill:#00245b"
   clip-path="url(#SVGID_6_)"
   points="605.757,90.044 605.757,36.903 598.522,36.903 598.522,33.768 616.209,33.768 616.209,36.903 608.973,36.903 608.973,90.044 "
   id="polygon4633" />

	<polygon
   style="fill:#00245b"
   clip-path="url(#SVGID_6_)"
   points="630.76,90.045 630.76,33.768 633.976,33.768 633.976,65.926 633.734,76.458 643.623,36.26 643.864,33.768 646.839,33.768 646.839,90.045 643.623,90.045 643.623,57.887 643.864,47.355 633.976,87.552 633.734,90.045 "
   id="polygon4635" />

	<path
   style="fill:#00245b"
   inkscape:connector-curvature="0"
   clip-path="url(#SVGID_6_)"
   d="m 671.519,33.768 h 7.638 v 56.276 h -3.216 V 66.57 h -3.698 l -6.994,23.474 h -3.296 l 6.993,-23.716 C 665.3,65.418 663.48,62.282 663.48,56.922 V 43.335 c 0,-3.108 0.629,-5.479 1.889,-7.115 1.259,-1.634 3.309,-2.452 6.15,-2.452 m -4.824,9.567 v 13.587 c 0,2.091 0.375,3.712 1.126,4.864 0.749,1.153 1.981,1.728 3.697,1.728 h 4.422 v -26.69 h -4.422 c -1.716,0 -2.948,0.562 -3.697,1.688 -0.751,1.125 -1.126,2.733 -1.126,4.823"
   id="path4637" />

	<path
   style="fill:none;stroke:#00245b;stroke-width:1.02100003;stroke-miterlimit:10"
   inkscape:connector-curvature="0"
   clip-path="url(#SVGID_6_)"
   stroke-miterlimit="10"
   d="m 289.257,147.142 c 0.258,2.278 0.607,4.038 1.048,5.279 0.439,1.242 1.331,1.864 2.679,1.864 v 2.949 c -1.192,0 -2.188,-0.218 -2.99,-0.659 -0.802,-0.438 -1.464,-1.088 -1.979,-1.94 -0.519,-0.854 -0.921,-1.914 -1.204,-3.185 -0.284,-1.267 -0.505,-2.704 -0.659,-4.309 l -0.932,-9.317 c -0.208,-2.018 -0.621,-3.571 -1.242,-4.658 -0.621,-1.087 -1.761,-1.631 -3.418,-1.631 h -2.328 v 25.699 h -3.106 v -54.348 h 3.106 v 25.699 h 2.328 c 1.501,0 2.537,-0.555 3.107,-1.669 0.568,-1.112 0.956,-2.678 1.164,-4.698 l 0.932,-9.239 c 0.154,-1.603 0.375,-3.04 0.659,-4.309 0.285,-1.268 0.686,-2.329 1.204,-3.183 0.517,-0.854 1.177,-1.501 1.98,-1.942 0.801,-0.439 1.797,-0.659 2.989,-0.659 v 2.95 c -1.346,0 -2.239,0.621 -2.679,1.863 -0.44,1.243 -0.789,3.003 -1.048,5.28 l -0.931,9.239 c -0.208,1.968 -0.583,3.611 -1.126,4.931 -0.543,1.32 -1.41,2.29 -2.601,2.911 1.345,0.57 2.317,1.515 2.911,2.833 0.594,1.321 0.996,2.965 1.204,4.931 z"
   id="path4639" />

	<path
   style="fill:none;stroke:#00245b;stroke-width:1.02100003;stroke-miterlimit:10"
   inkscape:connector-curvature="0"
   clip-path="url(#SVGID_6_)"
   stroke-miterlimit="10"
   d="m 296.7,102.886 h 3.027 l 4.581,23.292 2.33,14.597 1.863,-14.597 4.037,-23.292 h 3.028 l -7.531,43.479 c -0.26,1.709 -0.557,3.235 -0.893,4.58 -0.337,1.347 -0.776,2.485 -1.32,3.417 -0.543,0.931 -1.242,1.645 -2.096,2.135 -0.854,0.492 -1.955,0.737 -3.299,0.737 v -2.95 c 0.827,0 1.5,-0.18 2.018,-0.544 0.517,-0.36 0.932,-0.892 1.242,-1.591 0.311,-0.699 0.569,-1.526 0.777,-2.484 0.206,-0.958 0.414,-2.058 0.621,-3.3 l 0.077,-0.699 z"
   id="path4641" />

	<path
   style="fill:none;stroke:#00245b;stroke-width:1.02100003;stroke-miterlimit:10"
   inkscape:connector-curvature="0"
   clip-path="url(#SVGID_6_)"
   stroke-miterlimit="10"
   d="m 313.835,154.285 c 1.655,0 2.821,-0.699 3.494,-2.098 0.672,-1.396 1.061,-3.338 1.164,-5.821 l 1.553,-43.479 h 13.199 v 54.348 h -3.105 v -51.32 h -7.143 l -1.398,40.452 c -0.104,3.467 -0.738,6.146 -1.902,8.034 -1.165,1.892 -3.119,2.834 -5.862,2.834 z"
   id="path4643" />

	<path
   style="fill:none;stroke:#00245b;stroke-width:1.02100003;stroke-miterlimit:10"
   inkscape:connector-curvature="0"
   clip-path="url(#SVGID_6_)"
   stroke-miterlimit="10"
   d="m 338.947,102.887 h 3.106 v 19.642 h 4.659 c 2.743,0 4.723,0.803 5.939,2.407 1.216,1.606 1.825,3.91 1.825,6.91 v 16.15 c 0,3.003 -0.609,5.293 -1.825,6.871 -1.216,1.58 -3.196,2.367 -5.939,2.367 h -7.765 z m 7.765,51.398 c 1.655,0 2.846,-0.544 3.571,-1.63 0.725,-1.089 1.087,-2.642 1.087,-4.659 v -16.15 c 0,-2.018 -0.362,-3.583 -1.087,-4.697 -0.725,-1.112 -1.916,-1.669 -3.571,-1.669 h -4.659 v 28.805 z"
   id="path4645" />

	<polygon
   style="fill:none;stroke:#00245b;stroke-width:1.02100003;stroke-miterlimit:10"
   clip-path="url(#SVGID_6_)"
   stroke-miterlimit="10"
   points="360.638,157.234 360.638,105.914 353.651,105.914 353.651,102.886 370.732,102.886 370.732,105.914 363.746,105.914 363.746,157.234 "
   id="polygon4647" />

	<path
   style="fill:none;stroke:#00245b;stroke-width:1.02100003;stroke-miterlimit:10"
   inkscape:connector-curvature="0"
   clip-path="url(#SVGID_6_)"
   stroke-miterlimit="10"
   d="m 374.005,102.886 h 3.027 l 4.58,23.292 2.331,14.597 1.863,-14.597 4.037,-23.292 h 3.027 l -7.531,43.479 c -0.259,1.709 -0.557,3.235 -0.892,4.58 -0.338,1.347 -0.777,2.485 -1.32,3.417 -0.543,0.931 -1.242,1.645 -2.096,2.135 -0.855,0.492 -1.955,0.737 -3.299,0.737 v -2.95 c 0.826,0 1.499,-0.18 2.017,-0.544 0.518,-0.36 0.932,-0.892 1.242,-1.591 0.311,-0.699 0.57,-1.526 0.778,-2.484 0.205,-0.958 0.413,-2.058 0.621,-3.3 l 0.077,-0.699 z"
   id="path4649" />

	<path
   style="fill:none;stroke:#00245b;stroke-width:1.02100003;stroke-miterlimit:10"
   inkscape:connector-curvature="0"
   clip-path="url(#SVGID_6_)"
   stroke-miterlimit="10"
   d="m 396.486,102.886 h 7.766 c 2.742,0 4.723,0.789 5.938,2.368 1.216,1.58 1.825,3.87 1.825,6.871 v 16.15 c 0,3.003 -0.609,5.307 -1.825,6.91 -1.216,1.605 -3.196,2.407 -5.938,2.407 h -4.66 v 19.642 h -3.105 v -54.348 z m 3.106,2.95 v 28.805 h 4.66 c 1.655,0 2.846,-0.556 3.57,-1.669 0.725,-1.113 1.088,-2.679 1.088,-4.697 v -16.15 c 0,-2.018 -0.363,-3.571 -1.088,-4.659 -0.725,-1.086 -1.915,-1.63 -3.57,-1.63 z"
   id="path4651" />

	<path
   style="fill:none;stroke:#00245b;stroke-width:1.02100003;stroke-miterlimit:10"
   inkscape:connector-curvature="0"
   clip-path="url(#SVGID_6_)"
   stroke-miterlimit="10"
   d="m 416.751,102.886 h 3.105 v 19.643 h 4.659 c 2.742,0 4.723,0.803 5.939,2.407 1.215,1.606 1.824,3.909 1.824,6.91 v 16.15 c 0,3.003 -0.609,5.293 -1.824,6.87 -1.217,1.58 -3.197,2.369 -5.939,2.369 h -7.765 v -54.349 z m 7.765,51.399 c 1.655,0 2.846,-0.544 3.571,-1.631 0.724,-1.087 1.087,-2.641 1.087,-4.658 v -16.15 c 0,-2.018 -0.363,-3.584 -1.087,-4.697 -0.726,-1.112 -1.916,-1.669 -3.571,-1.669 h -4.659 v 28.805 z m 16.704,-51.399 h -3.104 v 54.348 h 3.104 z"
   id="path4653" />

	<polygon
   style="fill:none;stroke:#00245b;stroke-width:1.02100003;stroke-miterlimit:10"
   clip-path="url(#SVGID_6_)"
   stroke-miterlimit="10"
   points="462.77,157.235 462.77,102.886 465.875,102.886 465.875,133.943 465.643,144.113 475.192,105.293 475.426,102.886 478.298,102.886 478.298,157.235 475.192,157.235 475.192,126.178 475.426,116.007 465.875,154.828 465.643,157.235 "
   id="polygon4655" />

	<polygon
   style="fill:none;stroke:#00245b;stroke-width:1.02100003;stroke-miterlimit:10"
   clip-path="url(#SVGID_6_)"
   stroke-miterlimit="10"
   points="491.643,157.235 491.643,102.886 494.748,102.886 494.748,133.943 494.516,144.113 504.066,105.293 504.299,102.886 507.172,102.886 507.172,157.235 504.066,157.235 504.066,126.178 504.299,116.007 494.748,154.828 494.516,157.235 "
   id="polygon4657" />

	<path
   style="fill:none;stroke:#00245b;stroke-width:1.02100003;stroke-miterlimit:10"
   inkscape:connector-curvature="0"
   clip-path="url(#SVGID_6_)"
   stroke-miterlimit="10"
   d="m 529.017,149.471 c 0,2.795 -0.609,4.918 -1.825,6.367 -1.216,1.448 -3.197,2.174 -5.938,2.174 -2.744,0 -4.726,-0.726 -5.94,-2.174 -1.218,-1.449 -1.825,-3.572 -1.825,-6.367 v -38.898 c 0,-2.796 0.607,-4.904 1.825,-6.328 1.215,-1.423 3.196,-2.135 5.94,-2.135 2.741,0 4.723,0.712 5.938,2.135 1.216,1.424 1.825,3.532 1.825,6.328 v 7.841 h -3.105 v -7.841 c 0,-1.812 -0.364,-3.184 -1.088,-4.116 -0.725,-0.931 -1.915,-1.397 -3.57,-1.397 -1.658,0 -2.849,0.466 -3.572,1.397 -0.728,0.932 -1.088,2.304 -1.088,4.116 v 38.898 c 0,1.812 0.36,3.197 1.088,4.153 0.724,0.959 1.914,1.437 3.572,1.437 1.655,0 2.846,-0.478 3.57,-1.437 0.724,-0.956 1.088,-2.341 1.088,-4.153 v -7.764 h 3.105 z"
   id="path4659" />

	<path
   style="fill:none;stroke:#00245b;stroke-width:1.02100003;stroke-miterlimit:10"
   inkscape:connector-curvature="0"
   clip-path="url(#SVGID_6_)"
   stroke-miterlimit="10"
   d="m 550.068,147.142 c 0.259,2.278 0.607,4.038 1.048,5.279 0.439,1.242 1.333,1.864 2.679,1.864 v 2.949 c -1.191,0 -2.188,-0.218 -2.989,-0.659 -0.802,-0.438 -1.462,-1.088 -1.979,-1.94 -0.519,-0.854 -0.919,-1.914 -1.202,-3.185 -0.286,-1.267 -0.505,-2.704 -0.661,-4.309 l -0.932,-9.317 c -0.208,-2.018 -0.621,-3.571 -1.242,-4.658 -0.621,-1.087 -1.761,-1.631 -3.416,-1.631 h -2.33 v 25.699 h -3.105 v -54.348 h 3.105 v 25.699 h 2.33 c 1.501,0 2.535,-0.555 3.105,-1.669 0.568,-1.112 0.958,-2.678 1.164,-4.698 l 0.932,-9.239 c 0.156,-1.603 0.375,-3.04 0.661,-4.309 0.283,-1.268 0.687,-2.329 1.202,-3.183 0.518,-0.854 1.177,-1.501 1.981,-1.942 0.802,-0.439 1.798,-0.659 2.989,-0.659 v 2.95 c -1.348,0 -2.241,0.621 -2.679,1.863 -0.44,1.243 -0.791,3.003 -1.05,5.28 l -0.932,9.239 c -0.206,1.968 -0.581,3.611 -1.124,4.931 -0.545,1.32 -1.411,2.29 -2.603,2.911 1.347,0.57 2.316,1.515 2.913,2.833 0.594,1.321 0.994,2.965 1.202,4.931 z"
   id="path4661" />

	<path
   style="fill:none;stroke:#00245b;stroke-width:1.02100003;stroke-miterlimit:10"
   inkscape:connector-curvature="0"
   clip-path="url(#SVGID_6_)"
   stroke-miterlimit="10"
   d="m 556.679,102.886 h 3.028 l 4.581,23.292 2.329,14.597 1.863,-14.597 4.037,-23.292 h 3.028 l -7.531,43.479 c -0.26,1.709 -0.557,3.235 -0.893,4.58 -0.339,1.347 -0.776,2.485 -1.32,3.417 -0.543,0.931 -1.242,1.645 -2.096,2.135 -0.854,0.492 -1.955,0.737 -3.3,0.737 v -2.95 c 0.827,0 1.5,-0.18 2.019,-0.544 0.517,-0.36 0.932,-0.892 1.242,-1.591 0.31,-0.699 0.568,-1.526 0.776,-2.484 0.206,-0.958 0.414,-2.058 0.621,-3.3 l 0.078,-0.699 z"
   id="path4663" />

	<path
   style="fill:none;stroke:#00245b;stroke-width:1.02100003;stroke-miterlimit:10"
   inkscape:connector-curvature="0"
   clip-path="url(#SVGID_6_)"
   stroke-miterlimit="10"
   d="m 594.568,149.471 c 0,2.795 -0.61,4.918 -1.825,6.367 -1.216,1.448 -3.196,2.174 -5.938,2.174 -2.744,0 -4.726,-0.726 -5.94,-2.174 -1.218,-1.449 -1.825,-3.572 -1.825,-6.367 v -38.898 c 0,-2.796 0.607,-4.904 1.825,-6.328 1.215,-1.423 3.196,-2.135 5.94,-2.135 2.742,0 4.723,0.712 5.938,2.135 1.215,1.424 1.825,3.532 1.825,6.328 v 7.841 h -3.105 v -7.841 c 0,-1.812 -0.364,-3.184 -1.088,-4.116 -0.725,-0.931 -1.915,-1.397 -3.57,-1.397 -1.658,0 -2.849,0.466 -3.572,1.397 -0.727,0.932 -1.088,2.304 -1.088,4.116 v 38.898 c 0,1.812 0.361,3.197 1.088,4.153 0.724,0.959 1.914,1.437 3.572,1.437 1.655,0 2.846,-0.478 3.57,-1.437 0.724,-0.956 1.088,-2.341 1.088,-4.153 v -7.764 h 3.105 z"
   id="path4665" />

	<path
   style="fill:none;stroke:#00245b;stroke-width:1.02100003;stroke-miterlimit:10"
   inkscape:connector-curvature="0"
   clip-path="url(#SVGID_6_)"
   stroke-miterlimit="10"
   d="m 615.931,149.471 c 0,2.795 -0.608,4.918 -1.824,6.367 -1.217,1.448 -3.196,2.174 -5.939,2.174 -2.744,0 -4.724,-0.726 -5.94,-2.174 -1.216,-1.449 -1.823,-3.572 -1.823,-6.367 v -38.898 c 0,-2.796 0.607,-4.904 1.823,-6.328 1.217,-1.423 3.196,-2.135 5.94,-2.135 2.743,0 4.723,0.712 5.939,2.135 1.216,1.424 1.824,3.532 1.824,6.328 v 7.841 h -3.104 v -7.841 c 0,-1.812 -0.363,-3.184 -1.087,-4.116 -0.727,-0.931 -1.917,-1.397 -3.572,-1.397 -1.657,0 -2.847,0.466 -3.572,1.397 -0.725,0.932 -1.086,2.304 -1.086,4.116 v 38.898 c 0,1.812 0.361,3.197 1.086,4.153 0.726,0.959 1.915,1.437 3.572,1.437 1.655,0 2.846,-0.478 3.572,-1.437 0.724,-0.956 1.087,-2.341 1.087,-4.153 v -7.764 h 3.104 z"
   id="path4667" />

	<polygon
   style="fill:none;stroke:#00245b;stroke-width:1.02100003;stroke-miterlimit:10"
   clip-path="url(#SVGID_6_)"
   stroke-miterlimit="10"
   points="626.734,157.234 626.734,105.914 619.747,105.914 619.747,102.886 636.828,102.886 636.828,105.914 629.841,105.914 629.841,157.234 "
   id="polygon4669" />

	<path
   style="fill:none;stroke:#00245b;stroke-width:1.02100003;stroke-miterlimit:10"
   inkscape:connector-curvature="0"
   clip-path="url(#SVGID_6_)"
   stroke-miterlimit="10"
   d="m 648.008,102.886 c 2.484,0 4.271,0.659 5.356,1.98 1.088,1.32 1.63,3.221 1.63,5.706 v 13.199 c 0,3.158 -1.034,5.255 -3.104,6.289 2.587,1.037 3.883,3.366 3.883,6.988 v 11.647 c 0,2.795 -0.611,4.918 -1.825,6.365 -1.217,1.451 -3.197,2.174 -5.939,2.174 h -7.765 v -54.348 z m -4.659,2.95 v 22.749 h 4.659 c 2.588,0 3.882,-1.603 3.882,-4.814 v -13.199 c 0,-3.157 -1.294,-4.736 -3.882,-4.736 z m 0,25.699 v 22.75 h 4.659 c 1.655,0 2.847,-0.479 3.57,-1.437 0.725,-0.958 1.088,-2.342 1.088,-4.153 v -11.647 c 0,-1.811 -0.363,-3.183 -1.088,-4.115 -0.724,-0.932 -1.915,-1.398 -3.57,-1.398 z"
   id="path4671" />

	<path
   style="fill:none;stroke:#00245b;stroke-width:1.02100003;stroke-miterlimit:10"
   inkscape:connector-curvature="0"
   clip-path="url(#SVGID_6_)"
   stroke-miterlimit="10"
   d="m 674.095,147.064 h -10.016 l -1.397,10.17 h -3.183 l 8.074,-54.426 h 3.105 l 8.074,54.426 h -3.184 z m -9.55,-2.951 h 9.161 l -2.251,-15.761 -2.329,-18.245 -2.33,18.245 z"
   id="path4673" />

	<polygon
   style="fill:#00245b"
   clip-path="url(#SVGID_6_)"
   points="284.946,170.049 284.946,206.634 282.855,206.634 282.855,172.087 276.584,172.087 276.584,206.634 274.495,206.634 274.495,170.049 "
   id="polygon4675" />

	<path
   style="fill:#00245b"
   inkscape:connector-curvature="0"
   clip-path="url(#SVGID_6_)"
   d="m 291.688,170.049 h 5.227 c 1.845,0 3.178,0.531 3.998,1.593 0.817,1.064 1.227,2.605 1.227,4.626 v 10.871 c 0,2.021 -0.41,3.572 -1.227,4.651 -0.82,1.08 -2.153,1.621 -3.998,1.621 h -3.136 v 13.223 h -2.091 z m 2.091,1.986 v 19.39 h 3.136 c 1.114,0 1.915,-0.375 2.403,-1.124 0.488,-0.749 0.732,-1.803 0.732,-3.162 v -10.871 c 0,-1.358 -0.244,-2.403 -0.732,-3.136 -0.488,-0.731 -1.289,-1.097 -2.403,-1.097 z"
   id="path4677" />

	<polygon
   style="fill:#00245b"
   clip-path="url(#SVGID_6_)"
   points="308.309,206.633 308.309,170.048 310.398,170.048 310.398,190.954 310.242,197.801 316.669,171.669 316.827,170.048 318.76,170.048 318.76,206.633 316.669,206.633 316.669,185.728 316.827,178.881 310.398,205.015 310.242,206.633 "
   id="polygon4679" />

	<polygon
   style="fill:#00245b"
   clip-path="url(#SVGID_6_)"
   points="338.202,170.048 342.018,186.877 343.585,197.017 345.153,186.877 348.968,170.048 351.059,170.048 351.059,206.634 348.968,206.634 348.968,183.062 349.23,176.215 344.63,199.786 342.54,199.786 337.941,176.215 338.202,183.062 338.202,206.634 336.111,206.634 336.111,170.048 "
   id="polygon4681" />

	<polygon
   style="fill:#00245b"
   clip-path="url(#SVGID_6_)"
   points="357.802,206.633 357.802,170.048 359.893,170.048 359.893,190.954 359.735,197.801 366.164,171.669 366.321,170.048 368.253,170.048 368.253,206.633 366.164,206.633 366.164,185.728 366.321,178.881 359.893,205.015 359.735,206.633 "
   id="polygon4683" />

	<polygon
   style="fill:#00245b"
   clip-path="url(#SVGID_6_)"
   points="377.087,189.334 377.087,206.633 374.997,206.633 374.997,170.048 377.087,170.048 377.087,187.348 383.358,187.348 383.358,170.048 385.448,170.048 385.448,206.633 383.358,206.633 383.358,189.334 "
   id="polygon4685" />

	<polygon
   style="fill:#00245b"
   clip-path="url(#SVGID_6_)"
   points="392.19,206.633 392.19,170.048 394.28,170.048 394.28,190.954 394.124,197.801 400.552,171.669 400.709,170.048 402.643,170.048 402.643,206.633 400.552,206.633 400.552,185.728 400.709,178.881 394.28,205.015 394.124,206.633 "
   id="polygon4687" />

	<path
   style="fill:#00245b"
   inkscape:connector-curvature="0"
   clip-path="url(#SVGID_6_)"
   d="m 419.732,201.407 c 0,1.882 -0.41,3.311 -1.229,4.286 -0.818,0.976 -2.151,1.463 -3.997,1.463 -1.848,0 -3.18,-0.487 -3.998,-1.463 -0.819,-0.976 -1.229,-2.404 -1.229,-4.286 v -26.186 c 0,-1.881 0.409,-3.3 1.229,-4.259 0.818,-0.958 2.15,-1.438 3.998,-1.438 1.846,0 3.179,0.479 3.997,1.438 0.819,0.959 1.229,2.378 1.229,4.259 v 5.279 h -2.091 v -5.279 c 0,-1.219 -0.244,-2.142 -0.731,-2.769 -0.488,-0.628 -1.29,-0.942 -2.404,-0.942 -1.116,0 -1.918,0.314 -2.404,0.942 -0.488,0.627 -0.731,1.55 -0.731,2.769 v 26.186 c 0,1.22 0.243,2.151 0.731,2.796 0.486,0.645 1.288,0.967 2.404,0.967 1.114,0 1.916,-0.322 2.404,-0.967 0.487,-0.645 0.731,-1.576 0.731,-2.796 v -5.227 h 2.091 z"
   id="path4689" />

	<polygon
   style="fill:#00245b"
   clip-path="url(#SVGID_6_)"
   points="428.773,206.634 428.773,172.087 424.07,172.087 424.07,170.049 435.568,170.049 435.568,172.087 430.865,172.087 430.865,206.634 "
   id="polygon4691" />

	<polygon
   style="fill:#00245b"
   clip-path="url(#SVGID_6_)"
   points="442.938,172.087 442.938,187.348 448.425,187.348 448.425,189.335 442.938,189.335 442.938,204.595 449.471,204.595 449.471,206.634 440.847,206.634 440.847,170.049 449.471,170.049 449.471,172.087 "
   id="polygon4693" />

	<path
   style="fill:#00245b"
   inkscape:connector-curvature="0"
   clip-path="url(#SVGID_6_)"
   d="m 455.428,170.049 h 5.227 c 1.847,0 3.18,0.531 3.998,1.593 0.818,1.064 1.229,2.605 1.229,4.626 v 10.871 c 0,2.021 -0.41,3.572 -1.229,4.651 -0.818,1.08 -2.151,1.621 -3.998,1.621 h -3.136 v 13.223 h -2.091 z m 2.091,1.986 v 19.39 h 3.136 c 1.115,0 1.916,-0.375 2.404,-1.124 0.487,-0.749 0.731,-1.803 0.731,-3.162 v -10.871 c 0,-1.358 -0.244,-2.403 -0.731,-3.136 -0.488,-0.731 -1.289,-1.097 -2.404,-1.097 z"
   id="path4695" />

	<path
   style="fill:#00245b"
   inkscape:connector-curvature="0"
   clip-path="url(#SVGID_6_)"
   d="m 482.396,201.407 c 0,1.882 -0.41,3.311 -1.229,4.286 -0.819,0.976 -2.152,1.463 -3.999,1.463 -1.847,0 -3.18,-0.487 -3.998,-1.463 -0.819,-0.976 -1.228,-2.404 -1.228,-4.286 v -26.186 c 0,-1.881 0.408,-3.3 1.228,-4.259 0.818,-0.958 2.151,-1.438 3.998,-1.438 1.847,0 3.18,0.479 3.999,1.438 0.818,0.959 1.229,2.378 1.229,4.259 v 5.279 h -2.091 v -5.279 c 0,-1.219 -0.244,-2.142 -0.732,-2.769 -0.487,-0.628 -1.289,-0.942 -2.404,-0.942 -1.115,0 -1.916,0.314 -2.403,0.942 -0.488,0.627 -0.732,1.55 -0.732,2.769 v 26.186 c 0,1.22 0.244,2.151 0.732,2.796 0.487,0.645 1.288,0.967 2.403,0.967 1.115,0 1.917,-0.322 2.404,-0.967 0.488,-0.645 0.732,-1.576 0.732,-2.796 v -5.227 h 2.091 z"
   id="path4697" />

	<polygon
   style="fill:#00245b"
   clip-path="url(#SVGID_6_)"
   points="491.438,206.634 491.438,172.087 486.734,172.087 486.734,170.049 498.232,170.049 498.232,172.087 493.528,172.087 493.528,206.634 "
   id="polygon4699" />

	<path
   style="fill:#00245b"
   inkscape:connector-curvature="0"
   clip-path="url(#SVGID_6_)"
   d="m 508.737,170.048 c 1.673,0 2.875,0.445 3.606,1.332 0.731,0.891 1.098,2.17 1.098,3.842 v 8.886 c 0,2.126 -0.697,3.537 -2.091,4.233 1.741,0.697 2.613,2.265 2.613,4.704 v 7.84 c 0,1.882 -0.41,3.311 -1.229,4.285 -0.818,0.977 -2.151,1.463 -3.998,1.463 h -5.227 v -36.585 z m -3.135,1.987 v 15.312 h 3.136 c 1.742,0 2.613,-1.079 2.613,-3.24 v -8.886 c 0,-2.124 -0.871,-3.187 -2.613,-3.187 h -3.136 z m 0,17.299 v 15.313 h 3.136 c 1.115,0 1.916,-0.321 2.404,-0.968 0.487,-0.644 0.731,-1.574 0.731,-2.795 v -7.84 c 0,-1.22 -0.244,-2.144 -0.731,-2.77 -0.488,-0.628 -1.289,-0.941 -2.404,-0.941 h -3.136 z"
   id="path4701" />

	<polygon
   style="fill:#00245b"
   clip-path="url(#SVGID_6_)"
   points="522.64,172.087 522.64,187.348 528.127,187.348 528.127,189.335 522.64,189.335 522.64,204.595 529.172,204.595 529.172,206.634 520.549,206.634 520.549,170.049 529.172,170.049 529.172,172.087 "
   id="polygon4703" />

	<path
   style="fill:#00245b"
   inkscape:connector-curvature="0"
   clip-path="url(#SVGID_6_)"
   d="m 555.879,199.839 c 0.174,1.533 0.409,2.718 0.705,3.555 0.296,0.836 0.896,1.253 1.803,1.253 v 1.987 c -0.801,0 -1.472,-0.149 -2.012,-0.444 -0.54,-0.296 -0.984,-0.732 -1.332,-1.307 -0.35,-0.575 -0.62,-1.289 -0.811,-2.144 -0.192,-0.853 -0.34,-1.818 -0.444,-2.9 l -0.627,-6.271 c -0.14,-1.358 -0.419,-2.405 -0.837,-3.136 -0.418,-0.732 -1.185,-1.097 -2.299,-1.097 h -1.568 v 17.299 h -2.091 v -36.585 h 2.091 v 17.299 h 1.568 c 1.01,0 1.706,-0.374 2.09,-1.124 0.383,-0.748 0.645,-1.802 0.785,-3.161 l 0.625,-6.22 c 0.105,-1.08 0.253,-2.046 0.445,-2.9 0.191,-0.854 0.462,-1.569 0.811,-2.144 0.348,-0.574 0.792,-1.011 1.333,-1.307 0.539,-0.295 1.21,-0.443 2.012,-0.443 v 1.985 c -0.906,0 -1.508,0.418 -1.803,1.254 -0.298,0.838 -0.532,2.021 -0.706,3.555 l -0.627,6.22 c -0.14,1.324 -0.393,2.43 -0.758,3.318 -0.366,0.888 -0.95,1.542 -1.751,1.96 0.905,0.384 1.559,1.02 1.96,1.907 0.4,0.89 0.67,1.995 0.81,3.319 z"
   id="path4705" />

	<path
   style="fill:#00245b"
   inkscape:connector-curvature="0"
   clip-path="url(#SVGID_6_)"
   d="m 562.097,170.049 h 2.039 l 3.083,15.679 1.568,9.826 1.254,-9.826 2.718,-15.679 h 2.039 l -5.07,29.268 c -0.175,1.149 -0.375,2.178 -0.601,3.084 -0.228,0.905 -0.522,1.672 -0.889,2.299 -0.365,0.627 -0.836,1.106 -1.412,1.438 -0.574,0.332 -1.314,0.497 -2.22,0.497 v -1.987 c 0.557,0 1.01,-0.121 1.358,-0.366 0.348,-0.242 0.627,-0.6 0.836,-1.069 0.209,-0.472 0.384,-1.027 0.522,-1.674 0.139,-0.644 0.278,-1.385 0.419,-2.221 l 0.052,-0.47 z"
   id="path4707" />

	<path
   style="fill:#00245b"
   inkscape:connector-curvature="0"
   clip-path="url(#SVGID_6_)"
   d="m 576.563,204.646 c 1.115,0 1.897,-0.47 2.353,-1.411 0.452,-0.939 0.713,-2.247 0.783,-3.919 l 1.045,-29.268 h 8.886 v 36.585 h -2.091 v -34.547 h -4.809 l -0.94,27.229 c -0.07,2.335 -0.498,4.138 -1.28,5.409 -0.784,1.273 -2.1,1.908 -3.946,1.908 v -1.986 z"
   id="path4709" />

	<path
   style="fill:#00245b"
   inkscape:connector-curvature="0"
   clip-path="url(#SVGID_6_)"
   d="m 596.371,170.049 h 2.091 v 13.222 h 3.136 c 1.846,0 3.179,0.542 3.998,1.621 0.818,1.08 1.228,2.631 1.228,4.652 v 10.87 c 0,2.021 -0.409,3.562 -1.228,4.626 -0.819,1.062 -2.152,1.594 -3.998,1.594 h -5.227 z m 5.227,34.597 c 1.114,0 1.915,-0.366 2.404,-1.097 0.487,-0.732 0.731,-1.777 0.731,-3.136 v -10.87 c 0,-1.359 -0.244,-2.413 -0.731,-3.163 -0.489,-0.748 -1.29,-1.124 -2.404,-1.124 h -3.136 v 19.39 z"
   id="path4711" />

	<polygon
   style="fill:#00245b"
   clip-path="url(#SVGID_6_)"
   points="616.492,206.634 616.492,172.087 611.788,172.087 611.788,170.049 623.286,170.049 623.286,172.087 618.583,172.087 618.583,206.634 "
   id="polygon4713" />

	<path
   style="fill:#00245b"
   inkscape:connector-curvature="0"
   clip-path="url(#SVGID_6_)"
   d="m 627.258,170.049 h 2.039 l 3.083,15.679 1.567,9.826 1.255,-9.826 2.718,-15.679 h 2.038 l -5.069,29.268 c -0.175,1.149 -0.375,2.178 -0.601,3.084 -0.228,0.905 -0.523,1.672 -0.889,2.299 -0.366,0.627 -0.837,1.106 -1.413,1.438 -0.573,0.332 -1.314,0.497 -2.22,0.497 v -1.987 c 0.556,0 1.011,-0.121 1.358,-0.366 0.349,-0.242 0.628,-0.6 0.837,-1.069 0.209,-0.472 0.383,-1.027 0.522,-1.674 0.139,-0.644 0.278,-1.385 0.418,-2.221 l 0.053,-0.47 z"
   id="path4715" />

	<path
   style="fill:#00245b"
   inkscape:connector-curvature="0"
   clip-path="url(#SVGID_6_)"
   d="m 645.395,170.049 h 5.227 c 1.847,0 3.179,0.531 3.998,1.593 0.818,1.064 1.228,2.605 1.228,4.626 v 10.871 c 0,2.021 -0.409,3.572 -1.228,4.651 -0.819,1.08 -2.151,1.621 -3.998,1.621 h -3.136 v 13.223 h -2.091 z m 2.09,1.986 v 19.39 h 3.136 c 1.114,0 1.915,-0.375 2.404,-1.124 0.487,-0.749 0.731,-1.803 0.731,-3.162 v -10.871 c 0,-1.358 -0.244,-2.403 -0.731,-3.136 -0.489,-0.731 -1.29,-1.097 -2.404,-1.097 z"
   id="path4717" />

	<path
   style="fill:#00245b"
   inkscape:connector-curvature="0"
   clip-path="url(#SVGID_6_)"
   d="m 662.015,170.048 h 2.089 v 13.224 h 3.137 c 1.847,0 3.18,0.54 3.998,1.619 0.818,1.081 1.229,2.633 1.229,4.653 v 10.87 c 0,2.021 -0.41,3.562 -1.229,4.625 -0.819,1.063 -2.151,1.594 -3.998,1.594 h -5.226 z m 5.225,34.599 c 1.115,0 1.916,-0.366 2.404,-1.099 0.488,-0.73 0.731,-1.775 0.731,-3.135 v -10.87 c 0,-1.36 -0.243,-2.413 -0.731,-3.163 -0.488,-0.749 -1.289,-1.124 -2.404,-1.124 h -3.137 v 19.391 z m 11.875,-34.599 h -2.09 v 36.585 h 2.09 z"
   id="path4719" />

	<path
   style="fill:#00245b"
   inkscape:connector-curvature="0"
   clip-path="url(#SVGID_6_)"
   d="m 274.522,219.025 h 5.231 c 1.848,0 3.182,0.532 4.002,1.595 0.819,1.065 1.229,2.608 1.229,4.629 v 10.882 c 0,2.022 -0.41,3.574 -1.229,4.655 -0.82,1.082 -2.154,1.623 -4.002,1.623 h -3.138 v 13.233 h -2.093 z m 2.093,1.989 v 19.406 h 3.138 c 1.116,0 1.918,-0.375 2.407,-1.125 0.487,-0.749 0.731,-1.803 0.731,-3.164 v -10.882 c 0,-1.358 -0.244,-2.405 -0.731,-3.137 -0.489,-0.733 -1.291,-1.099 -2.407,-1.099 h -3.138 z"
   id="path4721" />

	<polygon
   style="fill:#00245b"
   clip-path="url(#SVGID_6_)"
   points="296.808,221.065 296.808,236.339 302.3,236.339 302.3,238.328 296.808,238.328 296.808,253.603 303.347,253.603 303.347,255.643 294.715,255.643 294.715,219.025 303.347,219.025 303.347,221.065 "
   id="polygon4723" />

	<path
   style="fill:#00245b"
   inkscape:connector-curvature="0"
   clip-path="url(#SVGID_6_)"
   d="m 323.225,250.412 c 0,1.884 -0.41,3.313 -1.229,4.29 -0.821,0.976 -2.155,1.465 -4.002,1.465 -1.849,0 -3.183,-0.489 -4.002,-1.465 -0.821,-0.977 -1.23,-2.406 -1.23,-4.29 v -26.208 c 0,-1.885 0.409,-3.305 1.23,-4.265 0.819,-0.959 2.153,-1.438 4.002,-1.438 1.847,0 3.181,0.479 4.002,1.438 0.819,0.96 1.229,2.38 1.229,4.265 v 5.282 h -2.093 v -5.282 c 0,-1.222 -0.244,-2.146 -0.732,-2.772 -0.488,-0.628 -1.291,-0.941 -2.406,-0.941 -1.117,0 -1.919,0.313 -2.407,0.941 -0.489,0.627 -0.732,1.551 -0.732,2.772 v 26.208 c 0,1.221 0.243,2.153 0.732,2.799 0.488,0.645 1.29,0.968 2.407,0.968 1.115,0 1.918,-0.323 2.406,-0.968 0.488,-0.646 0.732,-1.578 0.732,-2.799 v -5.23 h 2.093 z"
   id="path4725" />

	<polygon
   style="fill:#00245b"
   clip-path="url(#SVGID_6_)"
   points="343.05,219.025 343.05,255.643 340.957,255.643 340.957,221.065 334.681,221.065 334.681,255.643 332.588,255.643 332.588,219.025 "
   id="polygon4727" />

	<path
   style="fill:#00245b"
   inkscape:connector-curvature="0"
   clip-path="url(#SVGID_6_)"
   d="m 352.047,219.025 h 2.04 l 3.086,15.692 1.569,9.835 1.256,-9.835 2.72,-15.692 h 2.041 l -5.075,29.294 c -0.174,1.15 -0.375,2.18 -0.601,3.087 -0.227,0.905 -0.523,1.674 -0.89,2.302 -0.366,0.627 -0.836,1.107 -1.413,1.438 -0.575,0.331 -1.316,0.495 -2.222,0.495 v -1.986 c 0.557,0 1.011,-0.122 1.359,-0.366 0.349,-0.243 0.628,-0.603 0.838,-1.073 0.209,-0.47 0.383,-1.026 0.522,-1.673 0.139,-0.645 0.28,-1.387 0.419,-2.224 l 0.052,-0.471 z"
   id="path4729" />

	<path
   style="fill:#00245b"
   inkscape:connector-curvature="0"
   clip-path="url(#SVGID_6_)"
   d="m 373.755,219.024 h 9.416 v 2.04 h -7.323 v 11.195 h 3.139 c 1.847,0 3.182,0.542 4.002,1.622 0.818,1.081 1.228,2.634 1.228,4.656 v 10.88 c 0,2.022 -0.41,3.565 -1.228,4.63 -0.82,1.063 -2.155,1.595 -4.002,1.595 h -5.232 z m 2.094,15.224 v 19.406 h 3.139 c 1.116,0 1.917,-0.365 2.406,-1.098 0.488,-0.733 0.732,-1.779 0.732,-3.139 v -10.88 c 0,-1.36 -0.244,-2.415 -0.732,-3.165 -0.489,-0.749 -1.29,-1.125 -2.406,-1.125 h -3.139 z"
   id="path4731" />

	<path
   style="fill:#00245b"
   inkscape:connector-curvature="0"
   clip-path="url(#SVGID_6_)"
   d="m 392.379,253.655 c 1.115,0 1.899,-0.472 2.354,-1.413 0.453,-0.941 0.715,-2.248 0.785,-3.923 l 1.046,-29.294 h 8.893 v 36.616 h -2.092 v -34.577 h -4.812 l -0.942,27.255 c -0.07,2.338 -0.497,4.142 -1.281,5.414 -0.785,1.274 -2.102,1.908 -3.949,1.908 v -1.986 z"
   id="path4733" />

	<polygon
   style="fill:#00245b"
   clip-path="url(#SVGID_6_)"
   points="415.762,255.642 415.762,219.025 417.854,219.025 417.854,239.95 417.696,246.803 424.131,220.646 424.288,219.025 426.223,219.025 426.223,255.642 424.131,255.642 424.131,234.719 424.288,227.866 417.854,254.021 417.696,255.642 "
   id="polygon4735" />

	<path
   style="fill:#00245b"
   inkscape:connector-curvature="0"
   clip-path="url(#SVGID_6_)"
   d="m 446.676,248.843 c 0.174,1.534 0.409,2.72 0.706,3.558 0.296,0.836 0.897,1.254 1.805,1.254 v 1.988 c -0.803,0 -1.474,-0.148 -2.014,-0.445 -0.541,-0.295 -0.986,-0.731 -1.334,-1.306 -0.349,-0.576 -0.62,-1.29 -0.81,-2.146 -0.193,-0.853 -0.342,-1.82 -0.446,-2.902 l -0.627,-6.277 c -0.141,-1.361 -0.419,-2.407 -0.838,-3.139 -0.418,-0.732 -1.186,-1.1 -2.302,-1.1 h -1.569 v 17.315 h -2.093 v -36.617 h 2.093 v 17.314 h 1.569 c 1.012,0 1.709,-0.374 2.093,-1.125 0.384,-0.749 0.646,-1.805 0.784,-3.164 l 0.629,-6.226 c 0.104,-1.081 0.252,-2.048 0.443,-2.902 0.192,-0.854 0.462,-1.569 0.812,-2.146 0.348,-0.576 0.793,-1.011 1.334,-1.307 0.54,-0.296 1.211,-0.445 2.014,-0.445 v 1.988 c -0.907,0 -1.509,0.418 -1.805,1.255 -0.296,0.837 -0.532,2.022 -0.706,3.557 l -0.628,6.226 c -0.14,1.324 -0.393,2.433 -0.757,3.321 -0.367,0.89 -0.952,1.543 -1.754,1.961 0.906,0.386 1.561,1.021 1.963,1.909 0.399,0.892 0.67,1.997 0.81,3.323 z"
   id="path4737" />

	<polygon
   style="fill:#00245b"
   clip-path="url(#SVGID_6_)"
   points="457.766,255.642 457.766,219.025 459.858,219.025 459.858,239.95 459.701,246.803 466.135,220.646 466.292,219.025 468.228,219.025 468.228,255.642 466.135,255.642 466.135,234.719 466.292,227.866 459.858,254.021 459.701,255.642 "
   id="polygon4739" />

	<path
   style="fill:#00245b"
   inkscape:connector-curvature="0"
   clip-path="url(#SVGID_6_)"
   d="m 491.4,219.025 h 2.04 l 3.087,15.692 1.569,9.835 1.255,-9.835 2.721,-15.692 h 2.04 l -5.074,29.294 c -0.175,1.15 -0.375,2.18 -0.602,3.087 -0.228,0.905 -0.523,1.674 -0.89,2.302 -0.365,0.627 -0.837,1.107 -1.412,1.438 -0.575,0.331 -1.316,0.495 -2.223,0.495 v -1.986 c 0.557,0 1.01,-0.122 1.359,-0.366 0.349,-0.243 0.628,-0.603 0.837,-1.073 0.21,-0.47 0.384,-1.026 0.523,-1.673 0.139,-0.645 0.278,-1.387 0.419,-2.224 l 0.052,-0.471 z"
   id="path4741" />

	<path
   style="fill:#00245b"
   inkscape:connector-curvature="0"
   clip-path="url(#SVGID_6_)"
   d="m 519.805,235.242 c 0.488,-0.732 0.732,-1.778 0.732,-3.14 v -7.898 c 0,-1.221 -0.244,-2.146 -0.732,-2.773 -0.488,-0.627 -1.291,-0.94 -2.406,-0.94 -1.116,0 -1.919,0.313 -2.406,0.94 -0.489,0.628 -0.732,1.553 -0.732,2.773 v 5.283 h -2.093 v -5.283 c 0,-1.884 0.409,-3.304 1.229,-4.265 0.819,-0.959 2.153,-1.438 4.002,-1.438 1.848,0 3.182,0.479 4.002,1.438 0.819,0.961 1.229,2.381 1.229,4.265 v 7.898 c 0,2.721 -0.872,4.466 -2.615,5.231 1.743,0.767 2.615,2.511 2.615,5.23 v 7.848 c 0,1.884 -0.41,3.313 -1.229,4.29 -0.82,0.976 -2.154,1.465 -4.002,1.465 -1.849,0 -3.183,-0.489 -4.002,-1.465 -0.82,-0.977 -1.229,-2.406 -1.229,-4.29 v -5.231 h 2.093 v 5.231 c 0,1.221 0.243,2.153 0.732,2.799 0.487,0.645 1.29,0.968 2.406,0.968 1.115,0 1.918,-0.323 2.406,-0.968 0.488,-0.646 0.732,-1.578 0.732,-2.799 v -7.848 c 0,-1.359 -0.244,-2.405 -0.732,-3.138 -0.488,-0.733 -1.291,-1.099 -2.406,-1.099 h -2.615 v -1.988 h 2.615 c 1.115,0.002 1.917,-0.365 2.406,-1.096"
   id="path4743" />

	<path
   style="fill:#00245b"
   inkscape:connector-curvature="0"
   clip-path="url(#SVGID_6_)"
   d="m 532.831,219.024 h 9.415 v 2.04 h -7.323 v 11.195 h 3.139 c 1.849,0 3.183,0.542 4.002,1.622 0.819,1.081 1.229,2.634 1.229,4.656 v 10.88 c 0,2.022 -0.41,3.565 -1.229,4.63 -0.819,1.063 -2.153,1.595 -4.002,1.595 h -5.23 v -36.618 z m 2.092,15.224 v 19.406 h 3.139 c 1.116,0 1.918,-0.365 2.406,-1.098 0.488,-0.733 0.732,-1.779 0.732,-3.139 v -10.88 c 0,-1.36 -0.244,-2.415 -0.732,-3.165 -0.488,-0.749 -1.29,-1.125 -2.406,-1.125 h -3.139 z"
   id="path4745" />

	<polygon
   style="fill:#00245b"
   clip-path="url(#SVGID_6_)"
   points="555.377,221.065 555.377,236.339 560.869,236.339 560.869,238.328 555.377,238.328 555.377,253.603 561.915,253.603 561.915,255.643 553.284,255.643 553.284,219.025 561.915,219.025 561.915,221.065 "
   id="polygon4747" />

	<path
   style="fill:#00245b"
   inkscape:connector-curvature="0"
   clip-path="url(#SVGID_6_)"
   d="m 581.585,248.843 c 0.174,1.534 0.409,2.72 0.706,3.558 0.296,0.836 0.898,1.254 1.805,1.254 v 1.988 c -0.803,0 -1.474,-0.148 -2.015,-0.445 -0.54,-0.295 -0.985,-0.731 -1.333,-1.306 -0.35,-0.576 -0.62,-1.29 -0.811,-2.146 -0.192,-0.853 -0.341,-1.82 -0.445,-2.902 l -0.628,-6.277 c -0.14,-1.361 -0.419,-2.407 -0.837,-3.139 -0.419,-0.732 -1.186,-1.1 -2.302,-1.1 h -1.569 v 17.315 h -2.092 v -36.617 h 2.092 v 17.314 h 1.569 c 1.012,0 1.709,-0.374 2.093,-1.125 0.383,-0.749 0.645,-1.805 0.784,-3.164 l 0.629,-6.226 c 0.104,-1.081 0.252,-2.048 0.443,-2.902 0.191,-0.854 0.462,-1.569 0.812,-2.146 0.348,-0.576 0.793,-1.011 1.334,-1.307 0.54,-0.296 1.211,-0.445 2.014,-0.445 v 1.988 c -0.907,0 -1.509,0.418 -1.805,1.255 -0.297,0.837 -0.532,2.022 -0.706,3.557 l -0.628,6.226 c -0.14,1.324 -0.393,2.433 -0.758,3.321 -0.367,0.89 -0.951,1.543 -1.753,1.961 0.906,0.386 1.561,1.021 1.962,1.909 0.4,0.892 0.671,1.997 0.811,3.323 z"
   id="path4749" />

	<polygon
   style="fill:#00245b"
   clip-path="url(#SVGID_6_)"
   points="592.675,255.642 592.675,219.025 594.767,219.025 594.767,239.95 594.61,246.803 601.044,220.646 601.201,219.025 603.137,219.025 603.137,255.642 601.044,255.642 601.044,234.719 601.201,227.866 594.767,254.021 594.61,255.642 "
   id="polygon4751" />

	<path
   style="fill:#00245b"
   inkscape:connector-curvature="0"
   clip-path="url(#SVGID_6_)"
   d="m 623.799,250.412 c 0,1.884 -0.411,3.313 -1.229,4.29 -0.821,0.976 -2.155,1.465 -4.003,1.465 -1.849,0 -3.184,-0.489 -4.002,-1.465 -0.82,-0.977 -1.229,-2.406 -1.229,-4.29 v -26.208 c 0,-1.885 0.409,-3.305 1.229,-4.265 0.818,-0.959 2.153,-1.438 4.002,-1.438 1.848,0 3.182,0.479 4.003,1.438 0.817,0.96 1.229,2.38 1.229,4.265 v 5.282 h -2.093 v -5.282 c 0,-1.222 -0.245,-2.146 -0.732,-2.772 -0.489,-0.628 -1.291,-0.941 -2.406,-0.941 -1.117,0 -1.919,0.313 -2.407,0.941 -0.488,0.627 -0.731,1.551 -0.731,2.772 v 26.208 c 0,1.221 0.243,2.153 0.731,2.799 0.488,0.645 1.29,0.968 2.407,0.968 1.115,0 1.917,-0.323 2.406,-0.968 0.487,-0.646 0.732,-1.578 0.732,-2.799 v -5.23 h 2.093 z"
   id="path4753" />

	<polygon
   style="fill:#00245b"
   clip-path="url(#SVGID_6_)"
   points="636.405,255.642 636.405,221.065 631.697,221.065 631.697,219.025 643.206,219.025 643.206,221.065 638.498,221.065 638.498,255.642 "
   id="polygon4755" />

	<path
   style="fill:#00245b"
   inkscape:connector-curvature="0"
   clip-path="url(#SVGID_6_)"
   d="m 658.428,248.789 h -6.748 l -0.941,6.854 h -2.145 l 5.44,-36.669 h 2.092 l 5.441,36.669 h -2.146 z m -6.434,-1.986 h 6.173 l -1.518,-10.619 -1.569,-12.293 -1.569,12.293 z"
   id="path4757" />

	<polygon
   style="fill:#00245b"
   clip-path="url(#SVGID_6_)"
   points="670.774,238.328 670.774,255.642 668.683,255.642 668.683,219.024 670.774,219.024 670.774,236.34 677.052,236.34 677.052,219.024 679.145,219.024 679.145,255.642 677.052,255.642 677.052,238.328 "
   id="polygon4759" />

</g>
    </g>
  </g>
</svg>
