<?xml version="1.0" encoding="UTF-8" standalone="no"?>
<!-- Created with Inkscape (http://www.inkscape.org/) -->

<svg
   xmlns:dc="http://purl.org/dc/elements/1.1/"
   xmlns:cc="http://creativecommons.org/ns#"
   xmlns:rdf="http://www.w3.org/1999/02/22-rdf-syntax-ns#"
   xmlns:svg="http://www.w3.org/2000/svg"
   xmlns="http://www.w3.org/2000/svg"
   xmlns:xlink="http://www.w3.org/1999/xlink"
   xmlns:sodipodi="http://sodipodi.sourceforge.net/DTD/sodipodi-0.dtd"
   xmlns:inkscape="http://www.inkscape.org/namespaces/inkscape"
   width="710"
   height="240"
   viewBox="0 0 187.85415 63.499996"
   version="1.1"
   id="svg8"
   inkscape:version="0.92.4 (5da689c313, 2019-01-14)"
   sodipodi:docname="logo_uz.svg">
  <defs
     id="defs2">
    <rect
       height="289.33301"
       width="782.39801"
       id="SVGID_1_"
       x="0"
       y="0" />
    <rect
       height="123.448"
       width="123.448"
       transform="matrix(-0.3101,-0.9507,0.9507,-0.3101,61.2094,334.9347)"
       y="83.533997"
       x="90.407997"
       id="SVGID_3_" />
    <rect
       height="289.33301"
       width="782.39801"
       id="SVGID_5_"
       x="0"
       y="0" />
    <rect
       height="289.33301"
       width="782.39801"
       id="SVGID_1_-2"
       x="0"
       y="0" />
    <rect
       height="123.448"
       width="123.448"
       transform="matrix(-0.3101,-0.9507,0.9507,-0.3101,61.2094,334.9347)"
       y="83.533997"
       x="90.407997"
       id="SVGID_3_-9" />
    <rect
       height="289.33301"
       width="782.39801"
       id="SVGID_5_-3"
       x="0"
       y="0" />
    <rect
       height="289.33301"
       width="782.39801"
       id="SVGID_1_-6"
       x="0"
       y="0" />
    <rect
       height="123.448"
       width="123.448"
       transform="matrix(-0.3101,-0.9507,0.9507,-0.3101,61.2094,334.9347)"
       y="83.533997"
       x="90.407997"
       id="SVGID_3_-4" />
    <rect
       height="289.33301"
       width="782.39801"
       id="SVGID_5_-0"
       x="0"
       y="0" />
  </defs>
  <sodipodi:namedview
     id="base"
     pagecolor="#ffffff"
     bordercolor="#666666"
     borderopacity="1.0"
     inkscape:pageopacity="0.0"
     inkscape:pageshadow="2"
     inkscape:zoom="0.35"
     inkscape:cx="-35.714286"
     inkscape:cy="560"
     inkscape:document-units="mm"
     inkscape:current-layer="layer1"
     showgrid="false"
     units="px"
     inkscape:window-width="1920"
     inkscape:window-height="1017"
     inkscape:window-x="-8"
     inkscape:window-y="-8"
     inkscape:window-maximized="1" />
  <metadata
     id="metadata5">
    <rdf:RDF>
      <cc:Work
         rdf:about="">
        <dc:format>image/svg+xml</dc:format>
        <dc:type
           rdf:resource="http://purl.org/dc/dcmitype/StillImage" />
        <dc:title></dc:title>
      </cc:Work>
    </rdf:RDF>
  </metadata>
  <g
     inkscape:label="Layer 1"
     inkscape:groupmode="layer"
     id="layer1"
     transform="translate(0,-233.50003)">
    <g
       id="g5213"
       transform="matrix(0.26458333,0,0,0.26458333,-7.1672685,227.62843)">
      <path
         id="path4765"
         d="M 262.158,255.321 H 41.48 V 34.645 H 262.158 Z M 42.945,253.856 H 260.692 V 36.11 H 42.945 Z"
         inkscape:connector-curvature="0"
         style="fill:#00245b" />
      <path
         id="path4767"
         d="M 262.158,255.321 H 41.48 V 34.645 H 262.158 Z M 42.945,253.856 H 260.692 V 36.11 H 42.945 Z"
         stroke-miterlimit="10"
         inkscape:connector-curvature="0"
         style="fill:none;stroke:#00245b;stroke-width:1.71099997;stroke-miterlimit:10" />
      <polyline
         id="polyline4769"
         points="189.7,222.761 189.581,223.101   189.241,222.981 "
         stroke-miterlimit="10"
         style="fill:none;stroke:#00245b;stroke-width:0.56999999;stroke-miterlimit:10" />
      <line
         id="line4771"
         y2="182.77699"
         x2="74.622002"
         y1="222.743"
         x1="188.561"
         stroke-miterlimit="10"
         style="fill:none;stroke:#00245b;stroke-width:0.56999999;stroke-miterlimit:10;stroke-dasharray:0.721, 0.721" />
      <polyline
         id="polyline4773"
         points="74.281,182.658 73.941,182.539   74.06,182.199 "
         stroke-miterlimit="10"
         style="fill:none;stroke:#00245b;stroke-width:0.56999999;stroke-miterlimit:10" />
      <line
         id="line4775"
         y2="67.579002"
         x2="114.264"
         y1="181.519"
         x1="74.299004"
         stroke-miterlimit="10"
         style="fill:none;stroke:#00245b;stroke-width:0.56999999;stroke-miterlimit:10;stroke-dasharray:0.721, 0.721" />
      <polyline
         id="polyline4777"
         points="114.383,67.238 114.502,66.898   114.842,67.018 "
         stroke-miterlimit="10"
         style="fill:none;stroke:#00245b;stroke-width:0.56999999;stroke-miterlimit:10" />
      <line
         id="line4779"
         y2="107.222"
         x2="229.46201"
         y1="67.255997"
         x1="115.522"
         stroke-miterlimit="10"
         style="fill:none;stroke:#00245b;stroke-width:0.56999999;stroke-miterlimit:10;stroke-dasharray:0.721, 0.721" />
      <polyline
         id="polyline4781"
         points="229.803,107.341 230.143,107.46   230.024,107.8 "
         stroke-miterlimit="10"
         style="fill:none;stroke:#00245b;stroke-width:0.56999999;stroke-miterlimit:10" />
      <line
         id="line4783"
         y2="222.42"
         x2="189.819"
         y1="108.48"
         x1="229.785"
         stroke-miterlimit="10"
         style="fill:none;stroke:#00245b;stroke-width:0.56999999;stroke-miterlimit:10;stroke-dasharray:0.721, 0.721" />
      <rect
         id="rect4785"
         height="123.448"
         width="123.447"
         stroke-miterlimit="10"
         transform="matrix(0.9507,-0.3101,0.3101,0.9507,-37.5497,54.3092)"
         y="83.533997"
         x="90.318001"
         style="fill:none;stroke:#000000;stroke-width:0.99800003;stroke-miterlimit:10" />
      <g
         id="g4815">
	<defs
   id="defs4788">
		<rect
   height="289.33301"
   width="782.39801"
   id="rect5074"
   x="0"
   y="0" />

	</defs>

	<clipPath
   id="SVGID_2_">
		<use
   id="use4790"
   overflow="visible"
   xlink:href="#SVGID_1_-6"
   style="overflow:visible"
   x="0"
   y="0"
   width="100%"
   height="100%" />

	</clipPath>

	
		<circle
   id="circle4793"
   r="15.424"
   cy="145.019"
   cx="152.177"
   stroke-miterlimit="10"
   clip-path="url(#SVGID_2_)"
   style="fill:none;stroke:#00245b;stroke-width:0.56999999;stroke-miterlimit:10" />

	
		<rect
   id="rect4795"
   height="171.74001"
   width="172.73399"
   stroke-miterlimit="10"
   clip-path="url(#SVGID_2_)"
   transform="matrix(0.9507,-0.3101,0.3101,0.9507,-37.4863,54.2674)"
   y="59.169998"
   x="65.577003"
   style="fill:none;stroke:#00245b;stroke-width:1.14100003;stroke-miterlimit:10" />

	<polygon
   id="polygon4797"
   points="261.217,200.167 260.813,200.299 96.191,253.996 96.06,253.591 42.67,89.913 43.075,89.782 207.697,36.085 207.831,36.489 "
   stroke-miterlimit="10"
   clip-path="url(#SVGID_2_)"
   style="fill:none;stroke:#00245b;stroke-width:1.14100003;stroke-miterlimit:10" />

	<polygon
   id="polygon4799"
   points="82.259,211.587 82.04,210.91 43.692,197.378 61.187,147.304 60.898,146.414 43.064,197.458 42.972,197.724 "
   clip-path="url(#SVGID_2_)"
   style="fill:#00245b" />

	<polygon
   id="polygon4801"
   points="82.259,211.587 82.04,210.91 43.692,197.378 61.187,147.304 60.898,146.414 43.064,197.458 42.972,197.724 "
   stroke-miterlimit="10"
   clip-path="url(#SVGID_2_)"
   style="fill:none;stroke:#00245b;stroke-width:1.99699998;stroke-miterlimit:10" />

	<polygon
   id="polygon4803"
   points="85.734,75.867 86.411,75.646 99.983,36.971 150.563,54.721 151.448,54.432 99.904,36.344 99.637,36.25 "
   clip-path="url(#SVGID_2_)"
   style="fill:#00245b" />

	<polygon
   id="polygon4805"
   points="85.734,75.867 86.411,75.646 99.983,36.971 150.563,54.721 151.448,54.432 99.904,36.344 99.637,36.25 "
   stroke-miterlimit="10"
   clip-path="url(#SVGID_2_)"
   style="fill:none;stroke:#00245b;stroke-width:1.99699998;stroke-miterlimit:10" />

	<polygon
   id="polygon4807"
   points="218.285,214.416 217.609,214.636 204.1,253.669 152.485,235.715 151.596,236.001 204.179,254.297 204.446,254.391 "
   clip-path="url(#SVGID_2_)"
   style="fill:#00245b" />

	<polygon
   id="polygon4809"
   points="218.285,214.416 217.609,214.636 204.1,253.669 152.485,235.715 151.596,236.001 204.179,254.297 204.446,254.391 "
   stroke-miterlimit="10"
   clip-path="url(#SVGID_2_)"
   style="fill:none;stroke:#00245b;stroke-width:1.99699998;stroke-miterlimit:10" />

	<polygon
   id="polygon4811"
   points="261.111,92.916 222.008,79.048 222.227,79.724 260.39,93.262 242.818,143.337 243.105,144.226 261.018,93.182 "
   clip-path="url(#SVGID_2_)"
   style="fill:#00245b" />

	<polygon
   id="polygon4813"
   points="261.111,92.916 222.008,79.048 222.227,79.724 260.39,93.262 242.818,143.337 243.105,144.226 261.018,93.182 "
   stroke-miterlimit="10"
   clip-path="url(#SVGID_2_)"
   style="fill:none;stroke:#00245b;stroke-width:1.99699998;stroke-miterlimit:10" />

</g>
      <g
         id="g4859">
	<defs
   id="defs4818">
		
			<rect
   height="123.448"
   width="123.448"
   transform="matrix(-0.3101,-0.9507,0.9507,-0.3101,61.2094,334.9347)"
   y="83.533997"
   x="90.407997"
   id="rect5091" />

	</defs>

	<clipPath
   id="SVGID_4_">
		<use
   id="use4820"
   overflow="visible"
   xlink:href="#SVGID_3_-4"
   style="overflow:visible"
   x="0"
   y="0"
   width="100%"
   height="100%" />

	</clipPath>

	
		<line
   id="line4823"
   y2="255.91299"
   x2="152.177"
   y1="36.367001"
   x1="152.177"
   stroke-miterlimit="10"
   clip-path="url(#SVGID_4_)"
   style="fill:none;stroke:#00245b;stroke-width:0.285;stroke-miterlimit:10" />

	
		<line
   id="line4825"
   y2="145.12"
   x2="40.810001"
   y1="145.12"
   x1="262.38"
   stroke-miterlimit="10"
   clip-path="url(#SVGID_4_)"
   style="fill:none;stroke:#00245b;stroke-width:0.285;stroke-miterlimit:10" />

	
		<line
   id="line4827"
   y2="164.57401"
   x2="40.810001"
   y1="125.87"
   x1="262.38"
   stroke-miterlimit="10"
   clip-path="url(#SVGID_4_)"
   style="fill:none;stroke:#00245b;stroke-width:0.285;stroke-miterlimit:10" />

	
		<line
   id="line4829"
   y2="185.276"
   x2="40.810001"
   y1="105.383"
   x1="262.38"
   stroke-miterlimit="10"
   clip-path="url(#SVGID_4_)"
   style="fill:none;stroke:#00245b;stroke-width:0.285;stroke-miterlimit:10" />

	
		<line
   id="line4831"
   y2="208.81799"
   x2="40.811001"
   y1="82.028999"
   x1="262.48199"
   stroke-miterlimit="10"
   clip-path="url(#SVGID_4_)"
   style="fill:none;stroke:#00245b;stroke-width:0.285;stroke-miterlimit:10" />

	
		<line
   id="line4833"
   y2="237.69701"
   x2="40.810001"
   y1="53.583"
   x1="262.29401"
   stroke-miterlimit="10"
   clip-path="url(#SVGID_4_)"
   style="fill:none;stroke:#00245b;stroke-width:0.285;stroke-miterlimit:10" />

	
		<line
   id="line4835"
   y2="255.871"
   x2="58.372002"
   y1="36.449001"
   x1="244.222"
   stroke-miterlimit="10"
   clip-path="url(#SVGID_4_)"
   style="fill:none;stroke:#00245b;stroke-width:0.285;stroke-miterlimit:10" />

	
		<line
   id="line4837"
   y2="255.87"
   x2="87.634003"
   y1="36.367001"
   x1="215.55701"
   stroke-miterlimit="10"
   clip-path="url(#SVGID_4_)"
   style="fill:none;stroke:#00245b;stroke-width:0.285;stroke-miterlimit:10" />

	
		<line
   id="line4839"
   y2="255.87"
   x2="111.488"
   y1="36.367001"
   x1="192.133"
   stroke-miterlimit="10"
   clip-path="url(#SVGID_4_)"
   style="fill:none;stroke:#00245b;stroke-width:0.285;stroke-miterlimit:10" />

	
		<line
   id="line4841"
   y2="255.91299"
   x2="132.457"
   y1="36.367001"
   x1="171.533"
   stroke-miterlimit="10"
   clip-path="url(#SVGID_4_)"
   style="fill:none;stroke:#00245b;stroke-width:0.285;stroke-miterlimit:10" />

	
		<line
   id="line4843"
   y2="255.87"
   x2="171.89"
   y1="36.367001"
   x1="132.821"
   stroke-miterlimit="10"
   clip-path="url(#SVGID_4_)"
   style="fill:none;stroke:#00245b;stroke-width:0.285;stroke-miterlimit:10" />

	
		<line
   id="line4845"
   y2="255.87"
   x2="192.867"
   y1="36.367001"
   x1="112.222"
   stroke-miterlimit="10"
   clip-path="url(#SVGID_4_)"
   style="fill:none;stroke:#00245b;stroke-width:0.285;stroke-miterlimit:10" />

	
		<line
   id="line4847"
   y2="255.87"
   x2="216.72099"
   y1="36.367001"
   x1="88.797997"
   stroke-miterlimit="10"
   clip-path="url(#SVGID_4_)"
   style="fill:none;stroke:#00245b;stroke-width:0.285;stroke-miterlimit:10" />

	
		<line
   id="line4849"
   y2="255.87"
   x2="245.98199"
   y1="36.367001"
   x1="60.063999"
   stroke-miterlimit="10"
   clip-path="url(#SVGID_4_)"
   style="fill:none;stroke:#00245b;stroke-width:0.285;stroke-miterlimit:10" />

	
		<line
   id="line4851"
   y2="237.806"
   x2="263.57401"
   y1="53.360001"
   x1="41.891998"
   stroke-miterlimit="10"
   clip-path="url(#SVGID_4_)"
   style="fill:none;stroke:#00245b;stroke-width:0.285;stroke-miterlimit:10" />

	
		<line
   id="line4853"
   y2="208.15199"
   x2="262.38"
   y1="81.421997"
   x1="40.810001"
   stroke-miterlimit="10"
   clip-path="url(#SVGID_4_)"
   style="fill:none;stroke:#00245b;stroke-width:0.285;stroke-miterlimit:10" />

	
		<line
   id="line4855"
   y2="184.856"
   x2="262.38"
   y1="104.963"
   x1="40.810001"
   stroke-miterlimit="10"
   clip-path="url(#SVGID_4_)"
   style="fill:none;stroke:#00245b;stroke-width:0.285;stroke-miterlimit:10" />

	
		<line
   id="line4857"
   y2="164.37"
   x2="262.38"
   y1="125.666"
   x1="40.810001"
   stroke-miterlimit="10"
   clip-path="url(#SVGID_4_)"
   style="fill:none;stroke:#00245b;stroke-width:0.285;stroke-miterlimit:10" />

</g>
      <g
         id="g5051">
	<defs
   id="defs4862">
		<rect
   height="289.33301"
   width="782.39801"
   id="rect5115"
   x="0"
   y="0" />

	</defs>

	<clipPath
   id="SVGID_6_">
		<use
   id="use4864"
   overflow="visible"
   xlink:href="#SVGID_5_-0"
   style="overflow:visible"
   x="0"
   y="0"
   width="100%"
   height="100%" />

	</clipPath>

	
		<rect
   id="rect4867"
   height="123.447"
   width="123.447"
   stroke-miterlimit="10"
   clip-path="url(#SVGID_6_)"
   transform="matrix(-0.9507,0.3101,-0.3101,-0.9507,341.8081,236.1803)"
   y="83.535004"
   x="90.407997"
   style="fill:none;stroke:#00245b;stroke-miterlimit:10" />

	<path
   id="path4869"
   d="m 274.589,35.858 h 2.191 l 3.313,16.85 1.685,10.56 1.349,-10.56 2.921,-16.85 h 2.19 l -5.448,31.455 c -0.188,1.235 -0.404,2.34 -0.646,3.314 -0.245,0.973 -0.562,1.797 -0.956,2.471 -0.392,0.674 -0.898,1.189 -1.516,1.544 -0.619,0.357 -1.413,0.534 -2.387,0.534 v -2.135 c 0.599,0 1.086,-0.13 1.46,-0.393 0.374,-0.26 0.675,-0.645 0.898,-1.151 0.226,-0.506 0.413,-1.104 0.563,-1.797 0.148,-0.692 0.299,-1.489 0.449,-2.387 l 0.056,-0.506 z m 11.233,-6.74 c 0,1.46 -0.337,2.575 -1.011,3.341 -0.673,0.768 -1.74,1.152 -3.201,1.152 -1.498,0 -2.576,-0.384 -3.23,-1.152 -0.656,-0.766 -0.983,-1.881 -0.983,-3.341 h 1.966 c 0,1.76 0.749,2.64 2.247,2.64 1.497,0 2.247,-0.88 2.247,-2.64 z"
   clip-path="url(#SVGID_6_)"
   inkscape:connector-curvature="0"
   style="fill:#00245b" />

	<path
   id="path4871"
   d="m 303.607,51.512 c 0.529,-0.793 0.795,-1.926 0.795,-3.399 v -8.555 c 0,-1.322 -0.266,-2.322 -0.795,-3.003 -0.528,-0.68 -1.396,-1.02 -2.605,-1.02 -1.209,0 -2.078,0.34 -2.607,1.02 -0.529,0.681 -0.793,1.681 -0.793,3.003 v 5.722 h -2.266 v -5.722 c 0,-2.04 0.444,-3.578 1.332,-4.617 0.887,-1.039 2.332,-1.559 4.334,-1.559 2.001,0 3.446,0.52 4.334,1.559 0.887,1.039 1.332,2.577 1.332,4.617 v 8.555 c 0,2.946 -0.946,4.835 -2.833,5.665 1.887,0.831 2.833,2.719 2.833,5.665 v 8.499 c 0,2.04 -0.445,3.589 -1.332,4.646 -0.888,1.057 -2.333,1.586 -4.334,1.586 -2.002,0 -3.447,-0.529 -4.334,-1.586 -0.888,-1.057 -1.332,-2.606 -1.332,-4.646 v -5.665 h 2.266 v 5.665 c 0,1.321 0.264,2.333 0.793,3.031 0.529,0.699 1.398,1.048 2.607,1.048 1.209,0 2.077,-0.349 2.605,-1.048 0.529,-0.698 0.795,-1.71 0.795,-3.031 v -8.499 c 0,-1.473 -0.266,-2.606 -0.795,-3.399 -0.528,-0.793 -1.396,-1.189 -2.605,-1.189 h -2.832 v -2.154 h 2.832 c 1.209,0 2.078,-0.395 2.605,-1.189"
   clip-path="url(#SVGID_6_)"
   inkscape:connector-curvature="0"
   style="fill:#00245b" />

	<path
   id="path4873"
   d="m 316.129,33.95 h 10.198 v 2.21 h -7.931 v 12.123 h 3.398 c 2.001,0 3.447,0.587 4.334,1.757 0.887,1.171 1.331,2.853 1.331,5.042 v 11.784 c 0,2.191 -0.444,3.862 -1.331,5.014 -0.887,1.152 -2.333,1.727 -4.334,1.727 h -5.665 z m 2.267,16.486 v 21.019 h 3.398 c 1.208,0 2.077,-0.397 2.607,-1.19 0.528,-0.793 0.793,-1.926 0.793,-3.399 V 55.082 c 0,-1.473 -0.265,-2.615 -0.793,-3.428 -0.53,-0.811 -1.399,-1.218 -2.607,-1.218 z"
   clip-path="url(#SVGID_6_)"
   inkscape:connector-curvature="0"
   style="fill:#00245b" />

	<polygon
   id="polygon4875"
   points="338.96,52.701 344.909,52.701 344.909,54.855 338.96,54.855 338.96,71.397 346.042,71.397 346.042,73.607 336.694,73.607 336.694,33.95 346.042,33.95 346.042,36.159 338.96,36.159 "
   clip-path="url(#SVGID_6_)"
   style="fill:#00245b" />

	<path
   id="path4877"
   d="m 365.758,66.242 c 0.189,1.663 0.443,2.946 0.766,3.853 0.32,0.906 0.971,1.359 1.953,1.359 v 2.153 c -0.869,0 -1.595,-0.16 -2.181,-0.482 -0.585,-0.32 -1.067,-0.793 -1.444,-1.415 -0.378,-0.623 -0.672,-1.397 -0.878,-2.323 -0.209,-0.925 -0.369,-1.973 -0.483,-3.145 l -0.679,-6.798 c -0.152,-1.473 -0.453,-2.606 -0.907,-3.399 -0.454,-0.793 -1.285,-1.19 -2.493,-1.19 h -1.7 v 18.752 h -2.266 V 33.95 h 2.266 v 18.752 h 1.7 c 1.096,0 1.851,-0.406 2.267,-1.218 0.415,-0.812 0.698,-1.954 0.85,-3.427 l 0.679,-6.742 c 0.113,-1.171 0.274,-2.219 0.482,-3.144 0.208,-0.926 0.501,-1.7 0.879,-2.324 0.377,-0.622 0.858,-1.095 1.444,-1.415 0.585,-0.321 1.311,-0.482 2.182,-0.482 v 2.153 c -0.984,0 -1.635,0.453 -1.956,1.359 -0.321,0.907 -0.576,2.191 -0.764,3.853 l -0.681,6.742 c -0.15,1.435 -0.424,2.634 -0.82,3.597 -0.397,0.963 -1.029,1.671 -1.899,2.125 0.983,0.416 1.69,1.105 2.124,2.067 0.435,0.964 0.728,2.163 0.879,3.598 z"
   clip-path="url(#SVGID_6_)"
   inkscape:connector-curvature="0"
   style="fill:#00245b" />

	<polygon
   id="polygon4879"
   points="385.246,73.607 385.246,50.945 385.416,43.524 378.448,71.852 378.277,73.607 376.182,73.607 376.182,33.95 378.448,33.95 378.448,56.611 378.277,64.034 385.246,35.707 385.416,33.95 387.512,33.95 387.512,73.607 "
   clip-path="url(#SVGID_6_)"
   style="fill:#00245b" />

	<path
   id="path4881"
   d="m 408.304,67.942 c 0,2.04 -0.443,3.589 -1.331,4.646 -0.888,1.057 -2.333,1.586 -4.334,1.586 -2.002,0 -3.447,-0.529 -4.334,-1.586 -0.889,-1.057 -1.331,-2.606 -1.331,-4.646 V 39.558 c 0,-2.04 0.442,-3.577 1.331,-4.617 0.887,-1.039 2.332,-1.559 4.334,-1.559 2.001,0 3.446,0.52 4.334,1.559 0.888,1.04 1.331,2.577 1.331,4.617 v 5.722 h -2.267 v -5.722 c 0,-1.322 -0.265,-2.322 -0.793,-3.002 -0.528,-0.68 -1.397,-1.02 -2.605,-1.02 -1.209,0 -2.078,0.34 -2.606,1.02 -0.529,0.68 -0.793,1.68 -0.793,3.002 v 28.384 c 0,1.322 0.264,2.333 0.793,3.031 0.528,0.699 1.397,1.048 2.606,1.048 1.208,0 2.077,-0.349 2.605,-1.048 0.528,-0.698 0.793,-1.709 0.793,-3.031 v -5.665 h 2.267 z"
   clip-path="url(#SVGID_6_)"
   inkscape:connector-curvature="0"
   style="fill:#00245b" />

	<polygon
   id="polygon4883"
   points="420.37,36.159 415.272,36.159 415.272,33.95 427.736,33.95 427.736,36.159 422.638,36.159 422.638,73.607 420.37,73.607 "
   clip-path="url(#SVGID_6_)"
   style="fill:#00245b" />

	<path
   id="path4885"
   d="m 435.61,39.558 c 0,-2.04 0.443,-3.577 1.332,-4.617 0.886,-1.039 2.331,-1.559 4.333,-1.559 2.001,0 3.446,0.52 4.334,1.559 0.888,1.04 1.332,2.577 1.332,4.617 v 28.384 c 0,2.04 -0.444,3.589 -1.332,4.646 -0.888,1.057 -2.333,1.586 -4.334,1.586 -2.002,0 -3.447,-0.529 -4.333,-1.586 -0.889,-1.057 -1.332,-2.606 -1.332,-4.646 z m 2.267,28.384 c 0,1.322 0.264,2.333 0.793,3.031 0.527,0.699 1.396,1.048 2.605,1.048 1.208,0 2.077,-0.349 2.606,-1.048 0.528,-0.698 0.793,-1.709 0.793,-3.031 V 39.558 c 0,-1.322 -0.265,-2.322 -0.793,-3.002 -0.529,-0.68 -1.398,-1.02 -2.606,-1.02 -1.209,0 -2.078,0.34 -2.605,1.02 -0.529,0.68 -0.793,1.68 -0.793,3.002 z"
   clip-path="url(#SVGID_6_)"
   inkscape:connector-curvature="0"
   style="fill:#00245b" />

	<polygon
   id="polygon4887"
   points="458.668,73.607 456.401,73.607 456.401,33.95 458.668,33.95 458.668,52.702 465.466,52.702 465.466,33.95 467.732,33.95 467.732,73.607 465.466,73.607 465.466,54.855 458.668,54.855 "
   clip-path="url(#SVGID_6_)"
   style="fill:#00245b" />

	<path
   id="path4889"
   d="m 491.073,33.95 h 5.665 c 2.002,0 3.446,0.576 4.334,1.728 0.888,1.153 1.331,2.824 1.331,5.014 v 11.785 c 0,2.189 -0.443,3.871 -1.331,5.041 -0.888,1.171 -2.332,1.756 -4.334,1.756 h -3.399 v 14.333 h -2.266 z m 2.266,2.153 v 21.019 h 3.399 c 1.209,0 2.077,-0.406 2.605,-1.219 0.529,-0.811 0.793,-1.954 0.793,-3.426 V 40.692 c 0,-1.473 -0.264,-2.606 -0.793,-3.4 -0.528,-0.793 -1.396,-1.189 -2.605,-1.189 z"
   clip-path="url(#SVGID_6_)"
   inkscape:connector-curvature="0"
   style="fill:#00245b" />

	<polygon
   id="polygon4891"
   points="513.622,52.701 519.57,52.701 519.57,54.855 513.622,54.855 513.622,71.397 520.703,71.397 520.703,73.607 511.355,73.607 511.355,33.95 520.703,33.95 520.703,36.159 513.622,36.159 "
   clip-path="url(#SVGID_6_)"
   style="fill:#00245b" />

	<path
   id="path4893"
   d="m 540.646,67.942 c 0,2.04 -0.444,3.589 -1.332,4.646 -0.887,1.057 -2.332,1.586 -4.333,1.586 -2.003,0 -3.448,-0.529 -4.334,-1.586 -0.889,-1.057 -1.332,-2.606 -1.332,-4.646 V 39.558 c 0,-2.04 0.443,-3.577 1.332,-4.617 0.886,-1.039 2.331,-1.559 4.334,-1.559 2.001,0 3.446,0.52 4.333,1.559 0.888,1.04 1.332,2.577 1.332,4.617 v 5.722 h -2.267 v -5.722 c 0,-1.322 -0.265,-2.322 -0.793,-3.002 -0.529,-0.68 -1.397,-1.02 -2.605,-1.02 -1.21,0 -2.078,0.34 -2.606,1.02 -0.529,0.68 -0.793,1.68 -0.793,3.002 v 28.384 c 0,1.322 0.264,2.333 0.793,3.031 0.528,0.699 1.396,1.048 2.606,1.048 1.208,0 2.076,-0.349 2.605,-1.048 0.528,-0.698 0.793,-1.709 0.793,-3.031 v -5.665 h 2.267 z"
   clip-path="url(#SVGID_6_)"
   inkscape:connector-curvature="0"
   style="fill:#00245b" />

	<polygon
   id="polygon4895"
   points="560.53,73.607 558.265,73.607 558.265,36.159 551.466,36.159 551.466,73.607 549.2,73.607 549.2,33.95 560.53,33.95 "
   clip-path="url(#SVGID_6_)"
   style="fill:#00245b" />

	<path
   id="path4897"
   d="m 568.688,33.95 h 2.21 l 3.343,16.996 1.699,10.651 1.359,-10.651 2.946,-16.996 h 2.21 l -5.496,31.726 c -0.189,1.246 -0.406,2.36 -0.651,3.343 -0.245,0.982 -0.566,1.813 -0.963,2.493 -0.396,0.679 -0.906,1.199 -1.53,1.557 -0.622,0.36 -1.426,0.538 -2.406,0.538 v -2.153 c 0.603,0 1.094,-0.131 1.472,-0.396 0.378,-0.263 0.68,-0.651 0.907,-1.161 0.227,-0.51 0.415,-1.114 0.565,-1.813 0.151,-0.698 0.302,-1.502 0.454,-2.408 l 0.057,-0.509 z"
   clip-path="url(#SVGID_6_)"
   inkscape:connector-curvature="0"
   style="fill:#00245b" />

	<path
   id="path4899"
   d="m 590.613,33.95 h 10.197 v 2.21 h -7.932 v 12.123 h 3.399 c 2.002,0 3.446,0.587 4.334,1.757 0.888,1.171 1.331,2.853 1.331,5.042 v 11.784 c 0,2.191 -0.443,3.862 -1.331,5.014 -0.888,1.152 -2.332,1.727 -4.334,1.727 h -5.665 V 33.95 Z m 2.266,16.486 v 21.019 h 3.399 c 1.209,0 2.077,-0.397 2.605,-1.19 0.529,-0.793 0.793,-1.926 0.793,-3.399 V 55.082 c 0,-1.473 -0.264,-2.615 -0.793,-3.428 -0.528,-0.811 -1.396,-1.218 -2.605,-1.218 z"
   clip-path="url(#SVGID_6_)"
   inkscape:connector-curvature="0"
   style="fill:#00245b" />

	<path
   id="path4901"
   d="m 609.195,71.454 c 1.208,0 2.058,-0.51 2.55,-1.53 0.49,-1.019 0.773,-2.435 0.85,-4.248 l 1.133,-31.726 h 9.632 v 39.657 h -2.268 V 36.159 h -5.211 l -1.021,29.517 c -0.075,2.531 -0.538,4.485 -1.388,5.863 -0.851,1.38 -2.276,2.068 -4.277,2.068 z"
   clip-path="url(#SVGID_6_)"
   inkscape:connector-curvature="0"
   style="fill:#00245b" />

	<polygon
   id="polygon4903"
   points="641.997,73.607 641.997,50.945 642.167,43.524 635.199,71.852 635.028,73.607 632.933,73.607 632.933,33.95 635.199,33.95 635.199,56.611 635.028,64.034 641.997,35.707 642.167,33.95 644.264,33.95 644.264,73.607 "
   clip-path="url(#SVGID_6_)"
   style="fill:#00245b" />

	<path
   id="path4905"
   d="m 664.827,66.242 c 0.188,1.663 0.444,2.946 0.766,3.853 0.32,0.906 0.972,1.359 1.954,1.359 v 2.153 c -0.869,0 -1.596,-0.16 -2.182,-0.482 -0.585,-0.32 -1.067,-0.793 -1.444,-1.415 -0.378,-0.623 -0.672,-1.397 -0.878,-2.323 -0.209,-0.925 -0.369,-1.973 -0.482,-3.145 l -0.68,-6.798 c -0.15,-1.473 -0.452,-2.606 -0.906,-3.399 -0.453,-0.793 -1.284,-1.19 -2.492,-1.19 h -1.7 v 18.752 h -2.268 V 33.95 h 2.268 v 18.752 h 1.7 c 1.095,0 1.85,-0.406 2.266,-1.218 0.415,-0.812 0.698,-1.954 0.85,-3.427 l 0.68,-6.742 c 0.112,-1.171 0.273,-2.219 0.482,-3.144 0.207,-0.926 0.5,-1.7 0.878,-2.324 0.377,-0.622 0.858,-1.095 1.444,-1.415 0.586,-0.321 1.311,-0.482 2.182,-0.482 v 2.153 c -0.982,0 -1.634,0.453 -1.955,1.359 -0.321,0.907 -0.576,2.191 -0.765,3.853 l -0.681,6.742 c -0.15,1.435 -0.424,2.634 -0.82,3.597 -0.396,0.963 -1.029,1.671 -1.898,2.125 0.982,0.416 1.689,1.105 2.123,2.067 0.436,0.964 0.729,2.163 0.88,3.598 z"
   clip-path="url(#SVGID_6_)"
   inkscape:connector-curvature="0"
   style="fill:#00245b" />

	<path
   id="path4907"
   d="m 684.713,66.186 h -7.308 l -1.021,7.422 h -2.322 l 5.892,-39.714 h 2.267 l 5.892,39.714 h -2.323 z m -6.968,-2.153 h 6.685 l -1.644,-11.501 -1.698,-13.314 -1.7,13.314 z"
   clip-path="url(#SVGID_6_)"
   inkscape:connector-curvature="0"
   style="fill:#00245b" />

	<path
   id="path4909"
   d="m 707.715,67.942 c 0,2.04 -0.444,3.589 -1.332,4.646 -0.887,1.057 -2.333,1.586 -4.334,1.586 -2.002,0 -3.447,-0.529 -4.333,-1.586 -0.889,-1.057 -1.332,-2.606 -1.332,-4.646 V 39.558 c 0,-2.04 0.443,-3.577 1.332,-4.617 0.886,-1.039 2.331,-1.559 4.333,-1.559 2.001,0 3.447,0.52 4.334,1.559 0.888,1.04 1.332,2.577 1.332,4.617 v 5.722 h -2.268 v -5.722 c 0,-1.322 -0.264,-2.322 -0.793,-3.002 -0.528,-0.68 -1.397,-1.02 -2.605,-1.02 -1.209,0 -2.078,0.34 -2.605,1.02 -0.529,0.68 -0.793,1.68 -0.793,3.002 v 28.384 c 0,1.322 0.264,2.333 0.793,3.031 0.527,0.699 1.396,1.048 2.605,1.048 1.208,0 2.077,-0.349 2.605,-1.048 0.529,-0.698 0.793,-1.709 0.793,-3.031 v -5.665 h 2.268 z"
   clip-path="url(#SVGID_6_)"
   inkscape:connector-curvature="0"
   style="fill:#00245b" />

	<polygon
   id="polygon4911"
   points="725.334,73.607 725.334,50.945 725.504,43.524 718.535,71.852 718.366,73.607 716.27,73.607 716.27,33.95 718.535,33.95 718.535,56.611 718.366,64.034 725.334,35.707 725.504,33.95 727.6,33.95 727.6,73.607 "
   clip-path="url(#SVGID_6_)"
   style="fill:#00245b" />

	<polygon
   id="polygon4913"
   points="288.459,88.011 290.565,88.011 290.565,124.858 288.459,124.858 288.459,101.118 288.722,94.223 284.089,117.962 281.984,117.962 277.353,94.223 277.615,101.118 277.615,124.858 275.51,124.858 275.51,88.011 277.615,88.011 281.458,104.961 283.036,115.172 284.616,104.961 "
   clip-path="url(#SVGID_6_)"
   style="fill:#00245b" />

	<path
   id="path4915"
   d="m 304.311,117.772 h -6.848 l -0.956,6.955 h -2.177 l 5.522,-37.218 h 2.123 l 5.523,37.218 h -2.178 z m -6.531,-2.017 h 6.266 l -1.541,-10.778 -1.592,-12.477 -1.593,12.477 z"
   clip-path="url(#SVGID_6_)"
   inkscape:connector-curvature="0"
   style="fill:#00245b" />

	<path
   id="path4917"
   d="m 323.014,124.727 h -10.618 v 4.301 h -1.858 v -6.372 c 0.459,0 0.858,-0.291 1.194,-0.876 0.335,-0.583 0.611,-1.335 0.823,-2.256 0.213,-0.919 0.38,-1.945 0.504,-3.079 0.125,-1.132 0.203,-2.23 0.239,-3.292 l 0.956,-25.59 h 9.025 v 35.093 h 1.594 v 6.372 h -1.859 z m -7.593,-11.574 c -0.035,0.886 -0.097,1.798 -0.186,2.734 -0.087,0.939 -0.211,1.832 -0.371,2.682 -0.159,0.849 -0.38,1.628 -0.663,2.335 -0.284,0.709 -0.637,1.293 -1.062,1.752 h 8.017 V 89.633 h -4.884 z"
   clip-path="url(#SVGID_6_)"
   inkscape:connector-curvature="0"
   style="fill:#00245b" />

	<path
   id="path4919"
   d="m 338.054,117.772 h -6.849 l -0.955,6.955 h -2.178 l 5.522,-37.218 h 2.123 l 5.523,37.218 h -2.177 z m -6.531,-2.017 h 6.266 l -1.539,-10.778 -1.594,-12.477 -1.592,12.477 z"
   clip-path="url(#SVGID_6_)"
   inkscape:connector-curvature="0"
   style="fill:#00245b" />

	<polygon
   id="polygon4921"
   points="346.033,124.727 343.909,124.727 343.909,87.563 346.033,87.563 346.033,105.136 352.404,105.136 352.404,87.563 354.527,87.563 354.527,124.727 352.404,124.727 352.404,107.154 346.033,107.154 "
   clip-path="url(#SVGID_6_)"
   style="fill:#00245b" />

	<polygon
   id="polygon4923"
   points="368.931,124.727 368.931,103.49 369.089,96.536 362.561,123.082 362.4,124.727 360.437,124.727 360.437,87.563 362.561,87.563 362.561,108.8 362.4,115.756 368.931,89.209 369.089,87.563 371.055,87.563 371.055,124.727 "
   clip-path="url(#SVGID_6_)"
   style="fill:#00245b" />

	<path
   id="path4925"
   d="m 382.166,87.563 h 5.043 v 37.164 h -2.124 v -15.502 h -2.441 l -4.619,15.502 h -2.178 l 4.62,-15.662 c -2.408,-0.601 -3.611,-2.671 -3.611,-6.211 v -8.973 c 0,-2.052 0.416,-3.619 1.248,-4.699 0.831,-1.079 2.185,-1.619 4.062,-1.619 m -3.187,6.318 v 8.973 c 0,1.38 0.247,2.451 0.743,3.211 0.495,0.762 1.309,1.142 2.443,1.142 h 2.919 V 89.581 h -2.919 c -1.134,0 -1.948,0.371 -2.443,1.114 -0.495,0.744 -0.743,1.806 -0.743,3.186"
   clip-path="url(#SVGID_6_)"
   inkscape:connector-curvature="0"
   style="fill:#00245b" />

	<polygon
   id="polygon4927"
   points="396.409,89.633 391.632,89.633 391.632,87.563 403.312,87.563 403.312,89.633 398.534,89.633 398.534,124.727 396.409,124.727 "
   clip-path="url(#SVGID_6_)"
   style="fill:#00245b" />

	<path
   id="path4929"
   d="m 425.244,87.927 c 1.68,0 2.887,0.446 3.621,1.338 0.734,0.893 1.103,2.178 1.103,3.859 v 8.923 c 0,2.135 -0.7,3.552 -2.101,4.251 1.749,0.701 2.625,2.275 2.625,4.725 v 7.874 c 0,1.889 -0.411,3.324 -1.232,4.304 -0.822,0.98 -2.162,1.469 -4.016,1.469 h -5.249 V 87.927 Z m -3.149,1.995 v 15.379 h 3.149 c 1.748,0 2.623,-1.084 2.623,-3.254 v -8.923 c 0,-2.134 -0.875,-3.202 -2.623,-3.202 z m 0,17.374 v 15.379 h 3.149 c 1.119,0 1.923,-0.322 2.413,-0.97 0.49,-0.648 0.736,-1.583 0.736,-2.808 v -7.874 c 0,-1.225 -0.246,-2.153 -0.736,-2.782 -0.49,-0.63 -1.294,-0.945 -2.413,-0.945 z"
   clip-path="url(#SVGID_6_)"
   inkscape:connector-curvature="0"
   style="fill:#00245b" />

	<path
   id="path4931"
   d="m 444.942,117.794 h -6.771 l -0.945,6.876 h -2.151 l 5.459,-36.795 h 2.099 l 5.459,36.795 h -2.152 z m -6.456,-1.994 h 6.194 l -1.522,-10.656 -1.574,-12.336 -1.576,12.336 z"
   clip-path="url(#SVGID_6_)"
   inkscape:connector-curvature="0"
   style="fill:#00245b" />

	<path
   id="path4933"
   d="m 459.55,104.199 c 0.49,-0.735 0.736,-1.784 0.736,-3.149 v -7.926 c 0,-1.225 -0.246,-2.152 -0.736,-2.782 -0.49,-0.63 -1.294,-0.945 -2.414,-0.945 -1.121,0 -1.925,0.315 -2.415,0.945 -0.49,0.63 -0.734,1.557 -0.734,2.782 v 5.301 h -2.1 v -5.301 c 0,-1.891 0.411,-3.315 1.233,-4.279 0.822,-0.962 2.159,-1.443 4.016,-1.443 1.854,0 3.192,0.481 4.017,1.443 0.82,0.964 1.233,2.388 1.233,4.279 v 7.926 c 0,2.73 -0.876,4.48 -2.625,5.249 1.749,0.77 2.625,2.519 2.625,5.249 v 7.873 c 0,1.891 -0.413,3.326 -1.233,4.305 -0.824,0.979 -2.162,1.47 -4.017,1.47 -1.856,0 -3.193,-0.491 -4.016,-1.47 -0.823,-0.979 -1.233,-2.414 -1.233,-4.305 v -5.248 h 2.1 v 5.248 c 0,1.225 0.244,2.162 0.734,2.809 0.49,0.647 1.294,0.971 2.415,0.971 1.12,0 1.924,-0.324 2.414,-0.971 0.49,-0.647 0.736,-1.584 0.736,-2.809 v -7.873 c 0,-1.365 -0.246,-2.415 -0.736,-3.15 -0.49,-0.735 -1.294,-1.102 -2.414,-1.102 h -2.624 v -1.995 h 2.624 c 1.12,0 1.924,-0.367 2.414,-1.102"
   clip-path="url(#SVGID_6_)"
   inkscape:connector-curvature="0"
   style="fill:#00245b" />

	<polygon
   id="polygon4935"
   points="477.817,124.72 477.817,103.449 477.977,96.484 471.437,123.073 471.276,124.72 469.31,124.72 469.31,87.497 471.437,87.497 471.437,108.768 471.276,115.734 477.817,89.146 477.977,87.497 479.944,87.497 479.944,124.72 "
   clip-path="url(#SVGID_6_)"
   style="fill:#00245b" />

	<path
   id="path4937"
   d="m 485.878,87.497 h 5.317 c 1.878,0 3.234,0.541 4.067,1.622 0.832,1.082 1.25,2.65 1.25,4.706 v 11.061 c 0,2.056 -0.418,3.634 -1.25,4.732 -0.833,1.099 -2.189,1.649 -4.067,1.649 h -3.19 v 13.453 h -2.127 z m 2.127,2.021 v 19.728 h 3.19 c 1.134,0 1.948,-0.381 2.446,-1.144 0.495,-0.761 0.744,-1.834 0.744,-3.216 V 93.825 c 0,-1.383 -0.249,-2.446 -0.744,-3.19 -0.498,-0.745 -1.312,-1.117 -2.446,-1.117 z"
   clip-path="url(#SVGID_6_)"
   inkscape:connector-curvature="0"
   style="fill:#00245b" />

	<path
   id="path4939"
   d="m 498.906,122.699 c 1.134,0 1.931,-0.478 2.393,-1.436 0.46,-0.956 0.726,-2.286 0.797,-3.987 l 1.064,-29.779 h 9.04 v 37.223 h -2.127 V 89.571 h -4.894 l -0.956,27.705 c -0.071,2.376 -0.506,4.209 -1.303,5.503 -0.799,1.295 -2.137,1.941 -4.015,1.941 v -2.021 z"
   clip-path="url(#SVGID_6_)"
   inkscape:connector-curvature="0"
   style="fill:#00245b" />

	<polygon
   id="polygon4941"
   points="526.642,124.72 526.642,103.449 526.802,96.484 520.261,123.073 520.102,124.72 518.134,124.72 518.134,87.497 520.261,87.497 520.261,108.768 520.102,115.734 526.642,89.146 526.802,87.497 528.769,87.497 528.769,124.72 "
   clip-path="url(#SVGID_6_)"
   style="fill:#00245b" />

	<polygon
   id="polygon4943"
   points="536.83,124.72 534.703,124.72 534.703,87.498 543.211,87.498 543.211,89.571 536.83,89.571 "
   clip-path="url(#SVGID_6_)"
   style="fill:#00245b" />

	<polygon
   id="polygon4945"
   points="556.164,124.72 556.164,103.449 556.324,96.484 549.783,123.073 549.624,124.72 547.656,124.72 547.656,87.497 549.783,87.497 549.783,108.768 549.624,115.734 556.164,89.146 556.324,87.497 558.291,87.497 558.291,124.72 "
   clip-path="url(#SVGID_6_)"
   style="fill:#00245b" />

	<polygon
   id="polygon4947"
   points="577.307,105.789 571.882,87.497 574.062,87.497 577.2,98.132 578.37,103.185 579.539,98.132 582.729,87.497 584.911,87.497 579.486,105.789 585.123,124.72 582.943,124.72 579.752,114.085 578.37,108.396 576.987,114.085 573.85,124.72 571.67,124.72 "
   clip-path="url(#SVGID_6_)"
   style="fill:#00245b" />

	<path
   id="path4949"
   d="m 588.398,87.497 h 2.074 l 3.137,15.952 1.595,9.998 1.277,-9.998 2.765,-15.952 h 2.074 l -5.158,29.779 c -0.178,1.169 -0.382,2.216 -0.611,3.137 -0.231,0.922 -0.532,1.702 -0.904,2.34 -0.372,0.638 -0.852,1.125 -1.437,1.462 -0.585,0.338 -1.338,0.505 -2.26,0.505 v -2.021 c 0.567,0 1.028,-0.123 1.383,-0.372 0.354,-0.247 0.639,-0.611 0.851,-1.089 0.213,-0.48 0.391,-1.046 0.531,-1.702 0.142,-0.656 0.284,-1.41 0.426,-2.26 l 0.054,-0.478 z"
   clip-path="url(#SVGID_6_)"
   inkscape:connector-curvature="0"
   style="fill:#00245b" />

	<path
   id="path4951"
   d="m 612.73,103.982 c 0.496,-0.745 0.745,-1.808 0.745,-3.191 v -8.029 c 0,-1.241 -0.249,-2.18 -0.745,-2.819 -0.497,-0.638 -1.312,-0.957 -2.446,-0.957 -1.134,0 -1.95,0.319 -2.446,0.957 -0.496,0.639 -0.744,1.578 -0.744,2.819 v 5.37 h -2.127 v -5.37 c 0,-1.915 0.417,-3.359 1.25,-4.334 0.833,-0.975 2.188,-1.463 4.067,-1.463 1.879,0 3.235,0.488 4.069,1.463 0.832,0.975 1.249,2.419 1.249,4.334 v 8.029 c 0,2.766 -0.887,4.539 -2.659,5.318 1.772,0.78 2.659,2.552 2.659,5.317 v 7.977 c 0,1.915 -0.417,3.369 -1.249,4.361 -0.834,0.992 -2.19,1.489 -4.069,1.489 -1.879,0 -3.234,-0.497 -4.067,-1.489 -0.833,-0.992 -1.25,-2.446 -1.25,-4.361 v -5.317 h 2.127 v 5.317 c 0,1.241 0.248,2.19 0.744,2.845 0.496,0.656 1.312,0.984 2.446,0.984 1.134,0 1.949,-0.328 2.446,-0.984 0.496,-0.655 0.745,-1.604 0.745,-2.845 v -7.977 c 0,-1.382 -0.249,-2.446 -0.745,-3.19 -0.497,-0.745 -1.312,-1.117 -2.446,-1.117 h -2.657 v -2.021 h 2.657 c 1.135,0 1.949,-0.372 2.446,-1.116"
   clip-path="url(#SVGID_6_)"
   inkscape:connector-curvature="0"
   style="fill:#00245b" />

	<path
   id="path4953"
   d="m 620.101,87.497 h 2.074 l 3.138,15.952 1.596,9.998 1.275,-9.998 2.766,-15.952 h 2.073 l -5.158,29.779 c -0.178,1.169 -0.381,2.216 -0.611,3.137 -0.23,0.922 -0.531,1.702 -0.903,2.34 -0.372,0.638 -0.852,1.125 -1.438,1.462 -0.583,0.338 -1.338,0.505 -2.258,0.505 v -2.021 c 0.565,0 1.027,-0.123 1.381,-0.372 0.355,-0.247 0.639,-0.611 0.852,-1.089 0.214,-0.48 0.39,-1.046 0.531,-1.702 0.142,-0.656 0.283,-1.41 0.427,-2.26 l 0.053,-0.478 z"
   clip-path="url(#SVGID_6_)"
   inkscape:connector-curvature="0"
   style="fill:#00245b" />

	<path
   id="path4955"
   d="m 637.629,87.497 h 5.317 c 1.878,0 3.234,0.541 4.067,1.622 0.832,1.082 1.25,2.65 1.25,4.706 v 11.061 c 0,2.056 -0.418,3.634 -1.25,4.732 -0.833,1.099 -2.189,1.649 -4.067,1.649 h -3.19 v 13.453 h -2.127 z m 2.127,2.021 v 19.728 h 3.19 c 1.134,0 1.948,-0.381 2.446,-1.144 0.495,-0.761 0.744,-1.834 0.744,-3.216 V 93.825 c 0,-1.383 -0.249,-2.446 -0.744,-3.19 -0.498,-0.745 -1.312,-1.117 -2.446,-1.117 z"
   clip-path="url(#SVGID_6_)"
   inkscape:connector-curvature="0"
   style="fill:#00245b" />

	<polygon
   id="polygon4957"
   points="662.121,124.72 662.121,103.449 662.28,96.484 655.74,123.073 655.58,124.72 653.613,124.72 653.613,87.497 655.74,87.497 655.74,108.768 655.58,115.734 662.121,89.146 662.28,87.497 664.248,87.497 664.248,124.72 "
   clip-path="url(#SVGID_6_)"
   style="fill:#00245b" />

	<path
   id="path4959"
   d="m 680.923,124.72 h -10.636 v 4.308 h -1.861 v -6.381 c 0.461,0 0.86,-0.293 1.197,-0.878 0.337,-0.584 0.611,-1.337 0.824,-2.26 0.213,-0.921 0.381,-1.948 0.506,-3.084 0.123,-1.134 0.203,-2.234 0.239,-3.297 l 0.957,-25.631 h 9.039 v 35.15 h 1.596 v 6.381 h -1.861 z m -7.604,-11.592 c -0.036,0.887 -0.099,1.8 -0.188,2.738 -0.088,0.94 -0.212,1.835 -0.372,2.686 -0.159,0.851 -0.381,1.631 -0.664,2.34 -0.284,0.709 -0.638,1.295 -1.063,1.755 h 8.029 V 89.571 h -4.893 z"
   clip-path="url(#SVGID_6_)"
   inkscape:connector-curvature="0"
   style="fill:#00245b" />

	<path
   id="path4961"
   d="m 696.004,117.754 h -6.859 l -0.957,6.966 h -2.181 l 5.53,-37.277 h 2.127 l 5.531,37.277 h -2.181 z m -6.541,-2.02 h 6.275 l -1.542,-10.795 -1.596,-12.497 -1.595,12.497 z"
   clip-path="url(#SVGID_6_)"
   inkscape:connector-curvature="0"
   style="fill:#00245b" />

	<polygon
   id="polygon4963"
   points="706.139,124.72 704.012,124.72 704.012,87.498 712.52,87.498 712.52,89.571 706.139,89.571 "
   clip-path="url(#SVGID_6_)"
   style="fill:#00245b" />

	<polygon
   id="polygon4965"
   points="725.473,124.72 725.473,103.449 725.633,96.484 719.092,123.073 718.933,124.72 716.965,124.72 716.965,87.497 719.092,87.497 719.092,108.768 718.933,115.734 725.473,89.146 725.633,87.497 727.6,87.497 727.6,124.72 "
   clip-path="url(#SVGID_6_)"
   style="fill:#00245b" />

	<polygon
   id="polygon4967"
   points="296.008,139.636 299.354,139.636 299.354,198.189 296.008,198.189 296.008,160.465 296.426,149.507 289.065,187.231 285.719,187.231 278.359,149.507 278.778,160.465 278.778,198.189 275.433,198.189 275.433,139.636 278.778,139.636 284.883,166.57 287.393,182.798 289.902,166.57 "
   stroke-miterlimit="10"
   clip-path="url(#SVGID_6_)"
   style="fill:none;stroke:#00245b;stroke-miterlimit:10" />

	<path
   id="path4969"
   d="M 322.174,187.061 H 311.29 l -1.518,11.052 h -3.459 l 8.773,-59.141 h 3.376 l 8.773,59.141 h -3.459 z m -10.378,-3.207 h 9.956 l -2.446,-17.127 -2.531,-19.826 -2.533,19.826 z"
   stroke-miterlimit="10"
   clip-path="url(#SVGID_6_)"
   inkscape:connector-curvature="0"
   style="fill:none;stroke:#00245b;stroke-miterlimit:10" />

	<path
   id="path4971"
   d="m 351.998,198.113 h -16.874 v 6.834 h -2.953 v -10.124 c 0.731,0 1.364,-0.465 1.899,-1.394 0.533,-0.928 0.969,-2.122 1.307,-3.585 0.338,-1.462 0.604,-3.093 0.802,-4.894 0.196,-1.799 0.322,-3.543 0.38,-5.23 l 1.519,-40.666 h 14.341 v 55.769 h 2.532 v 10.124 h -2.953 z m -12.065,-18.392 c -0.057,1.407 -0.155,2.855 -0.295,4.345 -0.142,1.491 -0.337,2.91 -0.59,4.262 -0.253,1.35 -0.606,2.588 -1.055,3.712 -0.452,1.126 -1.013,2.053 -1.687,2.784 h 12.739 v -52.478 h -7.762 z"
   stroke-miterlimit="10"
   clip-path="url(#SVGID_6_)"
   inkscape:connector-curvature="0"
   style="fill:none;stroke:#00245b;stroke-miterlimit:10" />

	<path
   id="path4973"
   d="m 376.965,187.061 h -10.884 l -1.517,11.052 h -3.46 l 8.774,-59.141 h 3.374 l 8.774,59.141 h -3.459 z m -10.378,-3.207 h 9.956 l -2.447,-17.127 -2.53,-19.826 -2.532,19.826 z"
   stroke-miterlimit="10"
   clip-path="url(#SVGID_6_)"
   inkscape:connector-curvature="0"
   style="fill:none;stroke:#00245b;stroke-miterlimit:10" />

	<polygon
   id="polygon4975"
   points="390.044,198.112 386.67,198.112 386.67,139.055 390.044,139.055 390.044,166.98 400.168,166.98 400.168,139.055 403.542,139.055 403.542,198.112 400.168,198.112 400.168,170.187 390.044,170.187 "
   stroke-miterlimit="10"
   clip-path="url(#SVGID_6_)"
   style="fill:none;stroke:#00245b;stroke-miterlimit:10" />

	<polygon
   id="polygon4977"
   points="423.405,198.112 423.405,164.366 423.658,153.313 413.282,195.497 413.029,198.112 409.907,198.112 409.907,139.054 413.282,139.054 413.282,172.803 413.029,183.854 423.405,141.67 423.658,139.054 426.78,139.054 426.78,198.112 "
   stroke-miterlimit="10"
   clip-path="url(#SVGID_6_)"
   style="fill:none;stroke:#00245b;stroke-miterlimit:10" />

	<path
   id="path4979"
   d="m 441.451,139.055 h 8.016 v 59.059 h -3.375 v -24.636 h -3.882 l -7.34,24.636 h -3.46 l 7.341,-24.889 c -3.824,-0.956 -5.735,-4.246 -5.735,-9.872 v -14.258 c 0,-3.261 0.66,-5.75 1.98,-7.466 1.321,-1.715 3.473,-2.574 6.455,-2.574 z m -5.061,10.04 v 14.258 c 0,2.195 0.393,3.896 1.182,5.105 0.786,1.21 2.079,1.813 3.88,1.813 h 4.641 V 142.26 h -4.641 c -1.801,0 -3.094,0.591 -3.88,1.772 -0.79,1.183 -1.182,2.87 -1.182,5.063 z"
   stroke-miterlimit="10"
   clip-path="url(#SVGID_6_)"
   inkscape:connector-curvature="0"
   style="fill:none;stroke:#00245b;stroke-miterlimit:10" />

	<polygon
   id="polygon4981"
   points="460.042,142.346 452.449,142.346 452.449,139.055 471.01,139.055 471.01,142.346 463.416,142.346 463.416,198.113 460.042,198.113 "
   stroke-miterlimit="10"
   clip-path="url(#SVGID_6_)"
   style="fill:none;stroke:#00245b;stroke-miterlimit:10" />

	<path
   id="path4983"
   d="m 492.337,139.055 c 2.7,0 4.641,0.717 5.821,2.152 1.182,1.434 1.772,3.502 1.772,6.201 v 14.344 c 0,3.431 -1.126,5.709 -3.375,6.833 2.812,1.126 4.219,3.656 4.219,7.593 v 12.656 c 0,3.037 -0.661,5.344 -1.983,6.918 -1.321,1.575 -3.473,2.361 -6.454,2.361 H 483.9 v -59.058 z m -5.062,3.206 v 24.72 h 5.062 c 2.812,0 4.219,-1.742 4.219,-5.229 v -14.344 c 0,-3.43 -1.407,-5.146 -4.219,-5.146 h -5.062 z m 0,27.926 v 24.72 h 5.062 c 1.8,0 3.093,-0.519 3.882,-1.561 0.785,-1.04 1.181,-2.544 1.181,-4.513 v -12.656 c 0,-1.968 -0.396,-3.459 -1.181,-4.471 -0.789,-1.014 -2.082,-1.52 -3.882,-1.52 h -5.062 z"
   stroke-miterlimit="10"
   clip-path="url(#SVGID_6_)"
   inkscape:connector-curvature="0"
   style="fill:none;stroke:#00245b;stroke-miterlimit:10" />

	<path
   id="path4985"
   d="m 521.951,187.061 h -10.884 l -1.52,11.052 h -3.459 l 8.774,-59.141 h 3.375 l 8.773,59.141 h -3.459 z m -10.378,-3.207 h 9.955 l -2.446,-17.127 -2.53,-19.826 -2.532,19.826 z"
   stroke-miterlimit="10"
   clip-path="url(#SVGID_6_)"
   inkscape:connector-curvature="0"
   style="fill:none;stroke:#00245b;stroke-miterlimit:10" />

	<path
   id="path4987"
   d="m 562.868,189.677 c 0,3.037 -0.662,5.344 -1.982,6.918 -1.323,1.573 -3.475,2.361 -6.454,2.361 -2.982,0 -5.134,-0.788 -6.454,-2.361 -1.322,-1.574 -1.982,-3.881 -1.982,-6.918 v -42.27 c 0,-3.037 0.66,-5.329 1.982,-6.876 1.32,-1.546 3.472,-2.32 6.454,-2.32 2.979,0 5.131,0.774 6.454,2.32 1.32,1.547 1.982,3.839 1.982,6.876 v 8.521 h -3.375 v -8.521 c 0,-1.968 -0.394,-3.459 -1.182,-4.471 -0.787,-1.013 -2.08,-1.519 -3.88,-1.519 -1.801,0 -3.094,0.506 -3.881,1.519 -0.789,1.012 -1.181,2.503 -1.181,4.471 v 42.27 c 0,1.969 0.392,3.473 1.181,4.514 0.787,1.041 2.08,1.561 3.881,1.561 1.8,0 3.093,-0.52 3.88,-1.561 0.788,-1.041 1.182,-2.545 1.182,-4.514 v -8.438 h 3.375 z"
   stroke-miterlimit="10"
   clip-path="url(#SVGID_6_)"
   inkscape:connector-curvature="0"
   style="fill:none;stroke:#00245b;stroke-miterlimit:10" />

	<path
   id="path4989"
   d="m 583.66,187.061 h -10.884 l -1.518,11.052 H 567.8 l 8.773,-59.141 h 3.375 l 8.774,59.141 h -3.461 z m -10.377,-3.207 h 9.956 l -2.447,-17.127 -2.531,-19.826 -2.53,19.826 z"
   stroke-miterlimit="10"
   clip-path="url(#SVGID_6_)"
   inkscape:connector-curvature="0"
   style="fill:none;stroke:#00245b;stroke-miterlimit:10" />

	<polygon
   id="polygon4991"
   points="597.642,198.112 594.267,198.112 594.267,139.055 597.642,139.055 597.642,166.98 607.767,166.98 607.767,139.055 611.141,139.055 611.141,198.112 607.767,198.112 607.767,170.187 597.642,170.187 "
   stroke-miterlimit="10"
   clip-path="url(#SVGID_6_)"
   style="fill:none;stroke:#00245b;stroke-miterlimit:10" />

	<path
   id="path4993"
   d="m 615.302,139.055 h 10.124 v 21.346 h 5.062 c 2.98,0 5.132,0.872 6.455,2.613 1.32,1.744 1.981,4.249 1.981,7.51 v 17.548 c 0,3.263 -0.661,5.753 -1.981,7.468 -1.323,1.716 -3.475,2.572 -6.455,2.572 h -8.436 v -55.766 h -6.75 z m 10.124,24.551 v 31.3 h 5.062 c 1.801,0 3.093,-0.589 3.881,-1.771 0.788,-1.181 1.182,-2.867 1.182,-5.062 v -17.548 c 0,-2.193 -0.394,-3.895 -1.182,-5.104 -0.788,-1.208 -2.08,-1.813 -3.881,-1.813 h -5.062 z"
   stroke-miterlimit="10"
   clip-path="url(#SVGID_6_)"
   inkscape:connector-curvature="0"
   style="fill:none;stroke:#00245b;stroke-miterlimit:10" />

	<path
   id="path4995"
   d="m 658.945,187.061 h -10.884 l -1.518,11.052 h -3.459 l 8.774,-59.141 h 3.374 l 8.774,59.141 h -3.461 z m -10.377,-3.207 h 9.956 l -2.447,-17.127 -2.53,-19.826 -2.531,19.826 z"
   stroke-miterlimit="10"
   clip-path="url(#SVGID_6_)"
   inkscape:connector-curvature="0"
   style="fill:none;stroke:#00245b;stroke-miterlimit:10" />

	<polygon
   id="polygon4997"
   points="671.448,142.346 663.855,142.346 663.855,139.055 682.418,139.055 682.418,142.346 674.822,142.346 674.822,198.113 671.448,198.113 "
   stroke-miterlimit="10"
   clip-path="url(#SVGID_6_)"
   style="fill:none;stroke:#00245b;stroke-miterlimit:10" />

	<polygon
   id="polygon4999"
   points="689.344,198.112 685.97,198.112 685.97,139.055 689.344,139.055 689.344,166.98 699.469,166.98 699.469,139.055 702.843,139.055 702.843,198.112 699.469,198.112 699.469,170.187 689.344,170.187 "
   stroke-miterlimit="10"
   clip-path="url(#SVGID_6_)"
   style="fill:none;stroke:#00245b;stroke-miterlimit:10" />

	<polygon
   id="polygon5001"
   points="723.779,198.112 723.779,164.366 724.032,153.313 713.654,195.497 713.401,198.112 710.28,198.112 710.28,139.054 713.654,139.054 713.654,172.803 713.401,183.854 723.779,141.67 724.032,139.054 727.154,139.054 727.154,198.112 "
   stroke-miterlimit="10"
   clip-path="url(#SVGID_6_)"
   style="fill:none;stroke:#00245b;stroke-miterlimit:10" />

	<path
   id="path5003"
   d="m 275.045,213.147 h 6.173 c 2.182,0 3.756,0.628 4.724,1.884 0.967,1.257 1.451,3.076 1.451,5.464 v 12.841 c 0,2.388 -0.484,4.22 -1.451,5.495 -0.968,1.274 -2.542,1.914 -4.724,1.914 h -3.703 v 15.619 h -2.47 z m 2.471,2.348 v 22.903 h 3.703 c 1.318,0 2.264,-0.442 2.841,-1.327 0.575,-0.886 0.864,-2.131 0.864,-3.735 v -12.841 c 0,-1.604 -0.289,-2.84 -0.864,-3.704 -0.577,-0.864 -1.523,-1.296 -2.841,-1.296 z"
   clip-path="url(#SVGID_6_)"
   inkscape:connector-curvature="0"
   style="fill:#00245b" />

	<polygon
   id="polygon5005"
   points="302.708,256.358 302.708,231.45 302.896,223.293 295.236,254.428 295.049,256.358 292.745,256.358 292.745,212.771 295.236,212.771 295.236,237.679 295.049,245.834 302.708,214.7 302.896,212.771 305.199,212.771 305.199,256.358 "
   clip-path="url(#SVGID_6_)"
   style="fill:#00245b" />

	<path
   id="path5007"
   d="m 317.508,212.77 c 1.994,0 3.425,0.529 4.297,1.588 0.872,1.06 1.308,2.584 1.308,4.577 v 10.585 c 0,2.534 -0.831,4.214 -2.491,5.043 2.076,0.832 3.114,2.701 3.114,5.605 v 9.341 c 0,2.241 -0.488,3.944 -1.464,5.104 -0.976,1.163 -2.563,1.744 -4.764,1.744 h -6.226 V 212.77 Z m -3.735,2.367 v 18.245 h 3.735 c 2.076,0 3.114,-1.287 3.114,-3.862 v -10.585 c 0,-2.532 -1.038,-3.798 -3.114,-3.798 z m 0,20.611 v 18.244 h 3.735 c 1.328,0 2.284,-0.384 2.866,-1.151 0.58,-0.77 0.871,-1.878 0.871,-3.332 v -9.341 c 0,-1.451 -0.291,-2.554 -0.871,-3.3 -0.582,-0.747 -1.538,-1.12 -2.866,-1.12 z"
   clip-path="url(#SVGID_6_)"
   inkscape:connector-curvature="0"
   style="fill:#00245b" />

	<path
   id="path5009"
   d="m 329.509,218.935 c 0,-2.242 0.487,-3.933 1.462,-5.075 0.975,-1.141 2.562,-1.711 4.763,-1.711 2.201,0 3.788,0.57 4.764,1.711 0.976,1.143 1.463,2.833 1.463,5.075 v 31.196 c 0,2.241 -0.487,3.944 -1.463,5.106 -0.976,1.161 -2.563,1.743 -4.764,1.743 -2.201,0 -3.788,-0.582 -4.763,-1.743 -0.975,-1.162 -1.462,-2.865 -1.462,-5.106 z m 2.489,31.196 c 0,1.454 0.29,2.563 0.872,3.332 0.581,0.769 1.535,1.15 2.864,1.15 1.328,0 2.284,-0.382 2.866,-1.15 0.581,-0.769 0.872,-1.878 0.872,-3.332 v -31.196 c 0,-1.452 -0.291,-2.553 -0.872,-3.3 -0.582,-0.747 -1.538,-1.12 -2.866,-1.12 -1.329,0 -2.283,0.373 -2.864,1.12 -0.582,0.747 -0.872,1.848 -0.872,3.3 z"
   clip-path="url(#SVGID_6_)"
   inkscape:connector-curvature="0"
   style="fill:#00245b" />

	<path
   id="path5011"
   d="m 352.404,228.275 c 0.165,1.619 0.477,2.875 0.934,3.768 0.456,0.893 1.286,1.338 2.491,1.338 h 0.622 v -20.61 h 2.491 v 20.61 h 0.622 c 1.204,0 2.034,-0.445 2.491,-1.338 0.456,-0.893 0.768,-2.148 0.934,-3.768 l 0.747,-7.598 c 0.125,-1.285 0.301,-2.438 0.53,-3.456 0.227,-1.016 0.549,-1.867 0.964,-2.552 0.415,-0.686 0.945,-1.204 1.589,-1.558 0.643,-0.353 1.442,-0.528 2.397,-0.528 v 2.366 c -1.08,0 -1.796,0.498 -2.148,1.494 -0.353,0.996 -0.634,2.408 -0.841,4.233 l -0.747,7.598 c -0.166,1.578 -0.467,2.896 -0.903,3.954 -0.436,1.058 -1.132,1.837 -2.086,2.334 1.079,0.458 1.857,1.216 2.336,2.273 0.476,1.059 0.798,2.376 0.965,3.954 l 0.747,7.659 c 0.207,1.827 0.487,3.238 0.841,4.233 0.351,0.996 1.068,1.495 2.147,1.495 v 2.366 c -0.955,0 -1.754,-0.177 -2.397,-0.53 -0.644,-0.351 -1.173,-0.87 -1.588,-1.556 -0.414,-0.685 -0.738,-1.536 -0.965,-2.553 -0.229,-1.019 -0.404,-2.169 -0.529,-3.456 l -0.748,-7.659 c -0.166,-1.619 -0.498,-2.865 -0.996,-3.737 -0.498,-0.872 -1.412,-1.306 -2.74,-1.306 h -0.622 v 20.61 h -2.491 v -20.61 h -0.622 c -1.329,0 -2.242,0.434 -2.74,1.306 -0.498,0.872 -0.831,2.118 -0.997,3.737 l -0.747,7.659 c -0.25,2.574 -0.747,4.567 -1.495,5.977 -0.747,1.412 -2.076,2.118 -3.985,2.118 v -2.366 c 1.079,0 1.796,-0.499 2.148,-1.495 0.353,-0.995 0.633,-2.406 0.841,-4.233 l 0.747,-7.659 c 0.165,-1.578 0.488,-2.896 0.966,-3.954 0.477,-1.058 1.255,-1.815 2.334,-2.273 -0.955,-0.497 -1.649,-1.275 -2.086,-2.334 -0.435,-1.059 -0.737,-2.376 -0.902,-3.954 l -0.747,-7.598 c -0.208,-1.825 -0.489,-3.237 -0.84,-4.233 -0.355,-0.996 -1.07,-1.494 -2.15,-1.494 v -2.366 c 1.91,0 3.239,0.705 3.986,2.117 0.747,1.411 1.245,3.404 1.494,5.977 z"
   clip-path="url(#SVGID_6_)"
   inkscape:connector-curvature="0"
   style="fill:#00245b" />

	<path
   id="path5013"
   d="m 371.377,253.992 c 1.328,0 2.262,-0.561 2.803,-1.683 0.539,-1.121 0.85,-2.676 0.933,-4.669 l 1.246,-34.871 h 10.585 v 43.589 h -2.49 v -41.16 h -5.728 l -1.121,32.442 c -0.084,2.781 -0.592,4.931 -1.526,6.445 -0.933,1.515 -2.502,2.272 -4.702,2.272 z"
   clip-path="url(#SVGID_6_)"
   inkscape:connector-curvature="0"
   style="fill:#00245b" />

	<path
   id="path5015"
   d="m 403.426,248.2 h -8.032 l -1.12,8.157 h -2.554 l 6.476,-43.648 h 2.491 l 6.476,43.648 h -2.553 z m -7.658,-2.365 h 7.348 l -1.806,-12.642 -1.869,-14.632 -1.867,14.632 z"
   clip-path="url(#SVGID_6_)"
   inkscape:connector-curvature="0"
   style="fill:#00245b" />

	<polygon
   id="polygon5017"
   points="413.041,256.357 410.55,256.357 410.55,212.77 413.041,212.77 413.041,233.382 420.513,233.382 420.513,212.77 423.004,212.77 423.004,256.357 420.513,256.357 420.513,235.748 413.041,235.748 "
   clip-path="url(#SVGID_6_)"
   style="fill:#00245b" />

	<polygon
   id="polygon5019"
   points="432.947,215.198 427.343,215.198 427.343,212.771 441.043,212.771 441.043,215.198 435.438,215.198 435.438,256.358 432.947,256.358 "
   clip-path="url(#SVGID_6_)"
   style="fill:#00245b" />

	<polygon
   id="polygon5021"
   points="455.345,256.358 455.345,231.45 455.532,223.293 447.873,254.428 447.686,256.358 445.382,256.358 445.382,212.771 447.873,212.771 447.873,237.679 447.686,245.834 455.345,214.7 455.532,212.771 457.836,212.771 457.836,256.358 "
   clip-path="url(#SVGID_6_)"
   style="fill:#00245b" />

	<path
   id="path5023"
   d="m 463.919,212.771 h 6.227 c 2.2,0 3.788,0.633 4.764,1.898 0.976,1.268 1.464,3.104 1.464,5.512 v 12.951 c 0,2.407 -0.488,4.257 -1.464,5.542 -0.976,1.286 -2.563,1.931 -4.764,1.931 h -3.735 v 15.754 h -2.491 v -43.588 z m 2.491,2.366 v 23.102 h 3.735 c 1.328,0 2.283,-0.447 2.865,-1.339 0.58,-0.893 0.871,-2.149 0.871,-3.768 v -12.951 c 0,-1.619 -0.291,-2.865 -0.871,-3.736 -0.582,-0.872 -1.537,-1.308 -2.865,-1.308 z"
   clip-path="url(#SVGID_6_)"
   inkscape:connector-curvature="0"
   style="fill:#00245b" />

	<polygon
   id="polygon5025"
   points="491.734,256.358 491.734,231.45 491.921,223.293 484.263,254.428 484.076,256.358 481.771,256.358 481.771,212.771 484.263,212.771 484.263,237.679 484.076,245.834 491.734,214.7 491.921,212.771 494.226,212.771 494.226,256.358 "
   clip-path="url(#SVGID_6_)"
   style="fill:#00245b" />

	<polygon
   id="polygon5027"
   points="516.498,212.771 518.989,212.771 518.989,256.358 500.308,256.358 500.308,212.771 502.799,212.771 502.799,253.93 508.403,253.93 508.403,212.771 510.894,212.771 510.894,253.93 516.498,253.93 "
   clip-path="url(#SVGID_6_)"
   style="fill:#00245b" />

	<path
   id="path5029"
   d="m 539.145,228.275 c 0.165,1.619 0.477,2.875 0.934,3.768 0.456,0.893 1.287,1.338 2.491,1.338 h 0.622 v -20.61 h 2.491 v 20.61 h 0.623 c 1.203,0 2.033,-0.445 2.489,-1.338 0.457,-0.893 0.769,-2.148 0.936,-3.768 l 0.747,-7.598 c 0.124,-1.285 0.301,-2.438 0.529,-3.456 0.228,-1.016 0.549,-1.867 0.965,-2.552 0.415,-0.686 0.943,-1.204 1.588,-1.558 0.643,-0.353 1.44,-0.528 2.396,-0.528 v 2.366 c -1.081,0 -1.795,0.498 -2.147,1.494 -0.354,0.996 -0.634,2.408 -0.841,4.233 l -0.747,7.598 c -0.166,1.578 -0.467,2.896 -0.902,3.954 -0.437,1.059 -1.132,1.837 -2.086,2.334 1.078,0.458 1.856,1.216 2.334,2.273 0.476,1.059 0.8,2.376 0.966,3.954 l 0.747,7.659 c 0.207,1.827 0.487,3.238 0.84,4.233 0.354,0.996 1.069,1.495 2.149,1.495 v 2.366 c -0.956,0 -1.755,-0.177 -2.397,-0.53 -0.645,-0.351 -1.174,-0.87 -1.588,-1.556 -0.416,-0.685 -0.738,-1.536 -0.965,-2.553 -0.229,-1.019 -0.405,-2.169 -0.53,-3.456 l -0.748,-7.659 c -0.166,-1.619 -0.497,-2.865 -0.995,-3.737 -0.498,-0.872 -1.411,-1.306 -2.739,-1.306 h -0.623 v 20.61 h -2.491 v -20.61 h -0.622 c -1.329,0 -2.241,0.434 -2.74,1.306 -0.498,0.872 -0.831,2.118 -0.997,3.737 l -0.746,7.659 c -0.25,2.574 -0.747,4.567 -1.494,5.977 -0.747,1.412 -2.076,2.118 -3.985,2.118 v -2.366 c 1.079,0 1.795,-0.499 2.147,-1.495 0.354,-0.995 0.633,-2.406 0.841,-4.233 l 0.748,-7.659 c 0.165,-1.578 0.487,-2.896 0.964,-3.954 0.477,-1.058 1.256,-1.815 2.336,-2.273 -0.955,-0.497 -1.65,-1.275 -2.086,-2.334 -0.437,-1.059 -0.737,-2.376 -0.903,-3.954 l -0.747,-7.598 c -0.209,-1.825 -0.489,-3.237 -0.841,-4.233 -0.353,-0.996 -1.069,-1.494 -2.148,-1.494 v -2.366 c 1.91,0 3.239,0.705 3.986,2.117 0.747,1.411 1.245,3.404 1.494,5.977 z"
   clip-path="url(#SVGID_6_)"
   inkscape:connector-curvature="0"
   style="fill:#00245b" />

	<path
   id="path5031"
   d="m 570.695,248.2 h -8.033 l -1.12,8.157 h -2.553 l 6.476,-43.648 h 2.491 l 6.476,43.648 h -2.554 z m -7.659,-2.365 h 7.348 l -1.806,-12.642 -1.867,-14.632 -1.869,14.632 z"
   clip-path="url(#SVGID_6_)"
   inkscape:connector-curvature="0"
   style="fill:#00245b" />

	<polygon
   id="polygon5033"
   points="594.525,212.77 597.017,212.77 597.017,256.357 594.525,256.357 594.525,228.274 594.837,220.118 589.358,248.201 586.867,248.201 581.388,220.118 581.699,228.274 581.699,256.357 579.208,256.357 579.208,212.77 581.699,212.77 586.245,232.821 588.112,244.899 589.98,232.821 "
   clip-path="url(#SVGID_6_)"
   style="fill:#00245b" />

	<polygon
   id="polygon5035"
   points="605.592,233.382 612.13,233.382 612.13,235.748 605.592,235.748 605.592,256.357 603.102,256.357 603.102,212.77 613.376,212.77 613.376,215.198 605.592,215.198 "
   clip-path="url(#SVGID_6_)"
   style="fill:#00245b" />

	<path
   id="path5037"
   d="m 628.924,248.2 h -8.032 l -1.121,8.157 h -2.553 l 6.475,-43.648 h 2.491 l 6.477,43.648 h -2.553 z m -7.659,-2.365 h 7.349 l -1.806,-12.642 -1.869,-14.632 -1.868,14.632 z"
   clip-path="url(#SVGID_6_)"
   inkscape:connector-curvature="0"
   style="fill:#00245b" />

	<path
   id="path5039"
   d="m 637.436,212.771 h 6.227 c 2.201,0 3.788,0.633 4.764,1.898 0.976,1.268 1.464,3.104 1.464,5.512 v 12.951 c 0,2.407 -0.488,4.257 -1.464,5.542 -0.976,1.286 -2.562,1.931 -4.764,1.931 h -3.735 v 15.754 h -2.491 v -43.588 z m 2.491,2.366 v 23.102 h 3.735 c 1.328,0 2.283,-0.447 2.865,-1.339 0.58,-0.893 0.871,-2.149 0.871,-3.768 v -12.951 c 0,-1.619 -0.291,-2.865 -0.871,-3.736 -0.582,-0.872 -1.537,-1.308 -2.865,-1.308 z"
   clip-path="url(#SVGID_6_)"
   inkscape:connector-curvature="0"
   style="fill:#00245b" />

	<polygon
   id="polygon5041"
   points="670.606,212.77 673.098,212.77 673.098,256.357 670.606,256.357 670.606,228.274 670.918,220.118 665.438,248.201 662.948,248.201 657.468,220.118 657.779,228.274 657.779,256.357 655.288,256.357 655.288,212.77 657.779,212.77 662.324,232.821 664.193,244.899 666.062,232.821 "
   clip-path="url(#SVGID_6_)"
   style="fill:#00245b" />

	<path
   id="path5043"
   d="m 689.58,248.2 h -8.033 l -1.12,8.157 h -2.553 l 6.476,-43.648 h 2.491 l 6.475,43.648 h -2.553 z m -7.659,-2.365 h 7.348 l -1.806,-12.642 -1.868,-14.632 -1.868,14.632 z"
   clip-path="url(#SVGID_6_)"
   inkscape:connector-curvature="0"
   style="fill:#00245b" />

	<path
   id="path5045"
   d="m 710.422,250.131 c 0,2.241 -0.488,3.944 -1.464,5.106 -0.975,1.161 -2.563,1.743 -4.763,1.743 -2.201,0 -3.788,-0.582 -4.764,-1.743 -0.977,-1.162 -1.464,-2.865 -1.464,-5.106 v -31.196 c 0,-2.242 0.487,-3.933 1.464,-5.075 0.976,-1.141 2.562,-1.711 4.764,-1.711 2.199,0 3.788,0.57 4.763,1.711 0.976,1.143 1.464,2.833 1.464,5.075 v 6.29 h -2.491 v -6.29 c 0,-1.452 -0.291,-2.553 -0.872,-3.3 -0.581,-0.747 -1.535,-1.12 -2.863,-1.12 -1.329,0 -2.283,0.373 -2.864,1.12 -0.582,0.747 -0.872,1.848 -0.872,3.3 v 31.196 c 0,1.454 0.29,2.563 0.872,3.332 0.581,0.769 1.535,1.15 2.864,1.15 1.328,0 2.282,-0.382 2.863,-1.15 0.581,-0.768 0.872,-1.878 0.872,-3.332 v -6.228 h 2.491 z"
   clip-path="url(#SVGID_6_)"
   inkscape:connector-curvature="0"
   style="fill:#00245b" />

	<polygon
   id="polygon5047"
   points="725.348,256.358 725.348,231.45 725.534,223.293 717.876,254.428 717.689,256.358 715.385,256.358 715.385,212.771 717.876,212.771 717.876,237.679 717.689,245.834 725.348,214.7 725.534,212.771 727.839,212.771 727.839,256.358 "
   clip-path="url(#SVGID_6_)"
   style="fill:#00245b" />

	<polyline
   id="polyline5049"
   points="583.841,122.732 585.701,122.732 585.701,129.115 583.841,129.115    583.841,124.807  "
   clip-path="url(#SVGID_6_)"
   style="fill:#00245b" />

</g>
    </g>
  </g>
</svg>
