<?xml version="1.0" encoding="UTF-8" standalone="no"?>
<!-- Created with Inkscape (http://www.inkscape.org/) -->

<svg
   xmlns:dc="http://purl.org/dc/elements/1.1/"
   xmlns:cc="http://creativecommons.org/ns#"
   xmlns:rdf="http://www.w3.org/1999/02/22-rdf-syntax-ns#"
   xmlns:svg="http://www.w3.org/2000/svg"
   xmlns="http://www.w3.org/2000/svg"
   xmlns:xlink="http://www.w3.org/1999/xlink"
   xmlns:sodipodi="http://sodipodi.sourceforge.net/DTD/sodipodi-0.dtd"
   xmlns:inkscape="http://www.inkscape.org/namespaces/inkscape"
   width="630"
   height="240"
   viewBox="0 0 166.68757 63.499996"
   version="1.1"
   id="svg8"
   inkscape:version="0.92.4 (5da689c313, 2019-01-14)"
   sodipodi:docname="logo_en.svg">
  <defs
     id="defs2">
    <rect
       height="289.33301"
       width="782.39801"
       id="SVGID_1_"
       x="0"
       y="0" />
    <rect
       height="123.448"
       width="123.448"
       transform="matrix(-0.3101,-0.9507,0.9507,-0.3101,61.2094,334.9347)"
       y="83.533997"
       x="90.407997"
       id="SVGID_3_" />
    <rect
       height="289.33301"
       width="782.39801"
       id="SVGID_5_"
       x="0"
       y="0" />
    <rect
       height="289.33301"
       width="782.39801"
       id="SVGID_1_-2"
       x="0"
       y="0" />
    <rect
       height="123.448"
       width="123.448"
       transform="matrix(-0.3101,-0.9507,0.9507,-0.3101,61.2094,334.9347)"
       y="83.533997"
       x="90.407997"
       id="SVGID_3_-9" />
    <rect
       height="289.33301"
       width="782.39801"
       id="SVGID_5_-3"
       x="0"
       y="0" />
    <rect
       height="289.33301"
       width="782.39801"
       id="SVGID_1_-6"
       x="0"
       y="0" />
    <rect
       height="123.448"
       width="123.448"
       transform="matrix(-0.3101,-0.9507,0.9507,-0.3101,61.2094,334.9347)"
       y="83.533997"
       x="90.407997"
       id="SVGID_3_-4" />
    <rect
       height="289.33301"
       width="782.39801"
       id="SVGID_5_-0"
       x="0"
       y="0" />
    <rect
       height="289.33301"
       width="782.39801"
       id="SVGID_1_-1"
       x="0"
       y="0" />
    <rect
       height="123.448"
       width="123.448"
       transform="matrix(-0.3101,-0.9507,0.9507,-0.3101,61.2094,334.9347)"
       y="83.533997"
       x="90.407997"
       id="SVGID_3_-7" />
    <rect
       height="289.33301"
       width="782.39801"
       id="SVGID_5_-4"
       x="0"
       y="0" />
  </defs>
  <sodipodi:namedview
     id="base"
     pagecolor="#ffffff"
     bordercolor="#666666"
     borderopacity="1.0"
     inkscape:pageopacity="0.0"
     inkscape:pageshadow="2"
     inkscape:zoom="0.35"
     inkscape:cx="-35.714286"
     inkscape:cy="560"
     inkscape:document-units="mm"
     inkscape:current-layer="layer1"
     showgrid="false"
     units="px"
     inkscape:window-width="1130"
     inkscape:window-height="717"
     inkscape:window-x="979"
     inkscape:window-y="126"
     inkscape:window-maximized="0" />
  <metadata
     id="metadata5">
    <rdf:RDF>
      <cc:Work
         rdf:about="">
        <dc:format>image/svg+xml</dc:format>
        <dc:type
           rdf:resource="http://purl.org/dc/dcmitype/StillImage" />
        <dc:title></dc:title>
      </cc:Work>
    </rdf:RDF>
  </metadata>
  <g
     inkscape:label="Layer 1"
     inkscape:groupmode="layer"
     id="layer1"
     transform="translate(0,-233.50003)">
    <g
       id="g5642"
       transform="matrix(0.26458333,0,0,0.26458333,-7.1672685,227.62843)">
      <path
         id="path5215"
         d="M 262.158,255.321 H 41.48 V 34.645 H 262.158 Z M 42.945,253.856 H 260.692 V 36.11 H 42.945 Z"
         inkscape:connector-curvature="0"
         style="fill:#00b4cd" />
      <path
         id="path5217"
         d="M 262.158,255.321 H 41.48 V 34.645 H 262.158 Z M 42.945,253.856 H 260.692 V 36.11 H 42.945 Z"
         stroke-miterlimit="10"
         inkscape:connector-curvature="0"
         style="fill:none;stroke:#00245b;stroke-width:1.71099997;stroke-miterlimit:10" />
      <polyline
         id="polyline5219"
         points="189.7,222.761 189.581,223.101   189.241,222.981 "
         stroke-miterlimit="10"
         style="fill:none;stroke:#00245b;stroke-width:0.56999999;stroke-miterlimit:10" />
      <line
         id="line5221"
         y2="182.77699"
         x2="74.622002"
         y1="222.743"
         x1="188.561"
         stroke-miterlimit="10"
         style="fill:none;stroke:#00245b;stroke-width:0.56999999;stroke-miterlimit:10;stroke-dasharray:0.721, 0.721" />
      <polyline
         id="polyline5223"
         points="74.281,182.658 73.941,182.539   74.06,182.199 "
         stroke-miterlimit="10"
         style="fill:none;stroke:#00245b;stroke-width:0.56999999;stroke-miterlimit:10" />
      <line
         id="line5225"
         y2="67.579002"
         x2="114.264"
         y1="181.519"
         x1="74.299004"
         stroke-miterlimit="10"
         style="fill:none;stroke:#00245b;stroke-width:0.56999999;stroke-miterlimit:10;stroke-dasharray:0.721, 0.721" />
      <polyline
         id="polyline5227"
         points="114.383,67.238 114.502,66.898   114.842,67.018 "
         stroke-miterlimit="10"
         style="fill:none;stroke:#00245b;stroke-width:0.56999999;stroke-miterlimit:10" />
      <line
         id="line5229"
         y2="107.222"
         x2="229.46201"
         y1="67.255997"
         x1="115.522"
         stroke-miterlimit="10"
         style="fill:none;stroke:#00245b;stroke-width:0.56999999;stroke-miterlimit:10;stroke-dasharray:0.721, 0.721" />
      <polyline
         id="polyline5231"
         points="229.803,107.341 230.143,107.46   230.024,107.8 "
         stroke-miterlimit="10"
         style="fill:none;stroke:#00245b;stroke-width:0.56999999;stroke-miterlimit:10" />
      <line
         id="line5233"
         y2="222.42"
         x2="189.819"
         y1="108.48"
         x1="229.785"
         stroke-miterlimit="10"
         style="fill:none;stroke:#00245b;stroke-width:0.56999999;stroke-miterlimit:10;stroke-dasharray:0.721, 0.721" />
      <rect
         id="rect5235"
         height="123.448"
         width="123.447"
         stroke-miterlimit="10"
         transform="matrix(0.9507,-0.3101,0.3101,0.9507,-37.5497,54.3092)"
         y="83.533997"
         x="90.318001"
         style="fill:none;stroke:#000000;stroke-width:0.99800003;stroke-miterlimit:10" />
      <g
         id="g5265">
	<defs
   id="defs5238">
		<rect
   height="289.33301"
   width="782.39801"
   id="rect5510"
   x="0"
   y="0" />

	</defs>

	<clipPath
   id="SVGID_2_-1">
		<use
   id="use5240"
   overflow="visible"
   xlink:href="#SVGID_1_-1"
   style="overflow:visible"
   x="0"
   y="0"
   width="100%"
   height="100%" />

	</clipPath>

	
		<circle
   id="circle5243"
   r="15.424"
   cy="145.019"
   cx="152.177"
   stroke-miterlimit="10"
   clip-path="url(#SVGID_2_-1)"
   style="fill:none;stroke:#00245b;stroke-width:0.56999999;stroke-miterlimit:10" />

	
		<rect
   id="rect5245"
   height="171.74001"
   width="172.73399"
   stroke-miterlimit="10"
   clip-path="url(#SVGID_2_-1)"
   transform="matrix(0.9507,-0.3101,0.3101,0.9507,-37.4863,54.2674)"
   y="59.169998"
   x="65.577003"
   style="fill:none;stroke:#00245b;stroke-width:1.14100003;stroke-miterlimit:10" />

	<polygon
   id="polygon5247"
   points="260.813,200.299 96.191,253.996 96.06,253.591 42.67,89.913 43.075,89.782 207.697,36.085 207.831,36.489 261.217,200.167 "
   stroke-miterlimit="10"
   clip-path="url(#SVGID_2_-1)"
   style="fill:none;stroke:#00245b;stroke-width:1.14100003;stroke-miterlimit:10" />

	<polygon
   id="polygon5249"
   points="43.692,197.378 61.187,147.304 60.898,146.414 43.064,197.458 42.972,197.724 82.259,211.587 82.04,210.91 "
   clip-path="url(#SVGID_2_-1)"
   style="fill:#00b4cd" />

	<polygon
   id="polygon5251"
   points="43.692,197.378 61.187,147.304 60.898,146.414 43.064,197.458 42.972,197.724 82.259,211.587 82.04,210.91 "
   stroke-miterlimit="10"
   clip-path="url(#SVGID_2_-1)"
   style="fill:none;stroke:#00245b;stroke-width:1.99699998;stroke-miterlimit:10" />

	<polygon
   id="polygon5253"
   points="99.983,36.971 150.563,54.721 151.448,54.432 99.904,36.344 99.637,36.25 85.734,75.867 86.411,75.646 "
   clip-path="url(#SVGID_2_-1)"
   style="fill:#00b4cd" />

	<polygon
   id="polygon5255"
   points="99.983,36.971 150.563,54.721 151.448,54.432 99.904,36.344 99.637,36.25 85.734,75.867 86.411,75.646 "
   stroke-miterlimit="10"
   clip-path="url(#SVGID_2_-1)"
   style="fill:none;stroke:#00245b;stroke-width:1.99699998;stroke-miterlimit:10" />

	<polygon
   id="polygon5257"
   points="204.1,253.669 152.485,235.715 151.596,236.001 204.179,254.297 204.446,254.391 218.285,214.416 217.609,214.636 "
   clip-path="url(#SVGID_2_-1)"
   style="fill:#00b4cd" />

	<polygon
   id="polygon5259"
   points="204.1,253.669 152.485,235.715 151.596,236.001 204.179,254.297 204.446,254.391 218.285,214.416 217.609,214.636 "
   stroke-miterlimit="10"
   clip-path="url(#SVGID_2_-1)"
   style="fill:none;stroke:#00245b;stroke-width:1.99699998;stroke-miterlimit:10" />

	<polygon
   id="polygon5261"
   points="222.227,79.724 260.39,93.262 242.818,143.337 243.105,144.226 261.018,93.182 261.111,92.916 222.008,79.048 "
   clip-path="url(#SVGID_2_-1)"
   style="fill:#00b4cd" />

	<polygon
   id="polygon5263"
   points="222.227,79.724 260.39,93.262 242.818,143.337 243.105,144.226 261.018,93.182 261.111,92.916 222.008,79.048 "
   stroke-miterlimit="10"
   clip-path="url(#SVGID_2_-1)"
   style="fill:none;stroke:#00245b;stroke-width:1.99699998;stroke-miterlimit:10" />

</g>
      <g
         id="g5309">
	<defs
   id="defs5268">
		
			<rect
   height="123.448"
   width="123.448"
   transform="matrix(-0.3101,-0.9507,0.9507,-0.3101,61.2094,334.9347)"
   y="83.533997"
   x="90.407997"
   id="rect5527" />

	</defs>

	<clipPath
   id="SVGID_4_-4">
		<use
   id="use5270"
   overflow="visible"
   xlink:href="#SVGID_3_-7"
   style="overflow:visible"
   x="0"
   y="0"
   width="100%"
   height="100%" />

	</clipPath>

	
		<line
   id="line5273"
   y2="255.91299"
   x2="152.177"
   y1="36.367001"
   x1="152.177"
   stroke-miterlimit="10"
   clip-path="url(#SVGID_4_-4)"
   style="fill:none;stroke:#00245b;stroke-width:0.285;stroke-miterlimit:10" />

	
		<line
   id="line5275"
   y2="145.12"
   x2="40.810001"
   y1="145.12"
   x1="262.38"
   stroke-miterlimit="10"
   clip-path="url(#SVGID_4_-4)"
   style="fill:none;stroke:#00245b;stroke-width:0.285;stroke-miterlimit:10" />

	
		<line
   id="line5277"
   y2="164.57401"
   x2="40.810001"
   y1="125.87"
   x1="262.38"
   stroke-miterlimit="10"
   clip-path="url(#SVGID_4_-4)"
   style="fill:none;stroke:#00245b;stroke-width:0.285;stroke-miterlimit:10" />

	
		<line
   id="line5279"
   y2="185.276"
   x2="40.810001"
   y1="105.383"
   x1="262.38"
   stroke-miterlimit="10"
   clip-path="url(#SVGID_4_-4)"
   style="fill:none;stroke:#00245b;stroke-width:0.285;stroke-miterlimit:10" />

	
		<line
   id="line5281"
   y2="208.81799"
   x2="40.811001"
   y1="82.028999"
   x1="262.48199"
   stroke-miterlimit="10"
   clip-path="url(#SVGID_4_-4)"
   style="fill:none;stroke:#00245b;stroke-width:0.285;stroke-miterlimit:10" />

	
		<line
   id="line5283"
   y2="237.69701"
   x2="40.810001"
   y1="53.583"
   x1="262.29401"
   stroke-miterlimit="10"
   clip-path="url(#SVGID_4_-4)"
   style="fill:none;stroke:#00245b;stroke-width:0.285;stroke-miterlimit:10" />

	
		<line
   id="line5285"
   y2="255.871"
   x2="58.372002"
   y1="36.449001"
   x1="244.222"
   stroke-miterlimit="10"
   clip-path="url(#SVGID_4_-4)"
   style="fill:none;stroke:#00245b;stroke-width:0.285;stroke-miterlimit:10" />

	
		<line
   id="line5287"
   y2="255.87"
   x2="87.634003"
   y1="36.367001"
   x1="215.55701"
   stroke-miterlimit="10"
   clip-path="url(#SVGID_4_-4)"
   style="fill:none;stroke:#00245b;stroke-width:0.285;stroke-miterlimit:10" />

	
		<line
   id="line5289"
   y2="255.87"
   x2="111.488"
   y1="36.367001"
   x1="192.133"
   stroke-miterlimit="10"
   clip-path="url(#SVGID_4_-4)"
   style="fill:none;stroke:#00245b;stroke-width:0.285;stroke-miterlimit:10" />

	
		<line
   id="line5291"
   y2="255.91299"
   x2="132.457"
   y1="36.367001"
   x1="171.533"
   stroke-miterlimit="10"
   clip-path="url(#SVGID_4_-4)"
   style="fill:none;stroke:#00245b;stroke-width:0.285;stroke-miterlimit:10" />

	
		<line
   id="line5293"
   y2="255.87"
   x2="171.89"
   y1="36.367001"
   x1="132.821"
   stroke-miterlimit="10"
   clip-path="url(#SVGID_4_-4)"
   style="fill:none;stroke:#00245b;stroke-width:0.285;stroke-miterlimit:10" />

	
		<line
   id="line5295"
   y2="255.87"
   x2="192.867"
   y1="36.367001"
   x1="112.222"
   stroke-miterlimit="10"
   clip-path="url(#SVGID_4_-4)"
   style="fill:none;stroke:#00245b;stroke-width:0.285;stroke-miterlimit:10" />

	
		<line
   id="line5297"
   y2="255.87"
   x2="216.72099"
   y1="36.367001"
   x1="88.797997"
   stroke-miterlimit="10"
   clip-path="url(#SVGID_4_-4)"
   style="fill:none;stroke:#00245b;stroke-width:0.285;stroke-miterlimit:10" />

	
		<line
   id="line5299"
   y2="255.87"
   x2="245.98199"
   y1="36.367001"
   x1="60.063999"
   stroke-miterlimit="10"
   clip-path="url(#SVGID_4_-4)"
   style="fill:none;stroke:#00245b;stroke-width:0.285;stroke-miterlimit:10" />

	
		<line
   id="line5301"
   y2="237.806"
   x2="263.57401"
   y1="53.360001"
   x1="41.891998"
   stroke-miterlimit="10"
   clip-path="url(#SVGID_4_-4)"
   style="fill:none;stroke:#00245b;stroke-width:0.285;stroke-miterlimit:10" />

	
		<line
   id="line5303"
   y2="208.15199"
   x2="262.38"
   y1="81.421997"
   x1="40.810001"
   stroke-miterlimit="10"
   clip-path="url(#SVGID_4_-4)"
   style="fill:none;stroke:#00245b;stroke-width:0.285;stroke-miterlimit:10" />

	
		<line
   id="line5305"
   y2="184.856"
   x2="262.38"
   y1="104.963"
   x1="40.810001"
   stroke-miterlimit="10"
   clip-path="url(#SVGID_4_-4)"
   style="fill:none;stroke:#00245b;stroke-width:0.285;stroke-miterlimit:10" />

	
		<line
   id="line5307"
   y2="164.37"
   x2="262.38"
   y1="125.666"
   x1="40.810001"
   stroke-miterlimit="10"
   clip-path="url(#SVGID_4_-4)"
   style="fill:none;stroke:#00245b;stroke-width:0.285;stroke-miterlimit:10" />

</g>
      <g
         id="g5487">
	<defs
   id="defs5312">
		<rect
   height="289.33301"
   width="782.39801"
   id="rect5551"
   x="0"
   y="0" />

	</defs>

	<clipPath
   id="SVGID_6_-3">
		<use
   id="use5314"
   overflow="visible"
   xlink:href="#SVGID_5_-4"
   style="overflow:visible"
   x="0"
   y="0"
   width="100%"
   height="100%" />

	</clipPath>

	
		<rect
   id="rect5317"
   height="123.447"
   width="123.447"
   stroke-miterlimit="10"
   clip-path="url(#SVGID_6_-3)"
   transform="matrix(-0.9507,0.3101,-0.3101,-0.9507,341.8081,236.1803)"
   y="83.535004"
   x="90.407997"
   style="fill:none;stroke:#00245b;stroke-miterlimit:10" />

	<path
   id="path5319"
   d="m 274.432,225.332 c 0,-1.814 0.396,-3.184 1.187,-4.109 0.788,-0.924 2.075,-1.387 3.856,-1.387 1.783,0 3.068,0.463 3.858,1.387 0.789,0.926 1.185,2.295 1.185,4.109 v 25.264 c 0,1.814 -0.396,3.192 -1.185,4.135 -0.79,0.94 -2.075,1.411 -3.858,1.411 -1.781,0 -3.068,-0.471 -3.856,-1.411 -0.791,-0.942 -1.187,-2.32 -1.187,-4.135 z m 2.018,25.264 c 0,1.177 0.234,2.076 0.707,2.697 0.47,0.622 1.242,0.933 2.318,0.933 1.076,0 1.849,-0.311 2.32,-0.933 0.47,-0.621 0.707,-1.521 0.707,-2.697 v -25.264 c 0,-1.176 -0.237,-2.066 -0.707,-2.673 -0.471,-0.604 -1.244,-0.907 -2.32,-0.907 -1.076,0 -1.848,0.303 -2.318,0.907 -0.473,0.606 -0.707,1.497 -0.707,2.673 z"
   clip-path="url(#SVGID_6_-3)"
   inkscape:connector-curvature="0"
   style="fill:#00245b" />

	<polygon
   id="polygon5321"
   points="293.479,222.308 293.479,237.031 298.774,237.031 298.774,238.947 293.479,238.947 293.479,255.639 291.461,255.639 291.461,220.34 299.782,220.34 299.782,222.308 "
   clip-path="url(#SVGID_6_-3)"
   style="fill:#00245b" />

	<polygon
   id="polygon5323"
   points="310.334,222.308 310.334,220.341 321.429,220.341 321.429,222.308 316.89,222.308 316.89,255.639 314.872,255.639 314.872,222.308 "
   clip-path="url(#SVGID_6_-3)"
   style="fill:#00245b" />

	<polygon
   id="polygon5325"
   points="335.129,255.638 335.129,238.947 329.079,238.947 329.079,255.638 327.061,255.638 327.061,220.341 329.079,220.341 329.079,237.031 335.129,237.031 335.129,220.341 337.146,220.341 337.146,255.638 "
   clip-path="url(#SVGID_6_-3)"
   style="fill:#00245b" />

	<polygon
   id="polygon5327"
   points="350.811,220.34 350.811,222.308 344.507,222.308 344.507,237.031 349.801,237.031 349.801,238.947 344.507,238.947 344.507,253.671 350.811,253.671 350.811,255.639 342.49,255.639 342.49,220.34 "
   clip-path="url(#SVGID_6_-3)"
   style="fill:#00245b" />

	<path
   id="path5329"
   d="m 362.774,220.341 h 4.79 c 1.783,0 3.069,0.513 3.859,1.538 0.789,1.024 1.184,2.514 1.184,4.462 v 8.521 c 0,1.648 -0.277,2.967 -0.832,3.959 -0.554,0.992 -1.437,1.639 -2.647,1.941 l 4.437,14.876 h -2.066 l -4.437,-14.726 h -2.271 v 14.726 h -2.017 z m 2.017,1.916 v 16.74 h 2.773 c 1.078,0 1.85,-0.359 2.321,-1.084 0.47,-0.722 0.706,-1.739 0.706,-3.051 v -8.521 c 0,-1.312 -0.236,-2.318 -0.706,-3.024 -0.471,-0.707 -1.243,-1.06 -2.321,-1.06 z"
   clip-path="url(#SVGID_6_-3)"
   inkscape:connector-curvature="0"
   style="fill:#00245b" />

	<polygon
   id="polygon5331"
   points="386.12,220.34 386.12,222.308 379.817,222.308 379.817,237.031 385.112,237.031 385.112,238.947 379.817,238.947 379.817,253.671 386.12,253.671 386.12,255.639 377.801,255.639 377.801,220.34 "
   clip-path="url(#SVGID_6_-3)"
   style="fill:#00245b" />

	<path
   id="path5333"
   d="m 390.708,220.341 h 5.043 c 1.781,0 3.066,0.513 3.856,1.538 0.79,1.024 1.187,2.514 1.187,4.462 v 10.488 c 0,1.949 -0.396,3.446 -1.187,4.488 -0.791,1.042 -2.075,1.563 -3.856,1.563 h -3.026 v 12.758 h -2.017 z m 2.018,1.916 v 18.707 h 3.026 c 1.074,0 1.849,-0.36 2.319,-1.083 0.47,-0.725 0.706,-1.74 0.706,-3.052 v -10.488 c 0,-1.312 -0.236,-2.318 -0.706,-3.024 -0.471,-0.707 -1.245,-1.06 -2.319,-1.06 z"
   clip-path="url(#SVGID_6_-3)"
   inkscape:connector-curvature="0"
   style="fill:#00245b" />

	<path
   id="path5335"
   d="m 405.534,220.341 h 2.019 v 30.255 c 0,1.177 0.233,2.076 0.705,2.698 0.47,0.621 1.243,0.932 2.318,0.932 1.077,0 1.849,-0.311 2.32,-0.932 0.471,-0.622 0.706,-1.521 0.706,-2.698 v -30.255 h 2.017 v 30.255 c 0,1.814 -0.395,3.192 -1.184,4.135 -0.79,0.94 -2.077,1.411 -3.859,1.411 -1.781,0 -3.066,-0.471 -3.856,-1.411 -0.789,-0.942 -1.186,-2.32 -1.186,-4.135 z"
   clip-path="url(#SVGID_6_-3)"
   inkscape:connector-curvature="0"
   style="fill:#00245b" />

	<path
   id="path5337"
   d="m 425.956,220.341 c 1.613,0 2.773,0.428 3.479,1.285 0.707,0.857 1.06,2.092 1.06,3.707 v 8.572 c 0,2.051 -0.673,3.412 -2.018,4.084 1.681,0.673 2.522,2.186 2.522,4.538 v 7.564 c 0,1.815 -0.396,3.194 -1.187,4.133 -0.79,0.942 -2.075,1.413 -3.856,1.413 h -5.043 V 220.34 h 5.043 z m -3.026,1.916 v 14.774 h 3.026 c 1.681,0 2.521,-1.042 2.521,-3.126 v -8.572 c 0,-2.051 -0.84,-3.076 -2.521,-3.076 z m 0,16.69 v 14.774 h 3.026 c 1.074,0 1.849,-0.311 2.318,-0.933 0.471,-0.621 0.706,-1.522 0.706,-2.697 v -7.564 c 0,-1.177 -0.235,-2.067 -0.706,-2.674 -0.47,-0.603 -1.244,-0.906 -2.318,-0.906 z"
   clip-path="url(#SVGID_6_-3)"
   inkscape:connector-curvature="0"
   style="fill:#00245b" />

	<polygon
   id="polygon5339"
   points="444.259,253.671 444.259,255.639 436.191,255.639 436.191,220.34 438.208,220.34 438.208,253.671 "
   clip-path="url(#SVGID_6_-3)"
   style="fill:#00245b" />

	<rect
   id="rect5341"
   height="35.298"
   width="2.017"
   clip-path="url(#SVGID_6_-3)"
   y="220.34"
   x="448.24301"
   style="fill:#00245b" />

	<path
   id="path5343"
   d="m 467.34,250.596 c 0,1.814 -0.396,3.192 -1.186,4.135 -0.789,0.94 -2.076,1.411 -3.857,1.411 -1.782,0 -3.067,-0.471 -3.856,-1.411 -0.79,-0.942 -1.186,-2.32 -1.186,-4.135 v -25.264 c 0,-1.814 0.396,-3.184 1.186,-4.109 0.789,-0.924 2.074,-1.387 3.856,-1.387 1.781,0 3.068,0.463 3.857,1.387 0.789,0.926 1.186,2.295 1.186,4.109 v 5.094 h -2.017 v -5.094 c 0,-1.176 -0.235,-2.066 -0.707,-2.673 -0.471,-0.604 -1.243,-0.907 -2.319,-0.907 -1.076,0 -1.849,0.303 -2.319,0.907 -0.471,0.606 -0.705,1.497 -0.705,2.673 v 25.264 c 0,1.177 0.234,2.076 0.705,2.697 0.471,0.622 1.243,0.933 2.319,0.933 1.076,0 1.849,-0.311 2.319,-0.933 0.472,-0.621 0.707,-1.521 0.707,-2.697 v -5.042 h 2.017 z"
   clip-path="url(#SVGID_6_-3)"
   inkscape:connector-curvature="0"
   style="fill:#00245b" />

	<path
   id="path5345"
   d="m 480.752,225.332 c 0,-1.814 0.395,-3.184 1.186,-4.109 0.788,-0.924 2.075,-1.387 3.857,-1.387 1.781,0 3.067,0.463 3.857,1.387 0.789,0.926 1.186,2.295 1.186,4.109 v 25.264 c 0,1.814 -0.396,3.192 -1.186,4.135 -0.79,0.94 -2.076,1.411 -3.857,1.411 -1.782,0 -3.069,-0.471 -3.857,-1.411 -0.791,-0.942 -1.186,-2.32 -1.186,-4.135 z m 2.018,25.264 c 0,1.177 0.233,2.076 0.706,2.697 0.47,0.622 1.242,0.933 2.319,0.933 1.075,0 1.849,-0.311 2.318,-0.933 0.471,-0.621 0.707,-1.521 0.707,-2.697 v -25.264 c 0,-1.176 -0.236,-2.066 -0.707,-2.673 -0.47,-0.604 -1.243,-0.907 -2.318,-0.907 -1.077,0 -1.85,0.303 -2.319,0.907 -0.473,0.606 -0.706,1.497 -0.706,2.673 z"
   clip-path="url(#SVGID_6_-3)"
   inkscape:connector-curvature="0"
   style="fill:#00245b" />

	<polygon
   id="polygon5347"
   points="498.098,222.308 498.098,237.031 503.393,237.031 503.393,238.947 498.098,238.947 498.098,255.639 496.08,255.639 496.08,220.34 504.4,220.34 504.4,222.308 "
   clip-path="url(#SVGID_6_-3)"
   style="fill:#00245b" />

	<path
   id="path5349"
   d="m 516.314,220.341 h 2.017 v 30.255 c 0,1.177 0.235,2.076 0.705,2.698 0.472,0.621 1.245,0.932 2.32,0.932 1.075,0 1.849,-0.311 2.32,-0.932 0.47,-0.622 0.705,-1.521 0.705,-2.698 v -30.255 h 2.018 v 30.255 c 0,1.814 -0.396,3.192 -1.186,4.135 -0.79,0.94 -2.076,1.411 -3.857,1.411 -1.783,0 -3.067,-0.471 -3.856,-1.411 -0.791,-0.942 -1.186,-2.32 -1.186,-4.135 z"
   clip-path="url(#SVGID_6_-3)"
   inkscape:connector-curvature="0"
   style="fill:#00245b" />

	<polygon
   id="polygon5351"
   points="531.391,220.34 541.324,220.34 541.324,222.206 533.155,253.671 541.324,253.671 541.324,255.639 531.139,255.639 531.139,253.772 539.307,222.308 531.391,222.308 "
   clip-path="url(#SVGID_6_-3)"
   style="fill:#00245b" />

	<path
   id="path5353"
   d="m 551.156,220.341 c 1.613,0 2.774,0.428 3.48,1.285 0.705,0.857 1.058,2.092 1.058,3.707 v 8.572 c 0,2.051 -0.673,3.412 -2.016,4.084 1.68,0.673 2.521,2.186 2.521,4.538 v 7.564 c 0,1.815 -0.396,3.194 -1.185,4.133 -0.79,0.942 -2.077,1.413 -3.858,1.413 h -5.043 V 220.34 h 5.043 z m -3.024,1.916 v 14.774 h 3.024 c 1.681,0 2.522,-1.042 2.522,-3.126 v -8.572 c 0,-2.051 -0.842,-3.076 -2.522,-3.076 z m 0,16.69 v 14.774 h 3.024 c 1.076,0 1.849,-0.311 2.321,-0.933 0.469,-0.621 0.705,-1.522 0.705,-2.697 v -7.564 c 0,-1.177 -0.236,-2.067 -0.705,-2.674 -0.473,-0.603 -1.245,-0.906 -2.321,-0.906 z"
   clip-path="url(#SVGID_6_-3)"
   inkscape:connector-curvature="0"
   style="fill:#00245b" />

	<polygon
   id="polygon5355"
   points="569.713,220.34 569.713,222.308 563.41,222.308 563.41,237.031 568.705,237.031 568.705,238.947 563.41,238.947 563.41,253.671 569.713,253.671 569.713,255.639 561.392,255.639 561.392,220.34 "
   clip-path="url(#SVGID_6_-3)"
   style="fill:#00245b" />

	<polygon
   id="polygon5357"
   points="582.521,255.639 576.318,238.896 576.318,255.639 574.301,255.639 574.301,220.341 576.318,220.341 576.318,237.082 582.521,220.341 584.588,220.341 578.033,237.988 584.588,255.639 "
   clip-path="url(#SVGID_6_-3)"
   style="fill:#00245b" />

	<rect
   id="rect5359"
   height="35.298"
   width="2.017"
   clip-path="url(#SVGID_6_-3)"
   y="220.34"
   x="588.31897"
   style="fill:#00245b" />

	<path
   id="path5361"
   d="m 604.303,254.73 c -0.772,0.939 -2.033,1.41 -3.78,1.41 -1.748,0 -3.01,-0.471 -3.783,-1.41 -0.773,-0.941 -1.159,-2.319 -1.159,-4.136 v -5.042 h 2.017 v 5.042 c 0,1.178 0.227,2.076 0.681,2.698 0.454,0.623 1.202,0.933 2.245,0.933 1.041,0 1.789,-0.31 2.242,-0.933 0.455,-0.622 0.681,-1.521 0.681,-2.698 v -6.052 c 0,-0.907 -0.049,-1.646 -0.149,-2.217 -0.101,-0.572 -0.271,-1.042 -0.505,-1.412 -0.236,-0.371 -0.538,-0.681 -0.908,-0.933 -0.37,-0.252 -0.823,-0.529 -1.36,-0.833 -0.774,-0.402 -1.472,-0.772 -2.093,-1.108 -0.622,-0.336 -1.145,-0.757 -1.564,-1.261 -0.42,-0.505 -0.739,-1.168 -0.958,-1.992 -0.219,-0.824 -0.327,-1.942 -0.327,-3.353 v -6.102 c 0,-1.815 0.386,-3.185 1.159,-4.111 0.773,-0.924 2.035,-1.386 3.783,-1.386 1.747,0 3.008,0.462 3.78,1.386 0.773,0.927 1.161,2.296 1.161,4.111 v 5.092 h -2.019 v -5.092 c 0,-1.177 -0.226,-2.068 -0.681,-2.673 -0.453,-0.606 -1.201,-0.908 -2.242,-0.908 -1.043,0 -1.791,0.302 -2.245,0.908 -0.454,0.604 -0.681,1.496 -0.681,2.673 v 6.102 c 0,0.906 0.052,1.647 0.152,2.218 0.101,0.571 0.269,1.043 0.504,1.412 0.234,0.371 0.537,0.681 0.907,0.933 0.369,0.253 0.822,0.53 1.362,0.833 0.772,0.402 1.469,0.773 2.093,1.108 0.62,0.337 1.142,0.757 1.562,1.261 0.419,0.505 0.738,1.169 0.958,1.992 0.218,0.823 0.328,1.94 0.328,3.352 v 6.052 c 0,1.817 -0.388,3.195 -1.161,4.136"
   clip-path="url(#SVGID_6_-3)"
   inkscape:connector-curvature="0"
   style="fill:#00245b" />

	<polygon
   id="polygon5363"
   points="609.145,222.308 609.145,220.341 620.237,220.341 620.237,222.308 615.699,222.308 615.699,255.639 613.682,255.639 613.682,222.308 "
   clip-path="url(#SVGID_6_-3)"
   style="fill:#00245b" />

	<path
   id="path5365"
   d="m 630.322,249.032 h -6.505 l -0.907,6.605 h -2.068 l 5.244,-35.348 h 2.017 l 5.245,35.348 h -2.067 z m -6.202,-1.916 h 5.95 l -1.463,-10.236 -1.512,-11.85 -1.513,11.85 z"
   clip-path="url(#SVGID_6_-3)"
   inkscape:connector-curvature="0"
   style="fill:#00245b" />

	<polygon
   id="polygon5367"
   points="645.7,241.065 645.7,220.341 647.719,220.341 647.719,255.639 645.7,255.639 639.498,228.308 639.65,234.913 639.65,255.639 637.634,255.639 637.634,220.341 639.65,220.341 645.853,247.671 "
   clip-path="url(#SVGID_6_-3)"
   style="fill:#00245b" />

	<path
   id="path5369"
   d="m 274.433,118.593 h 6.726 c 2.376,0 4.092,0.683 5.145,2.051 1.053,1.368 1.581,3.353 1.581,5.952 v 31.008 c 0,2.601 -0.528,4.596 -1.581,5.986 -1.053,1.39 -2.769,2.085 -5.145,2.085 h -6.726 z m 2.691,2.554 v 41.971 h 4.035 c 1.434,0 2.465,-0.48 3.094,-1.446 0.627,-0.963 0.942,-2.319 0.942,-4.068 v -31.008 c 0,-1.749 -0.315,-3.094 -0.942,-4.035 -0.629,-0.942 -1.66,-1.413 -3.094,-1.413 h -4.035 z"
   clip-path="url(#SVGID_6_-3)"
   inkscape:connector-curvature="0"
   style="fill:#00245b" />

	<polygon
   id="polygon5371"
   points="304.497,118.593 304.497,121.215 296.09,121.215 296.09,140.854 303.152,140.854 303.152,143.411 296.09,143.411 296.09,163.052 304.497,163.052 304.497,165.675 293.399,165.675 293.399,118.593 "
   clip-path="url(#SVGID_6_-3)"
   style="fill:#00245b" />

	<polygon
   id="polygon5373"
   points="310.013,118.592 313.577,143.612 315.595,159.42 317.612,143.612 321.178,118.592 323.935,118.592 316.94,165.741 314.25,165.741 307.255,118.592 "
   clip-path="url(#SVGID_6_-3)"
   style="fill:#00245b" />

	<polygon
   id="polygon5375"
   points="338.8,118.593 338.8,121.215 330.393,121.215 330.393,140.854 337.454,140.854 337.454,143.411 330.393,143.411 330.393,163.052 338.8,163.052 338.8,165.675 327.701,165.675 327.701,118.593 "
   clip-path="url(#SVGID_6_-3)"
   style="fill:#00245b" />

	<polygon
   id="polygon5377"
   points="354.202,163.052 354.202,165.675 343.441,165.675 343.441,118.592 346.131,118.592 346.131,163.052 "
   clip-path="url(#SVGID_6_-3)"
   style="fill:#00245b" />

	<path
   id="path5379"
   d="m 357.834,125.251 c 0,-2.421 0.526,-4.248 1.58,-5.482 1.052,-1.232 2.768,-1.85 5.144,-1.85 2.377,0 4.092,0.618 5.147,1.85 1.052,1.234 1.58,3.061 1.58,5.482 v 33.697 c 0,2.421 -0.528,4.261 -1.58,5.515 -1.055,1.255 -2.77,1.884 -5.147,1.884 -2.376,0 -4.092,-0.629 -5.144,-1.884 -1.054,-1.254 -1.58,-3.094 -1.58,-5.515 z m 2.689,33.697 c 0,1.569 0.313,2.77 0.941,3.598 0.628,0.831 1.66,1.245 3.094,1.245 1.436,0 2.467,-0.414 3.095,-1.245 0.627,-0.828 0.941,-2.028 0.941,-3.598 v -33.697 c 0,-1.57 -0.314,-2.758 -0.941,-3.565 -0.628,-0.807 -1.659,-1.211 -3.095,-1.211 -1.434,0 -2.466,0.404 -3.094,1.211 -0.628,0.807 -0.941,1.995 -0.941,3.565 z"
   clip-path="url(#SVGID_6_-3)"
   inkscape:connector-curvature="0"
   style="fill:#00245b" />

	<path
   id="path5381"
   d="m 376.801,118.593 h 6.725 c 2.377,0 4.091,0.683 5.146,2.051 1.052,1.368 1.581,3.353 1.581,5.952 v 13.991 c 0,2.601 -0.529,4.597 -1.581,5.986 -1.055,1.391 -2.769,2.085 -5.146,2.085 h -4.036 v 17.018 h -2.689 z m 2.689,2.554 v 24.954 h 4.036 c 1.435,0 2.466,-0.482 3.094,-1.446 0.628,-0.964 0.941,-2.321 0.941,-4.069 v -13.991 c 0,-1.749 -0.313,-3.094 -0.941,-4.035 -0.628,-0.942 -1.659,-1.413 -3.094,-1.413 z"
   clip-path="url(#SVGID_6_-3)"
   inkscape:connector-curvature="0"
   style="fill:#00245b" />

	<polygon
   id="polygon5383"
   points="397.854,135.34 397.854,165.675 395.162,165.675 395.162,118.592 397.854,118.592 402.763,140.25 404.781,153.298 406.798,140.25 411.708,118.592 414.398,118.592 414.398,165.675 411.708,165.675 411.708,135.34 412.044,126.529 406.126,156.863 403.436,156.863 397.517,126.529 "
   clip-path="url(#SVGID_6_-3)"
   style="fill:#00245b" />

	<polygon
   id="polygon5385"
   points="431.146,118.593 431.146,121.215 422.738,121.215 422.738,140.854 429.801,140.854 429.801,143.411 422.738,143.411 422.738,163.052 431.146,163.052 431.146,165.675 420.049,165.675 420.049,118.593 "
   clip-path="url(#SVGID_6_-3)"
   style="fill:#00245b" />

	<polygon
   id="polygon5387"
   points="446.55,146.236 446.55,118.592 449.239,118.592 449.239,165.675 446.55,165.675 438.275,129.218 438.479,138.03 438.479,165.675 435.787,165.675 435.787,118.592 438.479,118.592 446.751,155.048 "
   clip-path="url(#SVGID_6_-3)"
   style="fill:#00245b" />

	<polygon
   id="polygon5389"
   points="453.005,121.215 453.005,118.592 467.802,118.592 467.802,121.215 461.749,121.215 461.749,165.675 459.059,165.675 459.059,121.215 "
   clip-path="url(#SVGID_6_-3)"
   style="fill:#00245b" />

	<polygon
   id="polygon5391"
   points="484.886,121.215 484.886,140.854 491.948,140.854 491.948,143.411 484.886,143.411 484.886,165.675 482.195,165.675 482.195,118.593 493.293,118.593 493.293,121.215 "
   clip-path="url(#SVGID_6_-3)"
   style="fill:#00245b" />

	<path
   id="path5393"
   d="m 497.8,125.251 c 0,-2.421 0.526,-4.248 1.581,-5.482 1.053,-1.232 2.768,-1.85 5.146,-1.85 2.376,0 4.091,0.618 5.146,1.85 1.053,1.234 1.58,3.061 1.58,5.482 v 33.697 c 0,2.421 -0.527,4.261 -1.58,5.515 -1.055,1.255 -2.77,1.884 -5.146,1.884 -2.378,0 -4.093,-0.629 -5.146,-1.884 -1.055,-1.254 -1.581,-3.094 -1.581,-5.515 z m 2.69,33.697 c 0,1.569 0.312,2.77 0.942,3.598 0.626,0.831 1.657,1.245 3.094,1.245 1.434,0 2.465,-0.414 3.094,-1.245 0.628,-0.828 0.941,-2.028 0.941,-3.598 v -33.697 c 0,-1.57 -0.313,-2.758 -0.941,-3.565 -0.629,-0.807 -1.66,-1.211 -3.094,-1.211 -1.437,0 -2.468,0.404 -3.094,1.211 -0.63,0.807 -0.942,1.995 -0.942,3.565 z"
   clip-path="url(#SVGID_6_-3)"
   inkscape:connector-curvature="0"
   style="fill:#00245b" />

	<path
   id="path5395"
   d="m 516.699,118.592 h 2.689 v 40.355 c 0,1.57 0.313,2.771 0.942,3.6 0.627,0.829 1.658,1.243 3.095,1.243 1.434,0 2.463,-0.414 3.094,-1.243 0.626,-0.829 0.941,-2.029 0.941,-3.6 v -40.355 h 2.689 v 40.355 c 0,2.422 -0.527,4.261 -1.579,5.517 -1.055,1.254 -2.771,1.883 -5.146,1.883 -2.379,0 -4.093,-0.629 -5.146,-1.883 -1.054,-1.256 -1.58,-3.095 -1.58,-5.517 v -40.355 z"
   clip-path="url(#SVGID_6_-3)"
   inkscape:connector-curvature="0"
   style="fill:#00245b" />

	<polygon
   id="polygon5397"
   points="546.495,146.236 546.495,118.592 549.184,118.592 549.184,165.675 546.495,165.675 538.221,129.218 538.424,138.03 538.424,165.675 535.732,165.675 535.732,118.592 538.424,118.592 546.696,155.048 "
   clip-path="url(#SVGID_6_-3)"
   style="fill:#00245b" />

	<path
   id="path5399"
   d="m 554.835,118.593 h 6.725 c 2.377,0 4.092,0.683 5.146,2.051 1.054,1.368 1.581,3.353 1.581,5.952 v 31.008 c 0,2.601 -0.527,4.596 -1.581,5.986 -1.054,1.39 -2.769,2.085 -5.146,2.085 h -6.725 z m 2.689,2.554 v 41.971 h 4.035 c 1.436,0 2.466,-0.48 3.094,-1.446 0.628,-0.963 0.942,-2.319 0.942,-4.068 v -31.008 c 0,-1.749 -0.314,-3.094 -0.942,-4.035 -0.628,-0.942 -1.658,-1.413 -3.094,-1.413 h -4.035 z"
   clip-path="url(#SVGID_6_-3)"
   inkscape:connector-curvature="0"
   style="fill:#00245b" />

	<path
   id="path5401"
   d="m 585.032,156.863 h -8.677 l -1.21,8.812 h -2.758 l 6.995,-47.15 h 2.69 l 6.995,47.15 h -2.758 z m -8.272,-2.556 h 7.938 l -1.951,-13.653 -2.019,-15.807 -2.018,15.807 z"
   clip-path="url(#SVGID_6_-3)"
   inkscape:connector-curvature="0"
   style="fill:#00245b" />

	<polygon
   id="polygon5403"
   points="588.396,121.215 588.396,118.592 603.192,118.592 603.192,121.215 597.14,121.215 597.14,165.675 594.448,165.675 594.448,121.215 "
   clip-path="url(#SVGID_6_-3)"
   style="fill:#00245b" />

	<rect
   id="rect5405"
   height="47.082001"
   width="2.6889999"
   clip-path="url(#SVGID_6_-3)"
   y="118.592"
   x="607.026"
   style="fill:#00245b" />

	<path
   id="path5407"
   d="m 615.301,125.251 c 0,-2.421 0.525,-4.248 1.579,-5.482 1.053,-1.232 2.768,-1.85 5.145,-1.85 2.377,0 4.092,0.618 5.146,1.85 1.053,1.234 1.58,3.061 1.58,5.482 v 33.697 c 0,2.421 -0.527,4.261 -1.58,5.515 -1.055,1.255 -2.77,1.884 -5.146,1.884 -2.376,0 -4.092,-0.629 -5.145,-1.884 -1.054,-1.254 -1.579,-3.094 -1.579,-5.515 z m 2.688,33.697 c 0,1.569 0.313,2.77 0.941,3.598 0.628,0.831 1.659,1.245 3.094,1.245 1.436,0 2.467,-0.414 3.094,-1.245 0.628,-0.828 0.942,-2.028 0.942,-3.598 v -33.697 c 0,-1.57 -0.314,-2.758 -0.942,-3.565 -0.627,-0.807 -1.658,-1.211 -3.094,-1.211 -1.435,0 -2.466,0.404 -3.094,1.211 -0.628,0.807 -0.941,1.995 -0.941,3.565 z"
   clip-path="url(#SVGID_6_-3)"
   inkscape:connector-curvature="0"
   style="fill:#00245b" />

	<polygon
   id="polygon5409"
   points="645.027,146.236 645.027,118.592 647.719,118.592 647.719,165.675 645.027,165.675 636.755,129.218 636.956,138.03 636.956,165.675 634.267,165.675 634.267,118.592 636.956,118.592 645.229,155.048 "
   clip-path="url(#SVGID_6_-3)"
   style="fill:#00245b" />

	<path
   id="path5411"
   d="m 274.433,175.267 h 2.017 v 30.25 c 0,1.178 0.235,2.076 0.705,2.697 0.47,0.622 1.244,0.934 2.319,0.934 1.075,0 1.849,-0.312 2.32,-0.934 0.47,-0.621 0.705,-1.52 0.705,-2.697 v -30.25 h 2.018 v 30.25 c 0,1.814 -0.396,3.193 -1.186,4.136 -0.79,0.938 -2.075,1.411 -3.857,1.411 -1.782,0 -3.067,-0.473 -3.857,-1.411 -0.789,-0.942 -1.184,-2.321 -1.184,-4.136 z"
   clip-path="url(#SVGID_6_-3)"
   inkscape:connector-curvature="0"
   style="fill:#00245b" />

	<polygon
   id="polygon5413"
   points="297.624,195.988 297.624,175.267 299.642,175.267 299.642,210.56 297.624,210.56 291.423,183.231 291.574,189.837 291.574,210.56 289.558,210.56 289.558,175.267 291.574,175.267 297.775,202.594 "
   clip-path="url(#SVGID_6_-3)"
   style="fill:#00245b" />

	<path
   id="path5415"
   d="m 304.733,175.267 h 5.041 c 1.782,0 3.068,0.513 3.858,1.538 0.79,1.024 1.185,2.513 1.185,4.461 v 23.243 c 0,1.948 -0.395,3.444 -1.185,4.486 -0.79,1.042 -2.076,1.564 -3.858,1.564 h -5.041 z m 2.017,1.916 v 31.461 h 3.024 c 1.076,0 1.849,-0.361 2.321,-1.084 0.469,-0.724 0.705,-1.74 0.705,-3.051 v -23.243 c 0,-1.311 -0.236,-2.318 -0.705,-3.024 -0.472,-0.706 -1.245,-1.059 -2.321,-1.059 z"
   clip-path="url(#SVGID_6_-3)"
   inkscape:connector-curvature="0"
   style="fill:#00245b" />

	<polygon
   id="polygon5417"
   points="328.127,175.267 328.127,177.232 321.824,177.232 321.824,191.955 327.118,191.955 327.118,193.87 321.824,193.87 321.824,208.594 328.127,208.594 328.127,210.56 319.807,210.56 319.807,175.267 "
   clip-path="url(#SVGID_6_-3)"
   style="fill:#00245b" />

	<path
   id="path5419"
   d="m 332.462,175.267 h 4.789 c 1.782,0 3.067,0.513 3.857,1.538 0.79,1.024 1.185,2.513 1.185,4.461 v 8.521 c 0,1.648 -0.277,2.967 -0.832,3.958 -0.554,0.992 -1.436,1.64 -2.647,1.941 l 4.437,14.874 h -2.067 l -4.436,-14.724 h -2.269 v 14.724 h -2.017 z m 2.017,1.916 v 16.737 h 2.772 c 1.076,0 1.849,-0.359 2.319,-1.083 0.471,-0.723 0.708,-1.739 0.708,-3.051 v -8.521 c 0,-1.311 -0.237,-2.318 -0.708,-3.024 -0.47,-0.706 -1.243,-1.059 -2.319,-1.059 h -2.772 z"
   clip-path="url(#SVGID_6_-3)"
   inkscape:connector-curvature="0"
   style="fill:#00245b" />

	<polygon
   id="polygon5421"
   points="354.646,177.232 354.646,175.267 365.737,175.267 365.737,177.232 361.201,177.232 361.201,210.56 359.183,210.56 359.183,177.232 "
   clip-path="url(#SVGID_6_-3)"
   style="fill:#00245b" />

	<polygon
   id="polygon5423"
   points="377.485,210.56 377.485,193.87 371.435,193.87 371.435,210.56 369.417,210.56 369.417,175.267 371.435,175.267 371.435,191.954 377.485,191.954 377.485,175.267 379.502,175.267 379.502,210.56 "
   clip-path="url(#SVGID_6_-3)"
   style="fill:#00245b" />

	<polygon
   id="polygon5425"
   points="392.912,175.267 392.912,177.232 386.609,177.232 386.609,191.955 391.902,191.955 391.902,193.87 386.609,193.87 386.609,208.594 392.912,208.594 392.912,210.56 384.593,210.56 384.593,175.267 "
   clip-path="url(#SVGID_6_-3)"
   style="fill:#00245b" />

	<polygon
   id="polygon5427"
   points="408.088,187.819 408.088,210.559 406.07,210.559 406.07,175.267 408.088,175.267 411.768,191.501 413.28,201.282 414.793,191.501 418.474,175.267 420.49,175.267 420.49,210.559 418.474,210.559 418.474,187.819 418.727,181.215 414.289,203.954 412.271,203.954 407.835,181.215 "
   clip-path="url(#SVGID_6_-3)"
   style="fill:#00245b" />

	<rect
   id="rect5429"
   height="35.292999"
   width="2.0190001"
   clip-path="url(#SVGID_6_-3)"
   y="175.26601"
   x="425.63199"
   style="fill:#00245b" />

	<polygon
   id="polygon5431"
   points="440.859,195.988 440.859,175.267 442.876,175.267 442.876,210.56 440.859,210.56 434.658,183.231 434.81,189.837 434.81,210.56 432.792,210.56 432.792,175.267 434.81,175.267 441.012,202.594 "
   clip-path="url(#SVGID_6_-3)"
   style="fill:#00245b" />

	<rect
   id="rect5433"
   height="35.292999"
   width="2.0190001"
   clip-path="url(#SVGID_6_-3)"
   y="175.26601"
   x="448.017"
   style="fill:#00245b" />

	<path
   id="path5435"
   d="m 463.748,209.652 c -0.772,0.938 -2.033,1.411 -3.78,1.411 -1.748,0 -3.009,-0.473 -3.782,-1.411 -0.773,-0.941 -1.159,-2.32 -1.159,-4.136 v -5.041 h 2.017 v 5.041 c 0,1.178 0.226,2.075 0.68,2.698 0.455,0.622 1.202,0.933 2.245,0.933 1.041,0 1.789,-0.311 2.242,-0.933 0.455,-0.623 0.681,-1.521 0.681,-2.698 v -6.051 c 0,-0.907 -0.049,-1.646 -0.15,-2.218 -0.101,-0.57 -0.27,-1.041 -0.504,-1.412 -0.236,-0.369 -0.539,-0.68 -0.908,-0.932 -0.37,-0.252 -0.823,-0.529 -1.36,-0.833 -0.774,-0.402 -1.472,-0.772 -2.093,-1.108 -0.622,-0.336 -1.145,-0.757 -1.564,-1.26 -0.419,-0.505 -0.738,-1.169 -0.957,-1.992 -0.219,-0.824 -0.327,-1.942 -0.327,-3.353 v -6.102 c 0,-1.814 0.386,-3.183 1.159,-4.108 0.773,-0.925 2.034,-1.387 3.782,-1.387 1.747,0 3.008,0.462 3.78,1.387 0.773,0.926 1.16,2.294 1.16,4.108 v 5.093 h -2.018 v -5.093 c 0,-1.176 -0.226,-2.065 -0.681,-2.672 -0.453,-0.604 -1.201,-0.908 -2.242,-0.908 -1.043,0 -1.79,0.304 -2.245,0.908 -0.454,0.606 -0.68,1.496 -0.68,2.672 v 6.102 c 0,0.907 0.051,1.647 0.152,2.218 0.101,0.572 0.269,1.043 0.503,1.412 0.235,0.371 0.537,0.681 0.907,0.933 0.37,0.252 0.823,0.53 1.362,0.832 0.772,0.403 1.469,0.773 2.093,1.109 0.62,0.337 1.142,0.756 1.562,1.26 0.42,0.505 0.739,1.169 0.958,1.992 0.219,0.825 0.328,1.94 0.328,3.352 v 6.051 c -10e-4,1.816 -0.388,3.195 -1.161,4.136"
   clip-path="url(#SVGID_6_-3)"
   inkscape:connector-curvature="0"
   style="fill:#00245b" />

	<polygon
   id="polygon5437"
   points="468.336,177.232 468.336,175.267 479.429,175.267 479.429,177.232 474.891,177.232 474.891,210.56 472.874,210.56 472.874,177.232 "
   clip-path="url(#SVGID_6_-3)"
   style="fill:#00245b" />

	<path
   id="path5439"
   d="m 483.109,175.267 h 4.789 c 1.781,0 3.066,0.513 3.856,1.538 0.79,1.024 1.186,2.513 1.186,4.461 v 8.521 c 0,1.648 -0.277,2.967 -0.832,3.958 -0.556,0.992 -1.438,1.64 -2.647,1.941 l 4.438,14.874 h -2.067 l -4.437,-14.724 h -2.27 v 14.724 h -2.016 z m 2.016,1.916 v 16.737 h 2.773 c 1.075,0 1.849,-0.359 2.318,-1.083 0.471,-0.723 0.707,-1.739 0.707,-3.051 v -8.521 c 0,-1.311 -0.236,-2.318 -0.707,-3.024 -0.47,-0.706 -1.243,-1.059 -2.318,-1.059 h -2.773 z"
   clip-path="url(#SVGID_6_-3)"
   inkscape:connector-curvature="0"
   style="fill:#00245b" />

	<polygon
   id="polygon5441"
   points="498.637,175.267 502.015,189.383 502.974,195.03 503.932,189.383 507.359,175.267 509.377,175.267 503.98,197.248 503.98,210.56 501.965,210.56 501.965,197.248 496.62,175.267 "
   clip-path="url(#SVGID_6_-3)"
   style="fill:#00245b" />

	<path
   id="path5443"
   d="m 521.929,180.258 c 0,-1.816 0.396,-3.185 1.186,-4.11 0.788,-0.924 2.074,-1.386 3.854,-1.386 1.782,0 3.069,0.462 3.859,1.386 0.789,0.926 1.184,2.294 1.184,4.11 v 25.259 c 0,1.815 -0.395,3.194 -1.184,4.135 -0.79,0.94 -2.077,1.411 -3.859,1.411 -1.78,0 -3.066,-0.471 -3.854,-1.411 -0.79,-0.94 -1.186,-2.319 -1.186,-4.135 z m 2.017,25.259 c 0,1.177 0.234,2.076 0.705,2.698 0.47,0.622 1.243,0.932 2.317,0.932 1.078,0 1.85,-0.31 2.321,-0.932 0.47,-0.622 0.706,-1.521 0.706,-2.698 v -25.259 c 0,-1.177 -0.236,-2.067 -0.706,-2.673 -0.472,-0.605 -1.243,-0.907 -2.321,-0.907 -1.074,0 -1.848,0.302 -2.317,0.907 -0.471,0.605 -0.705,1.496 -0.705,2.673 z"
   clip-path="url(#SVGID_6_-3)"
   inkscape:connector-curvature="0"
   style="fill:#00245b" />

	<polygon
   id="polygon5445"
   points="539.02,177.232 539.02,191.955 544.313,191.955 544.313,193.87 539.02,193.87 539.02,210.56 537.003,210.56 537.003,175.267 545.321,175.267 545.321,177.232 "
   clip-path="url(#SVGID_6_-3)"
   style="fill:#00245b" />

	<path
   id="path5447"
   d="m 568.463,205.517 c 0,1.815 -0.395,3.194 -1.184,4.135 -0.79,0.94 -2.076,1.411 -3.857,1.411 -1.782,0 -3.067,-0.471 -3.857,-1.411 -0.79,-0.94 -1.184,-2.319 -1.184,-4.135 v -25.259 c 0,-1.816 0.394,-3.185 1.184,-4.11 0.79,-0.924 2.075,-1.386 3.857,-1.386 1.781,0 3.067,0.462 3.857,1.386 0.789,0.926 1.184,2.294 1.184,4.11 v 5.092 h -2.017 v -5.092 c 0,-1.177 -0.234,-2.067 -0.705,-2.673 -0.472,-0.605 -1.244,-0.907 -2.319,-0.907 -1.075,0 -1.849,0.302 -2.319,0.907 -0.47,0.605 -0.705,1.496 -0.705,2.673 v 25.259 c 0,1.177 0.234,2.076 0.705,2.698 0.471,0.622 1.244,0.932 2.319,0.932 1.075,0 1.848,-0.31 2.319,-0.932 0.471,-0.622 0.705,-1.521 0.705,-2.698 v -5.041 h 2.017 z"
   clip-path="url(#SVGID_6_-3)"
   inkscape:connector-curvature="0"
   style="fill:#00245b" />

	<path
   id="path5449"
   d="m 572.597,175.267 h 2.018 v 30.25 c 0,1.178 0.233,2.076 0.706,2.697 0.47,0.622 1.242,0.934 2.318,0.934 1.075,0 1.849,-0.312 2.319,-0.934 0.471,-0.621 0.707,-1.52 0.707,-2.697 v -30.25 h 2.017 v 30.25 c 0,1.814 -0.396,3.193 -1.186,4.136 -0.79,0.938 -2.076,1.411 -3.857,1.411 -1.781,0 -3.067,-0.473 -3.855,-1.411 -0.791,-0.942 -1.187,-2.321 -1.187,-4.136 z"
   clip-path="url(#SVGID_6_-3)"
   inkscape:connector-curvature="0"
   style="fill:#00245b" />

	<polygon
   id="polygon5451"
   points="595.789,208.593 595.789,210.56 587.723,210.56 587.723,175.267 589.74,175.267 589.74,208.593 "
   clip-path="url(#SVGID_6_-3)"
   style="fill:#00245b" />

	<polygon
   id="polygon5453"
   points="594.782,177.232 594.782,175.267 605.874,175.267 605.874,177.232 601.336,177.232 601.336,210.56 599.318,210.56 599.318,177.232 "
   clip-path="url(#SVGID_6_-3)"
   style="fill:#00245b" />

	<path
   id="path5455"
   d="m 609.504,175.267 h 2.017 v 30.25 c 0,1.178 0.235,2.076 0.705,2.697 0.471,0.622 1.244,0.934 2.319,0.934 1.075,0 1.849,-0.312 2.32,-0.934 0.47,-0.621 0.705,-1.52 0.705,-2.697 v -30.25 h 2.018 v 30.25 c 0,1.814 -0.396,3.193 -1.186,4.136 -0.79,0.938 -2.076,1.411 -3.857,1.411 -1.782,0 -3.067,-0.473 -3.857,-1.411 -0.79,-0.942 -1.184,-2.321 -1.184,-4.136 z"
   clip-path="url(#SVGID_6_-3)"
   inkscape:connector-curvature="0"
   style="fill:#00245b" />

	<path
   id="path5457"
   d="m 624.629,175.267 h 4.789 c 1.781,0 3.066,0.513 3.856,1.538 0.79,1.024 1.185,2.513 1.185,4.461 v 8.521 c 0,1.648 -0.276,2.967 -0.831,3.958 -0.556,0.992 -1.437,1.64 -2.647,1.941 l 4.438,14.874 h -2.067 l -4.437,-14.724 h -2.269 v 14.724 h -2.017 z m 2.017,1.916 v 16.737 h 2.772 c 1.075,0 1.849,-0.359 2.318,-1.083 0.471,-0.723 0.707,-1.739 0.707,-3.051 v -8.521 c 0,-1.311 -0.236,-2.318 -0.707,-3.024 -0.47,-0.706 -1.243,-1.059 -2.318,-1.059 h -2.772 z"
   clip-path="url(#SVGID_6_-3)"
   inkscape:connector-curvature="0"
   style="fill:#00245b" />

	<polygon
   id="polygon5459"
   points="647.719,175.267 647.719,177.232 641.416,177.232 641.416,191.955 646.71,191.955 646.71,193.87 641.416,193.87 641.416,208.594 647.719,208.594 647.719,210.56 639.399,210.56 639.399,175.267 "
   clip-path="url(#SVGID_6_-3)"
   style="fill:#00245b" />

	<path
   id="path5461"
   d="m 294.957,94.662 h -13.441 l -1.876,13.649 h -4.271 L 286.204,35.27 h 4.168 l 10.836,73.041 h -4.271 z m -12.816,-3.96 h 12.295 L 291.414,69.55 288.289,45.064 285.162,69.55 Z"
   stroke-miterlimit="10"
   clip-path="url(#SVGID_6_-3)"
   inkscape:connector-curvature="0"
   style="fill:none;stroke:#00245b;stroke-width:1.43799996;stroke-miterlimit:10" />

	<path
   id="path5463"
   d="m 308.631,35.375 h 9.897 c 3.682,0 6.338,1.059 7.971,3.177 1.632,2.12 2.449,5.194 2.449,9.222 v 17.609 c 0,3.404 -0.573,6.132 -1.718,8.179 -1.148,2.05 -2.97,3.387 -5.471,4.011 l 9.169,30.739 h -4.272 l -9.17,-30.426 h -4.688 v 30.426 h -4.167 z m 4.167,3.958 v 34.593 h 5.73 c 2.223,0 3.821,-0.745 4.793,-2.24 0.973,-1.493 1.459,-3.595 1.459,-6.304 V 47.774 c 0,-2.71 -0.486,-4.793 -1.459,-6.252 -0.972,-1.458 -2.57,-2.188 -4.793,-2.188 h -5.73 z"
   stroke-miterlimit="10"
   clip-path="url(#SVGID_6_-3)"
   inkscape:connector-curvature="0"
   style="fill:none;stroke:#00245b;stroke-width:1.43799996;stroke-miterlimit:10" />

	<polygon
   id="polygon5465"
   points="333.636,39.437 333.636,35.374 356.56,35.374 356.56,39.437 347.182,39.437 347.182,108.311 343.014,108.311 343.014,39.437 "
   stroke-miterlimit="10"
   clip-path="url(#SVGID_6_-3)"
   style="fill:none;stroke:#00245b;stroke-width:1.43799996;stroke-miterlimit:10" />

	<path
   id="path5467"
   d="m 387.824,94.662 h -13.441 l -1.876,13.649 h -4.271 L 379.071,35.27 h 4.169 l 10.835,73.041 h -4.271 z m -12.816,-3.96 h 12.296 L 384.281,69.55 381.156,45.064 378.029,69.55 Z"
   stroke-miterlimit="10"
   clip-path="url(#SVGID_6_-3)"
   inkscape:connector-curvature="0"
   style="fill:none;stroke:#00245b;stroke-width:1.43799996;stroke-miterlimit:10" />

	<polygon
   id="polygon5469"
   points="416.478,78.199 416.478,35.374 420.646,35.374 420.646,108.311 416.478,108.311 403.661,51.837 403.975,65.486 403.975,108.311 399.807,108.311 399.807,35.374 403.975,35.374 416.79,91.848 "
   stroke-miterlimit="10"
   clip-path="url(#SVGID_6_-3)"
   style="fill:none;stroke:#00245b;stroke-width:1.43799996;stroke-miterlimit:10" />

	<path
   id="path5471"
   d="m 428.562,35.375 h 10.419 c 3.682,0 6.339,1.059 7.971,3.177 1.632,2.12 2.449,5.194 2.449,9.222 v 48.034 c 0,4.029 -0.817,7.121 -2.449,9.273 -1.632,2.154 -4.289,3.231 -7.971,3.231 h -10.419 z m 4.168,3.958 v 65.018 h 6.251 c 2.224,0 3.82,-0.746 4.794,-2.241 0.972,-1.492 1.458,-3.594 1.458,-6.303 V 47.774 c 0,-2.71 -0.486,-4.793 -1.458,-6.252 -0.974,-1.458 -2.57,-2.188 -4.794,-2.188 h -6.251 z"
   stroke-miterlimit="10"
   clip-path="url(#SVGID_6_-3)"
   inkscape:connector-curvature="0"
   style="fill:none;stroke:#00245b;stroke-width:1.43799996;stroke-miterlimit:10" />

	<path
   id="path5473"
   d="m 488.297,97.892 c 0,3.75 -0.817,6.6 -2.449,8.544 -1.633,1.944 -4.289,2.917 -7.97,2.917 -3.684,0 -6.34,-0.973 -7.971,-2.917 -1.634,-1.944 -2.449,-4.794 -2.449,-8.544 V 45.69 c 0,-3.751 0.815,-6.58 2.449,-8.491 1.631,-1.911 4.287,-2.866 7.971,-2.866 3.681,0 6.337,0.955 7.97,2.866 1.632,1.911 2.449,4.74 2.449,8.491 v 10.524 h -4.168 V 45.69 c 0,-2.431 -0.486,-4.272 -1.459,-5.522 -0.973,-1.251 -2.57,-1.876 -4.792,-1.876 -2.225,0 -3.821,0.625 -4.794,1.876 -0.973,1.25 -1.458,3.091 -1.458,5.522 v 52.202 c 0,2.432 0.485,4.29 1.458,5.574 0.973,1.286 2.569,1.928 4.794,1.928 2.222,0 3.819,-0.642 4.792,-1.928 0.973,-1.284 1.459,-3.142 1.459,-5.574 v -10.42 h 4.168 z"
   stroke-miterlimit="10"
   clip-path="url(#SVGID_6_-3)"
   inkscape:connector-curvature="0"
   style="fill:none;stroke:#00245b;stroke-width:1.43799996;stroke-miterlimit:10" />

	<path
   id="path5475"
   d="m 495.927,35.374 h 4.167 v 62.518 c 0,2.432 0.486,4.29 1.459,5.574 0.973,1.286 2.569,1.928 4.794,1.928 2.222,0 3.818,-0.642 4.792,-1.928 0.973,-1.284 1.459,-3.142 1.459,-5.574 V 35.374 h 4.169 v 62.518 c 0,3.75 -0.817,6.599 -2.449,8.544 -1.634,1.944 -4.29,2.917 -7.971,2.917 -3.684,0 -6.34,-0.973 -7.972,-2.917 -1.633,-1.945 -2.448,-4.794 -2.448,-8.544 z"
   stroke-miterlimit="10"
   clip-path="url(#SVGID_6_-3)"
   inkscape:connector-curvature="0"
   style="fill:none;stroke:#00245b;stroke-width:1.43799996;stroke-miterlimit:10" />

	<polygon
   id="polygon5477"
   points="541.25,104.248 541.25,108.311 524.579,108.311 524.579,35.374 528.746,35.374 528.746,104.248 "
   stroke-miterlimit="10"
   clip-path="url(#SVGID_6_-3)"
   style="fill:none;stroke:#00245b;stroke-width:1.43799996;stroke-miterlimit:10" />

	<polygon
   id="polygon5479"
   points="538.253,39.437 538.253,35.374 561.176,35.374 561.176,39.437 551.798,39.437 551.798,108.311 547.631,108.311 547.631,39.437 "
   stroke-miterlimit="10"
   clip-path="url(#SVGID_6_-3)"
   style="fill:none;stroke:#00245b;stroke-width:1.43799996;stroke-miterlimit:10" />

	<path
   id="path5481"
   d="m 567.762,35.374 h 4.169 v 62.518 c 0,2.432 0.484,4.29 1.459,5.574 0.971,1.286 2.568,1.928 4.792,1.928 2.224,0 3.82,-0.642 4.794,-1.928 0.972,-1.284 1.458,-3.142 1.458,-5.574 V 35.374 h 4.168 v 62.518 c 0,3.75 -0.818,6.599 -2.449,8.544 -1.632,1.944 -4.29,2.917 -7.971,2.917 -3.682,0 -6.34,-0.973 -7.971,-2.917 -1.633,-1.945 -2.449,-4.794 -2.449,-8.544 z"
   stroke-miterlimit="10"
   clip-path="url(#SVGID_6_-3)"
   inkscape:connector-curvature="0"
   style="fill:none;stroke:#00245b;stroke-width:1.43799996;stroke-miterlimit:10" />

	<path
   id="path5483"
   d="m 598.105,35.375 h 9.898 c 3.681,0 6.338,1.059 7.972,3.177 1.631,2.12 2.448,5.194 2.448,9.222 v 17.609 c 0,3.404 -0.573,6.132 -1.72,8.179 -1.146,2.05 -2.97,3.387 -5.471,4.011 l 9.17,30.739 h -4.272 l -9.169,-30.426 h -4.689 v 30.426 h -4.167 z m 4.167,3.958 v 34.593 h 5.731 c 2.223,0 3.819,-0.745 4.793,-2.24 0.972,-1.493 1.458,-3.595 1.458,-6.304 V 47.774 c 0,-2.71 -0.486,-4.793 -1.458,-6.252 -0.974,-1.458 -2.57,-2.188 -4.793,-2.188 h -5.731 z"
   stroke-miterlimit="10"
   clip-path="url(#SVGID_6_-3)"
   inkscape:connector-curvature="0"
   style="fill:none;stroke:#00245b;stroke-width:1.43799996;stroke-miterlimit:10" />

	<polygon
   id="polygon5485"
   points="646.603,35.375 646.603,39.438 633.578,39.438 633.578,69.863 644.519,69.863 644.519,73.823 633.578,73.823 633.578,104.248 646.603,104.248 646.603,108.312 629.411,108.312 629.411,35.375 "
   stroke-miterlimit="10"
   clip-path="url(#SVGID_6_-3)"
   style="fill:none;stroke:#00245b;stroke-width:1.43799996;stroke-miterlimit:10" />

</g>
    </g>
  </g>
</svg>
