<?xml version="1.0" encoding="iso-8859-1"?>
<!-- Generator: Adobe Illustrator 17.1.0, SVG Export Plug-In . SVG Version: 6.00 Build 0)  -->
<!DOCTYPE svg PUBLIC "-//W3C//DTD SVG 1.1//EN" "http://www.w3.org/Graphics/SVG/1.1/DTD/svg11.dtd">
<svg version="1.1" id="Layer_1" xmlns="http://www.w3.org/2000/svg" xmlns:xlink="http://www.w3.org/1999/xlink" x="0px" y="0px"
	 viewBox="0 0 376.665 59.177" style="enable-background:new 0 0 376.665 59.177;" xml:space="preserve" width='320' height='100'>
<g>
	<path style="fill-rule:evenodd;clip-rule:evenodd;fill:#1B1B1B;" d="M257.305,14.046h1.952l1.479-3.564h6.35l1.479,3.564h2.066
		l-5.534-13.685h-2.028L257.305,14.046L257.305,14.046z M261.342,8.947l2.654-6.71l2.521,6.71H261.342L261.342,8.947z
		 M272.544,14.046h1.801V8.985c0-1.991,0.796-2.882,2.559-2.882c0.341,0,0.549,0.02,0.891,0.095V4.454
		c-0.247-0.019-0.361-0.019-0.531-0.019c-1.573,0-2.654,0.702-2.976,1.934L274.25,4.53h-1.8c0.057,0.493,0.057,0.645,0.076,1.252
		c0,0.265,0.019,0.492,0.019,0.682V14.046L272.544,14.046z M278.402,5.858h1.687v6.293c0,1.459,0.682,2.028,2.408,2.028
		c0.36,0,0.777-0.038,1.157-0.076c0.076,0,0.17-0.019,0.321-0.038v-1.384c-0.36,0.076-0.606,0.095-0.853,0.095
		c-0.947,0-1.27-0.399-1.27-1.271V5.858h2.123V4.53h-2.123V1.934l-1.763,0.568V4.53h-1.687V5.858L278.402,5.858z M301.055,5.175
		c0,1.63-0.152,3.109-1.005,4.531l-3.355-3.317c0.91-0.606,1.175-0.816,1.668-1.346c0.607-0.682,0.986-1.516,0.986-2.331
		c0-0.72-0.284-1.403-0.815-1.877C297.907,0.247,297.055,0,295.785,0c-1.214,0-2.009,0.208-2.691,0.72
		c-0.72,0.569-1.081,1.289-1.081,2.275c0,1.175,0.474,2.028,1.573,3.071c-1.535,1.137-2.881,2.255-2.881,4.36
		c0,2.351,1.858,3.942,4.607,3.942c1.8,0,3.469-0.739,4.738-2.01l1.781,1.687h2.654l-3.26-3.165
		c1.251-1.668,1.649-3.015,1.668-5.706H301.055L301.055,5.175z M295.481,5.156c-1.043-1.024-1.441-1.592-1.441-2.256
		c0-0.796,0.74-1.402,1.706-1.402c0.91,0,1.573,0.549,1.573,1.289C297.32,3.848,296.297,4.625,295.481,5.156L295.481,5.156z
		 M294.799,7.26l4.018,3.962c-0.947,0.947-1.781,1.555-3.222,1.555c-1.763,0-2.9-0.967-2.9-2.408
		C292.695,8.966,293.757,8.018,294.799,7.26L294.799,7.26z M321.735,4.056c-0.114-1.27-0.455-2.066-1.479-2.862
		c-0.891-0.682-2.028-1.023-3.374-1.023c-4.265,0-6.008,3.279-6.008,7.184c0,4.34,2.104,6.899,5.705,6.899
		c2.028,0,3.753-0.796,4.587-2.142c0.361-0.568,0.455-0.872,0.531-1.668h-2.085c-0.265,1.479-1.27,2.255-2.862,2.255
		c-2.559,0-3.885-1.839-3.885-5.364c0-3.639,1.384-5.648,3.885-5.648c1.214,0,2.161,0.455,2.616,1.251
		c0.209,0.361,0.266,0.569,0.342,1.118H321.735L321.735,4.056z M323.952,4.53v6.388c0,2.028,1.271,3.222,3.45,3.222
		c1.497,0,2.407-0.511,3.033-1.725l0.038,1.63h1.857c-0.037-0.986-0.056-1.157-0.056-1.782V4.53h-1.839v5.384
		c0,0.625-0.019,1.194-0.322,1.706c-0.511,0.853-1.421,1.137-2.294,1.137c-1.421,0-2.047-0.645-2.047-2.104V4.53H323.952
		L323.952,4.53z M335.762,14.046h1.782V0.361h-1.782V14.046L335.762,14.046z M339.496,5.858h1.687v6.293
		c0,1.459,0.682,2.028,2.407,2.028c0.36,0,0.777-0.038,1.157-0.076c0.076,0,0.17-0.019,0.321-0.038v-1.384
		c-0.36,0.076-0.606,0.095-0.853,0.095c-0.947,0-1.27-0.399-1.27-1.271V5.858h2.122V4.53h-2.122V1.934l-1.763,0.568V4.53h-1.687
		V5.858L339.496,5.858z M347.116,4.53v6.388c0,2.028,1.27,3.222,3.45,3.222c1.498,0,2.408-0.511,3.033-1.725l0.038,1.63h1.857
		c-0.037-0.986-0.056-1.157-0.056-1.782V4.53h-1.839v5.384c0,0.625-0.019,1.194-0.322,1.706c-0.511,0.853-1.421,1.137-2.293,1.137
		c-1.421,0-2.047-0.645-2.047-2.104V4.53H347.116L347.116,4.53z M358.906,14.046h1.801V8.985c0-1.991,0.796-2.882,2.559-2.882
		c0.341,0,0.549,0.02,0.891,0.095V4.454c-0.247-0.019-0.361-0.019-0.531-0.019c-1.573,0-2.654,0.702-2.976,1.934l-0.038-1.839h-1.8
		c0.057,0.493,0.057,0.645,0.076,1.252c0,0.265,0.019,0.492,0.019,0.682V14.046L358.906,14.046z M374.109,9.61
		c0.019-0.284,0.019-0.531,0.019-0.702c0-2.994-1.44-4.624-4.094-4.624c-3.166,0-4.531,2.104-4.531,5.079
		c0,3.26,1.517,4.966,4.417,4.966c1.744,0,3.109-0.701,3.734-1.914c0.208-0.417,0.285-0.682,0.361-1.346h-1.782
		c-0.17,1.271-0.966,1.972-2.236,1.972c-1.687,0-2.73-1.195-2.73-3.128V9.61H374.109L374.109,9.61z M372.289,8.359h-4.947
		c0.037-1.725,1.042-2.805,2.596-2.805c1.498,0,2.35,0.967,2.35,2.635V8.359L372.289,8.359z M258.803,35.958h5.307
		c0.967,0,1.839-0.19,2.559-0.493c2.369-1.023,3.298-3.867,3.298-6.255c0-3.071-1.365-5.611-3.449-6.426
		c-0.816-0.321-1.744-0.511-2.73-0.511h-4.985V35.958L258.803,35.958z M260.698,34.403V23.846h2.274
		c1.232,0,2.066,0.151,2.654,0.435c1.459,0.74,2.312,2.56,2.312,5.005c0,1.896-0.663,4.113-2.634,4.795
		c-0.663,0.228-1.402,0.322-2.749,0.322H260.698L260.698,34.403z M280.373,31.522c0.019-0.284,0.019-0.531,0.019-0.702
		c0-2.994-1.441-4.624-4.094-4.624c-3.166,0-4.531,2.104-4.531,5.079c0,3.26,1.517,4.966,4.417,4.966
		c1.744,0,3.109-0.701,3.734-1.914c0.208-0.417,0.285-0.682,0.361-1.346h-1.782c-0.17,1.271-0.966,1.972-2.237,1.972
		c-1.687,0-2.73-1.195-2.73-3.128v-0.304H280.373L280.373,31.522z M278.553,30.271h-4.947c0.037-1.725,1.042-2.805,2.596-2.805
		c1.498,0,2.35,0.967,2.35,2.635V30.271L278.553,30.271z M285.624,35.958h1.801l4.17-9.516h-1.972l-2.957,7.545l-3.033-7.545h-1.991
		L285.624,35.958L285.624,35.958z M301.451,31.522c0.019-0.284,0.019-0.531,0.019-0.702c0-2.994-1.441-4.624-4.094-4.624
		c-3.166,0-4.531,2.104-4.531,5.079c0,3.26,1.517,4.966,4.417,4.966c1.744,0,3.109-0.701,3.734-1.914
		c0.208-0.417,0.285-0.682,0.361-1.346h-1.782c-0.17,1.271-0.966,1.972-2.237,1.972c-1.687,0-2.73-1.195-2.73-3.128v-0.304H301.451
		L301.451,31.522z M299.631,30.271h-4.947c0.037-1.725,1.043-2.805,2.596-2.805c1.497,0,2.35,0.967,2.35,2.635V30.271
		L299.631,30.271z M304.181,35.958h1.781V22.273h-1.781V35.958L304.181,35.958z M308.73,31.314c0,3.071,1.782,4.966,4.681,4.966
		c2.938,0,4.815-1.971,4.815-5.099c0-2.976-1.611-4.985-4.663-4.985C310.417,26.196,308.73,28.262,308.73,31.314L308.73,31.314z
		 M310.588,31.106c0-2.161,1.175-3.601,2.976-3.601c1.743,0,2.767,1.345,2.767,3.62c0,1.953-0.872,3.829-2.881,3.829
		C311.668,34.954,310.588,33.513,310.588,31.106L310.588,31.106z M320.9,39.616h1.763v-4.758c0.568,0.91,1.63,1.422,2.919,1.422
		c2.673,0,4.341-1.971,4.341-5.099c0-3.052-1.536-4.948-4-4.928c-1.421,0-2.596,0.625-3.241,1.725l-0.038-1.536h-1.8
		c0.037,0.512,0.057,1.043,0.057,1.554V39.616L320.9,39.616z M322.605,31.39c0-2.502,0.986-3.81,2.843-3.81
		c1.725,0,2.616,1.194,2.616,3.487c0,2.521-1.004,3.905-2.786,3.905C323.136,34.972,322.605,33.228,322.605,31.39L322.605,31.39z
		 M332.538,35.958h1.782v-5.403c0-1.27,0.17-1.782,0.777-2.331c0.474-0.436,1.061-0.645,1.725-0.645
		c1.289,0,2.085,0.796,2.085,2.085v6.293h1.801v-5.326c0-1.327,0.189-1.896,0.776-2.427c0.436-0.417,1.024-0.625,1.668-0.625
		c0.967,0,1.744,0.474,1.99,1.175c0.095,0.284,0.152,0.625,0.152,1.1v6.103h1.8V29.57c0-1.213-0.341-2.009-1.1-2.616
		c-0.644-0.512-1.421-0.758-2.388-0.758c-1.441,0-2.465,0.549-3.204,1.781c-0.588-1.213-1.555-1.781-3.071-1.781
		c-1.365,0-2.351,0.474-3.052,1.63v-1.384H332.5c0.019,0.361,0.038,0.853,0.038,1.271V35.958L332.538,35.958z M358.317,31.522
		c0.019-0.284,0.019-0.531,0.019-0.702c0-2.994-1.44-4.624-4.094-4.624c-3.166,0-4.531,2.104-4.531,5.079
		c0,3.26,1.517,4.966,4.417,4.966c1.744,0,3.109-0.701,3.734-1.914c0.208-0.417,0.285-0.682,0.361-1.346h-1.782
		c-0.17,1.271-0.966,1.972-2.237,1.972c-1.687,0-2.73-1.195-2.73-3.128v-0.304H358.317L358.317,31.522z M356.497,30.271h-4.947
		c0.037-1.725,1.043-2.805,2.596-2.805c1.497,0,2.35,0.967,2.35,2.635V30.271L356.497,30.271z M361.027,35.958h1.783V30.48
		c0-1.706,0.986-2.843,2.483-2.843c0.663,0,1.308,0.246,1.686,0.645c0.379,0.417,0.512,0.833,0.512,1.629v6.047h1.82v-6.464
		c0-1.061-0.284-1.8-0.91-2.351c-0.663-0.569-1.555-0.89-2.54-0.89c-1.441,0-2.445,0.588-3.051,1.725l-0.02-1.536h-1.782
		c0,0.361,0.019,0.74,0.019,1.1V35.958L361.027,35.958z M371.092,27.77h1.687v6.293c0,1.459,0.682,2.028,2.407,2.028
		c0.36,0,0.777-0.038,1.157-0.076c0.076,0,0.17-0.019,0.321-0.038v-1.384c-0.36,0.076-0.606,0.095-0.853,0.095
		c-0.947,0-1.27-0.399-1.27-1.271V27.77h2.123v-1.327h-2.123v-2.596l-1.763,0.568v2.028h-1.687V27.77L371.092,27.77z M258.936,57.87
		h1.933v-6.217h5.857v-1.592h-5.857v-4.266h6.217v-1.611h-8.15V57.87L258.936,57.87z M268.697,53.226
		c0,3.071,1.782,4.966,4.681,4.966c2.938,0,4.815-1.971,4.815-5.099c0-2.976-1.612-4.985-4.663-4.985
		C270.384,48.108,268.697,50.174,268.697,53.226L268.697,53.226z M270.555,53.018c0-2.161,1.175-3.601,2.976-3.601
		c1.743,0,2.767,1.345,2.767,3.62c0,1.952-0.872,3.829-2.881,3.829C271.635,56.866,270.555,55.425,270.555,53.018L270.555,53.018z
		 M280.771,48.354v6.388c0,2.028,1.271,3.222,3.45,3.222c1.497,0,2.407-0.511,3.033-1.725l0.038,1.63h1.857
		c-0.037-0.986-0.056-1.156-0.056-1.782v-7.734h-1.839v5.384c0,0.625-0.019,1.194-0.322,1.706c-0.511,0.853-1.421,1.137-2.294,1.137
		c-1.421,0-2.047-0.645-2.047-2.104v-6.123H280.771L280.771,48.354z M292.561,57.87h1.782v-5.478c0-1.706,0.986-2.843,2.483-2.843
		c0.663,0,1.308,0.246,1.686,0.645c0.379,0.417,0.512,0.833,0.512,1.629v6.047h1.82v-6.464c0-1.061-0.284-1.8-0.91-2.35
		c-0.663-0.569-1.555-0.89-2.54-0.89c-1.44,0-2.445,0.588-3.051,1.725l-0.02-1.536h-1.782c0,0.361,0.019,0.74,0.019,1.1V57.87
		L292.561,57.87z M310.739,49.719c-0.606-1.08-1.573-1.611-2.957-1.611c-2.616,0-4.303,2.028-4.303,5.118
		c0,1.649,0.361,2.843,1.138,3.715c0.739,0.815,1.8,1.194,2.957,1.194c1.327,0,2.673-0.588,3.203-1.706l0.037,1.441h1.782
		c-0.038-0.512-0.076-1.024-0.076-1.516V44.185h-1.782V49.719L310.739,49.719z M310.796,53.093c0,2.464-0.986,3.791-2.806,3.791
		c-1.743,0-2.616-1.232-2.616-3.64c0-2.464,0.929-3.81,2.616-3.81C310.133,49.435,310.796,51.255,310.796,53.093L310.796,53.093z
		 M323.079,57.889c-0.095-0.796-0.171-1.592-0.151-2.388l0.076-4.55c0-0.549-0.038-0.967-0.322-1.459
		c-0.645-1.081-2.237-1.403-3.393-1.403c-1.668,0-2.9,0.55-3.374,1.497c-0.227,0.436-0.284,0.663-0.341,1.327h1.782
		c0.076-1.175,0.797-1.611,1.915-1.611c0.72,0,1.384,0.247,1.649,0.625c0.265,0.342,0.341,0.683,0.341,1.687v0.418l-0.151-0.02
		c-0.55-0.076-0.759-0.037-1.138-0.037c-1.876,0-3.09,0.341-3.924,1.08c-0.682,0.607-1.043,1.422-1.043,2.332
		c0,1.687,1.327,2.805,3.336,2.805c1.365,0,2.313-0.549,2.958-1.725v0.227c0,0.341,0.037,0.872,0.17,1.194H323.079L323.079,57.889z
		 M321.259,53.264l-0.019,0.492c-0.038,0.796-0.057,1.175-0.228,1.611c-0.341,0.929-1.27,1.421-2.237,1.421
		c-1.175,0-1.971-0.644-1.971-1.649c0-0.947,0.758-1.63,2.009-1.82c0.474-0.076,0.91-0.113,1.421-0.113c0.304,0,0.569,0,0.891,0.037
		L321.259,53.264L321.259,53.264z M324.747,49.682h1.687v6.293c0,1.459,0.682,2.028,2.407,2.028c0.36,0,0.777-0.038,1.157-0.076
		c0.076,0,0.17-0.019,0.321-0.038v-1.384c-0.36,0.076-0.606,0.095-0.853,0.095c-0.947,0-1.27-0.399-1.27-1.27v-5.648h2.123v-1.328
		h-2.123v-2.596l-1.763,0.568v2.028h-1.687V49.682L324.747,49.682z M332.405,46.136h2.142v-1.952h-2.142V46.136L332.405,46.136z
		 M332.595,57.87h1.781v-9.516h-1.781V57.87L332.595,57.87z M337.145,53.226c0,3.071,1.782,4.966,4.681,4.966
		c2.938,0,4.815-1.971,4.815-5.099c0-2.976-1.612-4.985-4.663-4.985C338.831,48.108,337.145,50.174,337.145,53.226L337.145,53.226z
		 M339.002,53.018c0-2.161,1.175-3.601,2.976-3.601c1.743,0,2.767,1.345,2.767,3.62c0,1.952-0.872,3.829-2.881,3.829
		C340.083,56.866,339.002,55.425,339.002,53.018L339.002,53.018z M349.427,57.87h1.782v-5.478c0-1.706,0.986-2.843,2.483-2.843
		c0.663,0,1.308,0.246,1.686,0.645c0.379,0.417,0.512,0.833,0.512,1.629v6.047h1.82v-6.464c0-1.061-0.284-1.8-0.91-2.35
		c-0.663-0.569-1.555-0.89-2.54-0.89c-1.441,0-2.445,0.588-3.051,1.725l-0.02-1.536h-1.782c0,0.361,0.019,0.74,0.019,1.1V57.87z"/>
	<path style="fill-rule:evenodd;clip-rule:evenodd;fill:#1B1B1B;" d="M0,57.881h10.872l5.472-13.752h19.584L41.4,57.881h10.872
		L30.095,4.601h-7.92L0,57.881L0,57.881z M20.088,34.553l6.048-15.552l6.048,15.552H20.088z"/>
	<path style="fill-rule:evenodd;clip-rule:evenodd;fill:#1B1B1B;" d="M115.62,19.865c-4.464-10.224-13.68-16.2-24.696-16.2
		c-18.864,0-27.864,15.696-27.864,27.576c0,12.241,9.072,27.936,27.72,27.936c11.592,0,20.16-6.408,24.552-15.768h-11.448
		c-3.311,4.32-8.064,6.192-12.816,6.192c-10.223,0-18.144-8.352-18.144-18.36c0-9.36,7.416-18,18.073-18
		c6.336,0,10.728,3.24,13.392,6.625H115.62z"/>
	<path style="fill-rule:evenodd;clip-rule:evenodd;fill:#1B1B1B;" d="M133.43,57.881h17.114c26.929,0,28.368-20.664,28.368-26.352
		c0-10.368-4.105-26.929-28.584-26.929H133.43V57.881L133.43,57.881z M143.295,48.305V14.177h6.458
		c5.4,0,19.296,0.504,19.296,17.352c0,16.128-13.394,16.776-18.793,16.776H143.295z"/>
	<polygon style="fill-rule:evenodd;clip-rule:evenodd;fill:#1B1B1B;" points="200.048,57.881 209.912,57.881 209.912,36.065 
		234.878,36.065 234.878,26.489 209.912,26.489 209.912,14.177 235.67,14.177 235.67,4.601 200.048,4.601 	"/>
	<circle style="fill-rule:evenodd;clip-rule:evenodd;fill:#BD2E21;" cx="59.718" cy="53.908" r="4.252"/>
	<circle style="fill-rule:evenodd;clip-rule:evenodd;fill:#43A1D0;" cx="122.791" cy="31.556" r="5.953"/>
	<circle style="fill-rule:evenodd;clip-rule:evenodd;fill:#E6AE23;" cx="186.321" cy="7.819" r="7.654"/>
</g>
<g>
</g>
<g>
</g>
<g>
</g>
<g>
</g>
<g>
</g>
<g>
</g>
</svg>
