<?xml version="1.0" encoding="UTF-8" standalone="no"?>
<!-- Generator: Adobe Illustrator 16.0.0, SVG Export Plug-In . SVG Version: 6.00 Build 0)  -->

<svg
   xmlns:dc="http://purl.org/dc/elements/1.1/"
   xmlns:cc="http://creativecommons.org/ns#"
   xmlns:rdf="http://www.w3.org/1999/02/22-rdf-syntax-ns#"
   xmlns:svg="http://www.w3.org/2000/svg"
   xmlns="http://www.w3.org/2000/svg"
   xmlns:xlink="http://www.w3.org/1999/xlink"
   xmlns:sodipodi="http://sodipodi.sourceforge.net/DTD/sodipodi-0.dtd"
   xmlns:inkscape="http://www.inkscape.org/namespaces/inkscape"
   version="1.1"
   id="Layer_1"
   x="0px"
   y="0px"
   width="240"
   height="240"
   viewBox="0 0 240 171.42857"
   enable-background="new 0 0 300 420"
   xml:space="preserve"
   sodipodi:docname="_night blue logo only.svg"
   inkscape:version="0.92.4 (5da689c313, 2019-01-14)"><metadata
   id="metadata4163"><rdf:RDF><cc:Work
       rdf:about=""><dc:format>image/svg+xml</dc:format><dc:type
         rdf:resource="http://purl.org/dc/dcmitype/StillImage" /><dc:title></dc:title></cc:Work></rdf:RDF></metadata><defs
   id="defs4161" /><sodipodi:namedview
   pagecolor="#ffffff"
   bordercolor="#666666"
   borderopacity="1"
   objecttolerance="10"
   gridtolerance="10"
   guidetolerance="10"
   inkscape:pageopacity="0"
   inkscape:pageshadow="2"
   inkscape:window-width="1920"
   inkscape:window-height="1017"
   id="namedview4159"
   showgrid="false"
   inkscape:zoom="0.56190476"
   inkscape:cx="-121.39831"
   inkscape:cy="210"
   inkscape:window-x="-8"
   inkscape:window-y="-8"
   inkscape:window-maximized="1"
   inkscape:current-layer="Layer_1" />
<path
   d="M 230.646,197.876 H 10.563 V -22.207 H 230.646 Z M 12.024,196.414 H 229.185 V -20.745 H 12.024 Z"
   id="path4072"
   inkscape:connector-curvature="0"
   style="fill:#003097" />
<path
   stroke-miterlimit="10"
   d="M 230.646,197.876 H 10.563 V -22.207 H 230.646 Z M 12.024,196.414 H 229.185 V -20.745 H 12.024 Z"
   id="path4074"
   inkscape:connector-curvature="0"
   style="fill:none;stroke:#00245b;stroke-width:1.70700002;stroke-miterlimit:10" />
<rect
   x="1.3581359"
   y="35.761379"
   transform="rotate(-18.065327)"
   stroke-miterlimit="10"
   width="172.26736"
   height="171.27837"
   id="rect4076"
   style="fill:none;stroke:#00245b;stroke-width:1.00299621;stroke-miterlimit:10" />
<path
   stroke-miterlimit="10"
   d="m 65.224,196.946 -0.132,-0.403 -53.245,-163.236 0.403,-0.131 164.179,-53.553 0.133,0.404 53.244,163.237 -0.403,0.13 z M 12.916,33.85 65.767,195.878 228.736,142.72 175.886,-19.308 Z"
   id="path4078"
   inkscape:connector-curvature="0"
   style="fill:none;stroke:#00245b;stroke-width:1.00300002;stroke-miterlimit:10" />
<polyline
   stroke-miterlimit="10"
   points="190.384,223.402 190.265,223.741   189.926,223.622 "
   id="polyline4080"
   style="fill:none;stroke:#00245b;stroke-width:0.56900001;stroke-miterlimit:10"
   transform="translate(-32,-58)" />
<line
   stroke-miterlimit="10"
   x1="157.24699"
   y1="165.38498"
   x2="43.613998"
   y2="125.52699"
   id="line4082"
   style="fill:none;stroke:#00245b;stroke-width:0.56900001;stroke-miterlimit:10;stroke-dasharray:0.719, 0.719" />
<polyline
   stroke-miterlimit="10"
   points="75.275,183.408 74.936,183.289   75.055,182.95 "
   id="polyline4084"
   style="fill:none;stroke:#00245b;stroke-width:0.56900001;stroke-miterlimit:10"
   transform="translate(-32,-58)" />
<line
   stroke-miterlimit="10"
   x1="43.292999"
   y1="124.271"
   x2="83.150002"
   y2="10.639"
   id="line4086"
   style="fill:none;stroke:#00245b;stroke-width:0.56900001;stroke-miterlimit:10;stroke-dasharray:0.719, 0.719" />
<polyline
   stroke-miterlimit="10"
   points="115.27,68.299 115.389,67.96   115.728,68.079 "
   id="polyline4088"
   style="fill:none;stroke:#00245b;stroke-width:0.56900001;stroke-miterlimit:10"
   transform="translate(-32,-58)" />
<line
   stroke-miterlimit="10"
   x1="84.405998"
   y1="10.317001"
   x2="198.039"
   y2="50.174004"
   id="line4090"
   style="fill:none;stroke:#00245b;stroke-width:0.56900001;stroke-miterlimit:10;stroke-dasharray:0.719, 0.719" />
<polyline
   stroke-miterlimit="10"
   points="230.378,108.294 230.717,108.413   230.598,108.752 "
   id="polyline4092"
   style="fill:none;stroke:#00245b;stroke-width:0.56900001;stroke-miterlimit:10"
   transform="translate(-32,-58)" />
<line
   stroke-miterlimit="10"
   x1="198.36"
   y1="51.43"
   x2="158.502"
   y2="165.063"
   id="line4094"
   style="fill:none;stroke:#00245b;stroke-width:0.56900001;stroke-miterlimit:10;stroke-dasharray:0.719, 0.719" />
<rect
   x="25.99017"
   y="59.675125"
   transform="rotate(-18.065327)"
   stroke-miterlimit="10"
   width="123.11453"
   height="123.11453"
   id="rect4096"
   style="fill:none;stroke:#00245b;stroke-width:0.99599624;stroke-miterlimit:10" />
<polygon
   points="44.144,198.167 44.051,198.434 83.23,212.259 83.013,211.584 44.769,198.088 62.217,148.148 61.93,147.262 "
   id="polygon4098"
   style="fill:#003097"
   transform="translate(-32,-58)" />
<polygon
   stroke-miterlimit="10"
   points="44.144,198.167 44.051,198.434 83.23,212.259 83.013,211.584 44.769,198.088 62.217,148.148 61.93,147.262 "
   id="polygon4100"
   style="fill:none;stroke:#00245b;stroke-width:1.99100006;stroke-miterlimit:10"
   transform="translate(-32,-58)" />
<polygon
   points="100.829,37.487 100.562,37.394 86.698,76.904 87.373,76.684 100.908,38.113 151.352,55.815 152.234,55.527 "
   id="polygon4102"
   style="fill:#003097"
   transform="translate(-32,-58)" />
<polygon
   stroke-miterlimit="10"
   points="100.829,37.487 100.562,37.394 86.698,76.904 87.373,76.684 100.908,38.113 151.352,55.815 152.234,55.527 "
   id="polygon4104"
   style="fill:none;stroke:#00245b;stroke-width:1.99100006;stroke-miterlimit:10"
   transform="translate(-32,-58)" />
<polygon
   points="204.823,254.854 205.09,254.945 218.892,215.081 218.217,215.299 204.744,254.228 153.27,236.32 152.383,236.608 "
   id="polygon4106"
   style="fill:#003097"
   transform="translate(-32,-58)" />
<polygon
   stroke-miterlimit="10"
   points="204.823,254.854 205.09,254.945 218.892,215.081 218.217,215.299 204.744,254.228 153.27,236.32 152.383,236.608 "
   id="polygon4108"
   style="fill:none;stroke:#00245b;stroke-width:1.99100006;stroke-miterlimit:10"
   transform="translate(-32,-58)" />
<polygon
   points="243.644,145.079 261.508,94.174 261.602,93.908 222.604,80.077 222.821,80.752 260.883,94.253 243.357,144.193 "
   id="polygon4110"
   style="fill:#003097"
   transform="translate(-32,-58)" />
<polygon
   stroke-miterlimit="10"
   points="243.644,145.079 261.508,94.174 261.602,93.908 222.604,80.077 222.821,80.752 260.883,94.253 243.357,144.193 "
   id="polygon4112"
   style="fill:none;stroke:#00245b;stroke-width:1.99100006;stroke-miterlimit:10"
   transform="translate(-32,-58)" />
<g
   id="g4156"
   transform="translate(-32,-58)">
	<defs
   id="defs4115">
		
			<rect
   id="SVGID_1_"
   x="91.171997"
   y="84.974998"
   transform="matrix(-0.3101,-0.9507,0.9507,-0.3101,60.7823,337.1721)"
   width="123.114"
   height="123.114" />
	</defs>
	<clipPath
   id="SVGID_2_">
		<use
   xlink:href="#SVGID_1_"
   overflow="visible"
   id="use4117"
   style="overflow:visible"
   x="0"
   y="0"
   width="100%"
   height="100%" />
	</clipPath>
	
		<line
   clip-path="url(#SVGID_2_)"
   stroke-miterlimit="10"
   x1="152.77499"
   y1="37.935001"
   x2="152.77499"
   y2="256.88901"
   id="line4120"
   style="fill:none;stroke:#00245b;stroke-width:0.28400001;stroke-miterlimit:10" />
	
		<line
   clip-path="url(#SVGID_2_)"
   stroke-miterlimit="10"
   x1="262.681"
   y1="146.394"
   x2="41.708"
   y2="146.394"
   id="line4122"
   style="fill:none;stroke:#00245b;stroke-width:0.28400001;stroke-miterlimit:10" />
	
		<line
   clip-path="url(#SVGID_2_)"
   stroke-miterlimit="10"
   x1="262.681"
   y1="127.195"
   x2="41.708"
   y2="165.795"
   id="line4124"
   style="fill:none;stroke:#00245b;stroke-width:0.28400001;stroke-miterlimit:10" />
	
		<line
   clip-path="url(#SVGID_2_)"
   stroke-miterlimit="10"
   x1="262.681"
   y1="106.765"
   x2="41.708"
   y2="186.44099"
   id="line4126"
   style="fill:none;stroke:#00245b;stroke-width:0.28400001;stroke-miterlimit:10" />
	
		<line
   clip-path="url(#SVGID_2_)"
   stroke-miterlimit="10"
   x1="262.78299"
   y1="83.473"
   x2="41.708"
   y2="209.92"
   id="line4128"
   style="fill:none;stroke:#00245b;stroke-width:0.28400001;stroke-miterlimit:10" />
	
		<line
   clip-path="url(#SVGID_2_)"
   stroke-miterlimit="10"
   x1="262.595"
   y1="55.104"
   x2="41.708"
   y2="238.72099"
   id="line4130"
   style="fill:none;stroke:#00245b;stroke-width:0.28400001;stroke-miterlimit:10" />
	
		<line
   clip-path="url(#SVGID_2_)"
   stroke-miterlimit="10"
   x1="244.571"
   y1="38.015999"
   x2="59.222"
   y2="256.84601"
   id="line4132"
   style="fill:none;stroke:#00245b;stroke-width:0.28400001;stroke-miterlimit:10" />
	
		<line
   clip-path="url(#SVGID_2_)"
   stroke-miterlimit="10"
   x1="215.983"
   y1="37.935001"
   x2="88.403999"
   y2="256.84601"
   id="line4134"
   style="fill:none;stroke:#00245b;stroke-width:0.28400001;stroke-miterlimit:10" />
	
		<line
   clip-path="url(#SVGID_2_)"
   stroke-miterlimit="10"
   x1="192.62199"
   y1="37.935001"
   x2="112.195"
   y2="256.84601"
   id="line4136"
   style="fill:none;stroke:#00245b;stroke-width:0.28400001;stroke-miterlimit:10" />
	
		<line
   clip-path="url(#SVGID_2_)"
   stroke-miterlimit="10"
   x1="172.07899"
   y1="37.935001"
   x2="133.108"
   y2="256.88901"
   id="line4138"
   style="fill:none;stroke:#00245b;stroke-width:0.28400001;stroke-miterlimit:10" />
	
		<line
   clip-path="url(#SVGID_2_)"
   stroke-miterlimit="10"
   x1="133.47099"
   y1="37.935001"
   x2="172.43401"
   y2="256.84601"
   id="line4140"
   style="fill:none;stroke:#00245b;stroke-width:0.28400001;stroke-miterlimit:10" />
	
		<line
   clip-path="url(#SVGID_2_)"
   stroke-miterlimit="10"
   x1="112.927"
   y1="37.935001"
   x2="193.354"
   y2="256.84601"
   id="line4142"
   style="fill:none;stroke:#00245b;stroke-width:0.28400001;stroke-miterlimit:10" />
	
		<line
   clip-path="url(#SVGID_2_)"
   stroke-miterlimit="10"
   x1="89.566002"
   y1="37.935001"
   x2="217.145"
   y2="256.84601"
   id="line4144"
   style="fill:none;stroke:#00245b;stroke-width:0.28400001;stroke-miterlimit:10" />
	
		<line
   clip-path="url(#SVGID_2_)"
   stroke-miterlimit="10"
   x1="60.91"
   y1="37.935001"
   x2="246.328"
   y2="256.84601"
   id="line4146"
   style="fill:none;stroke:#00245b;stroke-width:0.28400001;stroke-miterlimit:10" />
	
		<line
   clip-path="url(#SVGID_2_)"
   stroke-miterlimit="10"
   x1="42.785999"
   y1="54.881001"
   x2="263.871"
   y2="238.82899"
   id="line4148"
   style="fill:none;stroke:#00245b;stroke-width:0.28400001;stroke-miterlimit:10" />
	
		<line
   clip-path="url(#SVGID_2_)"
   stroke-miterlimit="10"
   x1="41.708"
   y1="82.866997"
   x2="262.681"
   y2="209.256"
   id="line4150"
   style="fill:none;stroke:#00245b;stroke-width:0.28400001;stroke-miterlimit:10" />
	
		<line
   clip-path="url(#SVGID_2_)"
   stroke-miterlimit="10"
   x1="41.708"
   y1="106.346"
   x2="262.681"
   y2="186.022"
   id="line4152"
   style="fill:none;stroke:#00245b;stroke-width:0.28400001;stroke-miterlimit:10" />
	
		<line
   clip-path="url(#SVGID_2_)"
   stroke-miterlimit="10"
   x1="41.708"
   y1="126.993"
   x2="262.681"
   y2="165.593"
   id="line4154"
   style="fill:none;stroke:#00245b;stroke-width:0.28400001;stroke-miterlimit:10" />
</g>
</svg>