<svg width="18" height="18" viewBox="0 0 18 18" version="1.1" xmlns="http://www.w3.org/2000/svg" xmlns:xlink="http://www.w3.org/1999/xlink">
<g id="Canvas" fill="none">
<g id="Instagram">
<path fill-rule="evenodd" clip-rule="evenodd" d="M 13.5141 3.1582C 12.9168 3.1582 12.4316 3.64256 12.4316 4.24146C 12.4316 4.83954 12.9168 5.32472 13.5141 5.32472C 14.1122 5.32472 14.5973 4.83954 14.5973 4.24146C 14.5973 3.64256 14.1122 3.1582 13.5141 3.1582ZM 9.00076 11.9778C 7.35951 11.9778 6.02344 10.6417 6.02344 8.99881C 6.02344 7.35674 7.35951 6.02148 9.00076 6.02148C 10.6428 6.02148 11.9789 7.35674 11.9789 8.99881C 11.9789 10.6417 10.6428 11.9778 9.00076 11.9778ZM 8.99978 4.3457C 6.43481 4.3457 4.34766 6.43368 4.34766 8.99946C 4.34766 11.5661 6.43481 13.654 8.99978 13.654C 11.5656 13.654 13.6527 11.5661 13.6527 8.99946C 13.6527 6.43368 11.5656 4.3457 8.99978 4.3457ZM 16.3047 11.5421C 16.2965 12.1026 16.2744 12.7006 16.1689 13.2668C 15.8825 14.8074 15.0079 15.7442 13.4959 16.1312C 12.8013 16.3088 12.0616 16.3145 11.2795 16.3194L 11.2713 16.3194C 10.8908 16.3219 10.5006 16.3227 10.0784 16.3227C 9.01641 16.3227 7.93479 16.3153 6.88753 16.3071L 6.18472 16.3022C 5.66764 16.2981 5.06055 16.2744 4.47474 16.1255C 3.32931 15.8342 2.55041 15.1928 2.09223 14.1643C 1.8026 13.5106 1.73714 12.7882 1.71178 12.1672C 1.70605 12.033 1.69624 11.9062 1.6856 11.7835L 1.67578 11.6607L 1.67578 6.39908C 1.68642 6.3459 1.69951 6.27145 1.70196 6.18554C 1.71996 5.56946 1.74533 5.01637 1.87787 4.48783C 2.17159 3.32112 2.82613 2.53241 3.87993 2.07668C 4.52056 1.79933 5.2291 1.73714 5.83782 1.71178C 5.972 1.70605 6.09963 1.69542 6.22236 1.6856L 6.34427 1.67578L 11.6092 1.67578C 11.6526 1.68478 11.7074 1.69296 11.7704 1.69869C 11.9487 1.71424 12.1255 1.72487 12.2956 1.73469C 12.6344 1.75514 12.9535 1.77396 13.2488 1.82878C 14.0228 1.97441 14.6544 2.26896 15.1241 2.7034C 15.5953 3.14113 15.9332 3.74821 16.128 4.50911C 16.3022 5.19064 16.3088 5.918 16.3161 6.68626L 16.3161 6.75253C 16.3309 8.36188 16.3276 9.97367 16.3047 11.5421ZM 17.9916 6.73764L 17.9908 6.67137C 17.9834 5.83601 17.9752 4.97203 17.751 4.09331C 17.202 1.94561 15.7514 0.593174 13.5571 0.182452C 13.1578 0.10718 12.77 0.0842716 12.3945 0.062181C 12.2325 0.0531811 12.0787 0.0433631 11.9273 0.0302723C 11.9191 0.028636 11.9118 0.0269996 11.9036 0.0253633C 11.8815 0.0220906 11.8594 0.0171816 11.8357 0.0130907L 11.7637 0L 6.2811 0L 6.25083 0.00245451C 6.19519 0.00654537 6.13874 0.0106362 6.08392 0.0155452C 5.97265 0.0245451 5.86792 0.033545 5.76974 0.0376359C 5.05139 0.06709 4.11213 0.150543 3.21459 0.538357C 1.67152 1.20598 0.675809 2.39724 0.253633 4.07858C 0.0834534 4.75603 0.0490903 5.41875 0.028636 6.09292C 0.0229088 6.11828 0.0179998 6.14283 0.0130907 6.16737L 0 6.24019L 0 11.7236L 0.00245451 11.7538C 0.00654537 11.8103 0.0114544 11.8659 0.0163634 11.9216C 0.0253633 12.032 0.033545 12.1359 0.0376359 12.2349C 0.06709 12.9688 0.154634 13.9277 0.562084 14.8449C 1.23217 16.352 2.41033 17.3297 4.06222 17.7486C 4.82639 17.9433 5.59056 17.9728 6.17146 17.9777L 6.87509 17.9826C 7.92481 17.9899 9.0097 17.9989 10.0782 17.9989C 10.5045 17.9989 10.898 17.9973 11.2818 17.9949L 11.2899 17.9949C 12.1392 17.9891 13.0179 17.9834 13.9105 17.7543C 16.0582 17.2045 17.409 15.7588 17.8157 13.5735C 17.9441 12.8813 17.9703 12.1703 17.9793 11.5657C 18.0014 9.98414 18.0063 8.36007 17.9916 6.73764Z" fill="white"/>
</g>
</g>
</svg>

