<svg width="14" height="19" viewBox="0 0 14 19" version="1.1" xmlns="http://www.w3.org/2000/svg" xmlns:xlink="http://www.w3.org/1999/xlink">
<g id="Canvas" fill="none">
<g id="Pinterest">
<path fill-rule="evenodd" clip-rule="evenodd" d="M 2.08915 10.4183C 2.32147 10.5152 2.5315 10.4226 2.59922 10.1594C 2.64551 9.97853 2.75696 9.5199 2.80753 9.32873C 2.87611 9.06898 2.84954 8.97896 2.66008 8.7535C 2.24946 8.25972 1.98799 7.62363 1.98799 6.72265C 1.98799 4.10714 3.91597 1.7651 7.00726 1.7651C 9.74621 1.7651 11.2499 3.46334 11.2499 5.73165C 11.2499 8.71664 9.94853 11.2353 8.01797 11.2353C 6.95068 11.2353 6.15257 10.3386 6.40803 9.24129C 6.71493 7.93053 7.30816 6.51519 7.30816 5.56878C 7.30816 4.7218 6.85981 4.01456 5.93311 4.01456C 4.84267 4.01456 3.96655 5.159 3.96655 6.6935C 3.96655 7.66992 4.29231 8.33087 4.29231 8.33087C 4.29231 8.33087 3.17701 13.1307 2.9807 13.9717C 2.5915 15.645 2.92241 17.6965 2.94984 17.9039C 2.96698 18.0265 3.12215 18.0557 3.19244 17.9631C 3.29274 17.8302 4.59235 16.2023 5.03299 14.5769C 5.15815 14.1157 5.75051 11.7316 5.75051 11.7316C 6.10456 12.4174 7.14014 13.0201 8.24086 13.0201C 11.519 13.0201 13.7428 9.98882 13.7428 5.92882C 13.7428 2.85811 11.1804 0 7.28759 0C 2.4432 0 0 3.52506 0 6.46461C 0 8.24515 0.665235 9.82937 2.08915 10.4183Z" fill="white"/>
</g>
</g>
</svg>

