<svg width="40" height="48" viewBox="0 0 40 48" fill="none" xmlns="http://www.w3.org/2000/svg">
<path d="M38.75 19.8333C38.75 34.4167 20 46.9167 20 46.9167C20 46.9167 1.25 34.4167 1.25 19.8333C1.25 14.8605 3.22544 10.0914 6.74175 6.57509C10.2581 3.05878 15.0272 1.08334 20 1.08334C24.9728 1.08334 29.7419 3.05878 33.2582 6.57509C36.7746 10.0914 38.75 14.8605 38.75 19.8333Z" stroke="#003DA7" stroke-width="2" stroke-linecap="round" stroke-linejoin="round"/>
<path d="M20 26.0833C23.4518 26.0833 26.25 23.2851 26.25 19.8333C26.25 16.3816 23.4518 13.5833 20 13.5833C16.5482 13.5833 13.75 16.3816 13.75 19.8333C13.75 23.2851 16.5482 26.0833 20 26.0833Z" stroke="#003DA7" stroke-width="2" stroke-linecap="round" stroke-linejoin="round"/>
</svg>
