<svg width="249" height="90" viewBox="0 0 249 90" fill="none" xmlns="http://www.w3.org/2000/svg">
<rect width="90" height="90" rx="45" fill="white"/>
<path d="M76.3536 31.8151C74.5561 27.6638 72.1302 24.0533 69.0466 20.9837C65.9631 17.914 62.3681 15.4729 58.247 13.6896C56.4056 12.8856 54.5058 12.2717 52.5329 11.8332C53.0152 13.4265 53.6874 16.1015 53.9505 19.2588C54.4181 24.7111 53.819 31.4059 53.819 31.4059C53.819 31.4059 53.6582 32.0783 54.3158 32.4437C55.2365 32.9553 55.9672 32.8384 55.9672 32.8384C55.9672 32.8384 55.2511 33.6131 54.4181 33.7008C53.3075 33.8031 53.0883 33.5546 53.0883 33.5546C53.0883 33.5546 52.4891 36.9166 53.702 39.27C55.9818 43.6552 58.1154 43.8745 57.3847 45.3654C56.8733 46.4179 56.011 46.9295 53.8043 47.865C53.0006 48.2012 52.3283 50.3061 52.2553 51.0078C51.9484 53.9605 54.0966 53.2588 52.8252 54.7059C52.1384 55.4807 51.8753 55.4368 51.4223 55.5976C50.5747 55.89 49.9463 55.9777 50.9985 57.2201C51.4223 57.7171 52.1676 58.0241 51.9484 58.6088C51.7146 59.2666 50.6185 59.5004 49.9024 59.9536C48.6456 60.7575 48.5287 61.2692 48.7625 62.7747C49.0402 64.6165 49.4932 67.4231 47.6957 68.2563C43.6915 70.098 34.7917 67.54 34.7917 67.54C34.7917 67.54 34.4556 69.5426 34.4556 72.0129C34.4702 75.3895 34.8355 79.3508 34.7478 77.436C37.9921 78.4738 41.3825 79 44.9337 79C49.654 79 54.082 78.1084 58.2031 76.3104C62.3242 74.5271 65.9193 72.086 69.0028 69.0164C72.0863 65.9467 74.5122 62.3508 76.3097 58.2287C78.1072 54.1066 78.9987 49.6922 78.9987 44.9854C79.0425 40.3663 78.1511 35.9665 76.3536 31.8151Z" fill="#35CBF1"/>
<path d="M46.5848 27.5907C50.2237 20.8959 51.7143 14.3181 52.1965 11.7601C49.8729 11.2631 47.4762 11 44.9773 11C40.3154 11 35.9313 11.8917 31.7955 13.6896C27.6744 15.4729 24.0794 17.914 20.9959 20.9837C17.9124 24.0533 15.4865 27.6638 13.6889 31.8151C11.8914 35.9665 11 40.3663 11 45.0146C11 49.736 11.8914 54.1505 13.6889 58.258C15.4865 62.3801 19.5345 69.0164 24.211 72.2614C24.7371 72.6268 25.1462 73.1531 25.6139 73.577C25.5116 70.4196 23.3341 63.6225 23.3341 63.6225L24.7663 67.5546C24.7663 67.5546 24.284 61.8538 25.4824 57.5271C26.6076 53.4342 29.4281 50.73 29.4281 50.73C29.4281 50.73 30.6849 54.3113 32.4093 56.6062C34.4261 59.2812 36.9543 60.7575 36.9543 60.7575C36.9543 60.7575 34.0023 56.08 33.3008 51.4024C32.7601 47.8212 34.0899 43.9329 34.0899 43.9329C34.0899 43.9329 42.0983 35.8349 46.5848 27.5907Z" fill="#D22E59"/>
<path fill-rule="evenodd" clip-rule="evenodd" d="M196.377 36.0427C195.859 34.8423 195.154 33.7902 194.266 32.9C193.373 32.0097 192.338 31.3016 191.142 30.7823C189.946 30.263 188.669 30 187.305 30C185.954 30 184.684 30.263 183.495 30.7823C182.305 31.3016 181.257 32.0097 180.37 32.9C179.476 33.7902 178.777 34.8423 178.26 36.0427C177.742 37.2499 177.48 38.5245 177.48 39.8734C177.48 41.2424 177.742 42.5238 178.26 43.7175C178.777 44.9112 179.483 45.9565 180.37 46.8468C181.257 47.737 182.298 48.4451 183.495 48.9644C184.684 49.4837 185.961 49.7467 187.305 49.7467C188.669 49.7467 189.952 49.4837 191.142 48.9644C192.331 48.4451 193.373 47.737 194.266 46.8468C195.154 45.9565 195.859 44.9112 196.377 43.7175C196.894 42.5238 197.156 41.2424 197.156 39.8734C197.149 38.5245 196.894 37.2432 196.377 36.0427ZM193.03 42.3417C192.701 43.124 192.257 43.8119 191.699 44.4054C191.142 44.9989 190.483 45.4777 189.731 45.8351C188.978 46.1926 188.172 46.3679 187.311 46.3679C186.451 46.3679 185.645 46.1926 184.892 45.8351C184.14 45.4777 183.488 45.0056 182.923 44.4054C182.359 43.8052 181.915 43.1173 181.593 42.3417C181.264 41.5594 181.102 40.7434 181.102 39.8734C181.102 39.0236 181.264 38.2076 181.593 37.4185C181.922 36.6294 182.366 35.9416 182.923 35.3548C183.481 34.7681 184.14 34.296 184.892 33.9386C185.645 33.5811 186.451 33.4058 187.311 33.4058C188.172 33.4058 188.978 33.5811 189.731 33.9386C190.483 34.296 191.135 34.7681 191.699 35.3548C192.257 35.9416 192.707 36.6294 193.03 37.4185C193.359 38.2076 193.521 39.0236 193.521 39.8734C193.521 40.7366 193.359 41.5594 193.03 42.3417Z" fill="#D22E59"/>
<path d="M147.624 59.674C147.866 59.411 148.155 59.2087 148.484 59.0468C148.814 58.8917 149.17 58.8108 149.553 58.8108C149.788 58.8108 150.016 58.8445 150.238 58.9119C150.46 58.9794 150.668 59.0738 150.863 59.1952C151.058 59.3166 151.24 59.4582 151.408 59.6201C151.569 59.7819 151.717 59.9505 151.838 60.1326L153.336 59.5257C153.155 59.1952 152.926 58.8985 152.664 58.6287C152.395 58.3589 152.1 58.1229 151.777 57.9273C151.455 57.7317 151.105 57.5834 150.729 57.4755C150.352 57.3676 149.963 57.3136 149.56 57.3136C148.968 57.3136 148.404 57.4282 147.88 57.6575C147.355 57.8868 146.898 58.1971 146.502 58.5882C146.112 58.9794 145.796 59.4447 145.575 59.9708C145.346 60.4968 145.232 61.0566 145.232 61.6568C145.232 62.2503 145.346 62.8168 145.575 63.3428C145.803 63.8689 146.112 64.3275 146.502 64.7254C146.892 65.1165 147.355 65.4268 147.88 65.6561C148.404 65.8854 148.961 66 149.56 66C149.963 66 150.352 65.946 150.729 65.8381C151.105 65.7302 151.455 65.5819 151.777 65.3863C152.1 65.1907 152.395 64.9614 152.664 64.6849C152.933 64.4151 153.155 64.1117 153.336 63.7744L151.838 63.1675C151.717 63.3496 151.576 63.5249 151.408 63.6868C151.246 63.8486 151.065 63.997 150.863 64.1184C150.668 64.2398 150.453 64.3342 150.238 64.4016C150.016 64.4691 149.788 64.5028 149.553 64.5028C149.17 64.5028 148.814 64.4219 148.484 64.2668C148.155 64.1117 147.866 63.9026 147.624 63.6396C147.382 63.3833 147.187 63.0798 147.04 62.7358C146.892 62.3919 146.825 62.0277 146.825 61.65C146.825 61.2791 146.898 60.9149 147.04 60.5642C147.181 60.2405 147.376 59.9371 147.624 59.674Z" fill="#D22E59"/>
<path d="M171.964 57.5901C171.466 57.4148 170.989 57.4755 170.989 57.4755V64.1251C170.989 64.1251 170.989 65.3863 171.843 65.6898C172.34 65.8651 172.73 65.8044 172.73 65.8044V59.1547C172.73 59.1615 172.817 57.9003 171.964 57.5901Z" fill="#D22E59"/>
<path d="M160.721 57.462H159.129V65.8516H165.143V64.4286H160.721V57.462Z" fill="#D22E59"/>
<path d="M207.001 63.707C206.84 63.8689 206.658 64.0172 206.457 64.1386C206.262 64.26 206.047 64.3544 205.832 64.4219C205.61 64.4893 205.381 64.523 205.146 64.523C204.763 64.523 204.407 64.4421 204.078 64.287C203.749 64.1319 203.46 63.9228 203.218 63.6598C202.976 63.4035 202.781 63.1 202.633 62.7561C202.485 62.4121 202.418 62.048 202.418 61.6703C202.418 61.2994 202.492 60.9352 202.633 60.5845C202.781 60.2338 202.969 59.9303 203.218 59.674C203.46 59.411 203.749 59.2087 204.078 59.0468C204.407 58.8917 204.763 58.8108 205.146 58.8108C205.381 58.8108 205.61 58.8445 205.832 58.9119C206.053 58.9794 206.262 59.0738 206.457 59.1952C206.651 59.3166 206.833 59.4582 207.001 59.6201C207.162 59.7819 207.31 59.9505 207.431 60.1326L208.93 59.5257C208.748 59.1952 208.52 58.8985 208.258 58.6287C207.989 58.3589 207.693 58.1229 207.371 57.9273C207.048 57.7317 206.699 57.5834 206.322 57.4755C205.946 57.3676 205.556 57.3136 205.153 57.3136C204.562 57.3136 203.997 57.4282 203.473 57.6575C202.949 57.8868 202.492 58.1971 202.095 58.5882C201.706 58.9794 201.39 59.4447 201.168 59.9708C200.946 60.4968 200.825 61.0566 200.825 61.6568C200.825 62.2503 200.94 62.8168 201.168 63.3428C201.397 63.8689 201.706 64.3275 202.095 64.7254C202.485 65.1165 202.949 65.4268 203.473 65.6561C203.997 65.8854 204.555 66 205.153 66C205.556 66 205.946 65.946 206.322 65.8381C206.699 65.7302 207.048 65.5819 207.371 65.3863C207.693 65.1907 207.989 64.9614 208.258 64.6849C208.526 64.4151 208.748 64.1117 208.93 63.7744L207.431 63.1675C207.31 63.3631 207.169 63.5384 207.001 63.707Z" fill="#D22E59"/>
<path d="M194.032 57.5901C193.534 57.4148 193.057 57.4755 193.057 57.4755V64.1251C193.057 64.1251 193.057 65.3863 193.911 65.6898C194.408 65.8651 194.798 65.8044 194.798 65.8044V59.1547C194.798 59.1547 194.797 59.153 194.797 59.1489L194.797 59.1328C194.8 58.9641 194.816 57.8753 194.032 57.5901Z" fill="#D22E59"/>
<path d="M184.832 62.5403L179.342 57.4755H179.174V65.8516H180.773V60.8677L186.263 65.8516H186.431V57.4755H184.832V62.5403Z" fill="#D22E59"/>
<path fill-rule="evenodd" clip-rule="evenodd" d="M129.407 39.8127C129.863 40.042 130.267 40.3522 130.63 40.7501C130.992 41.148 131.281 41.5999 131.503 42.1191C131.738 42.6384 131.853 43.1847 131.853 43.7714C131.853 44.8033 131.698 45.6733 131.389 46.3882C131.08 47.103 130.663 47.6763 130.132 48.1146C129.601 48.553 128.983 48.8632 128.271 49.0521C127.559 49.2409 126.806 49.3353 126 49.3353H117.318V30.4181H125.59C126.342 30.4181 127.055 30.4923 127.72 30.6407C128.385 30.7891 128.97 31.0521 129.467 31.4432C129.964 31.8277 130.361 32.3672 130.65 33.0483C130.939 33.7295 131.087 34.6062 131.087 35.6785C131.087 36.0629 131.013 36.4676 130.858 36.8992C130.703 37.3308 130.488 37.7287 130.226 38.0929C129.964 38.4504 129.642 38.7606 129.265 39.0101C128.889 39.2664 128.479 39.3945 128.036 39.4148C128.493 39.4485 128.95 39.5834 129.407 39.8127ZM125.596 33.6216H120.926V38.1132H125.341C125.704 38.1132 126.013 38.0457 126.282 37.9041C126.544 37.7625 126.766 37.5804 126.947 37.3578C127.129 37.1285 127.263 36.8722 127.357 36.589C127.451 36.3057 127.498 36.0225 127.498 35.746C127.498 35.4695 127.444 35.1997 127.344 34.9434C127.243 34.6871 127.102 34.4578 126.934 34.269C126.759 34.0802 126.557 33.9251 126.329 33.8037C126.1 33.6823 125.852 33.6216 125.596 33.6216ZM127.599 45.3158C127.807 45.0663 127.969 44.7898 128.089 44.4863C128.204 44.1896 128.264 43.8794 128.264 43.5759C128.264 42.9352 128.029 42.4024 127.559 41.9708C127.081 41.5392 126.436 41.3233 125.617 41.3233H120.919V46.1319H126.006C126.315 46.1319 126.604 46.0577 126.88 45.9093C127.155 45.761 127.391 45.5654 127.599 45.3158Z" fill="#D22E59"/>
<path fill-rule="evenodd" clip-rule="evenodd" d="M136.556 49.3353L146.166 30.4451H146.522L156.131 49.3353H152.227L150.762 46.3612H141.899L140.461 49.3353H136.556ZM146.347 37.4994L143.653 43.2117H149.022L146.347 37.4994Z" fill="#D22E59"/>
<path d="M163.382 33.6216H157.986V30.4181H172.346V33.6216H166.977V49.3353H163.382V33.6216Z" fill="#D22E59"/>
<path d="M205.092 30.4451L210.152 41.4043L215.213 30.4451H219.191L210.253 49.3353H210.045L201.134 30.4451H205.092Z" fill="#D22E59"/>
<path d="M225.769 30.0877C226.247 30.0674 226.663 30.2023 227.013 30.4856C227.362 30.7688 227.597 31.16 227.718 31.6658C227.839 32.1649 227.859 32.6909 227.785 33.2304C227.711 33.7699 227.537 34.2892 227.261 34.7681C226.992 35.2536 226.623 35.6718 226.173 36.0225C225.722 36.3732 225.192 36.6227 224.593 36.7576L224.157 35.8269C224.701 35.6381 225.118 35.375 225.4 35.0378C225.682 34.7006 225.857 34.3162 225.924 33.8846C225.393 33.9183 224.936 33.7565 224.56 33.3923C224.184 33.0348 223.989 32.5965 223.969 32.0772C223.935 31.5444 224.096 31.0858 224.446 30.7081C224.795 30.3305 225.239 30.1214 225.769 30.0877Z" fill="#D22E59"/>
<path d="M247.636 40.251C248.039 40.6557 248.362 41.1547 248.61 41.7482C248.859 42.3417 248.987 43.0633 249 43.9063C249 44.8842 248.832 45.7407 248.489 46.4623C248.147 47.184 247.656 47.7842 247.024 48.2563C246.393 48.7284 245.64 49.0858 244.766 49.3286C243.893 49.5714 242.925 49.6928 241.864 49.6928C240.889 49.6928 240.029 49.6186 239.283 49.4702C238.537 49.3218 237.858 49.1263 237.24 48.8767C236.622 48.6272 236.044 48.3305 235.493 47.9865C234.949 47.6426 234.384 47.2581 233.8 46.8468L235.748 43.9535C236.689 44.6077 237.664 45.1742 238.665 45.6463C239.666 46.1184 240.714 46.3544 241.81 46.3544C242.388 46.3544 242.905 46.2803 243.349 46.1319C243.792 45.9903 244.168 45.8014 244.478 45.5654C244.787 45.3293 245.015 45.0663 245.17 44.7628C245.324 44.4661 245.398 44.1626 245.398 43.8726C245.398 43.4949 245.277 43.1712 245.049 42.9015C244.814 42.6317 244.504 42.4159 244.121 42.2405C243.732 42.0719 243.281 41.9236 242.757 41.8022C242.233 41.6808 241.689 41.5661 241.124 41.465C240.748 41.3975 240.311 41.3166 239.814 41.2222C239.317 41.1278 238.806 40.9996 238.275 40.8378C237.744 40.6759 237.22 40.4601 236.709 40.1903C236.199 39.9273 235.735 39.5901 235.325 39.1855C234.915 38.7808 234.586 38.2952 234.337 37.7355C234.089 37.1757 233.968 36.5148 233.968 35.7595C233.968 34.6602 234.189 33.743 234.633 33.0079C235.076 32.2728 235.648 31.6995 236.34 31.2746C237.032 30.8565 237.805 30.5598 238.651 30.3844C239.498 30.2158 240.318 30.1281 241.104 30.1281C241.89 30.1281 242.589 30.1821 243.207 30.2832C243.826 30.3844 244.397 30.5395 244.928 30.7351C245.459 30.9307 245.976 31.1802 246.48 31.4837C246.984 31.7872 247.528 32.1446 248.113 32.556L246.11 35.3953C245.223 34.7748 244.363 34.3027 243.543 33.9723C242.724 33.6418 241.857 33.48 240.95 33.48C240.641 33.48 240.291 33.5204 239.895 33.5946C239.505 33.6755 239.128 33.7969 238.779 33.9723C238.43 34.1476 238.134 34.3634 237.906 34.6332C237.67 34.903 237.556 35.2267 237.556 35.6043C237.556 35.982 237.69 36.3057 237.966 36.562C238.241 36.825 238.591 37.0341 239.021 37.2094C239.444 37.378 239.921 37.5264 240.432 37.6478C240.95 37.7692 241.447 37.8906 241.924 38.012C242.28 38.0929 242.703 38.1806 243.194 38.2683C243.685 38.3559 244.189 38.4773 244.713 38.6324C245.23 38.7876 245.754 38.9966 246.265 39.2529C246.776 39.5159 247.233 39.8464 247.636 40.251Z" fill="#D22E59"/>
<path d="M105 30.4923C105 30.4923 106.008 30.3507 107.056 30.7553C108.857 31.4432 108.669 34.2892 108.669 34.2892V49.2881C108.669 49.2881 107.849 49.4297 106.801 49.0251C105 48.3372 105 45.4912 105 45.4912V30.4923Z" fill="#D22E59"/>
</svg>
