<svg width="52" height="16" viewBox="0 0 52 16" fill="none" xmlns="http://www.w3.org/2000/svg">
<path opacity="0.3" fill-rule="evenodd" clip-rule="evenodd" d="M52 8.00014C52 7.80611 51.9219 7.6208 51.7921 7.48127L44.7679 0.215012C44.4905 -0.0720339 44.0413 -0.0713072 43.7646 0.215012C43.4871 0.501331 43.4871 0.966419 43.7646 1.25274L49.5782 7.26617H0.709582C0.317893 7.26617 0 7.59464 0 8.00014C0 8.40563 0.317893 8.7341 0.709582 8.7341H49.5775L43.7646 14.7475C43.4871 15.0339 43.4879 15.4989 43.7646 15.7853C44.042 16.0716 44.4912 16.0716 44.7679 15.7853L51.7921 8.519C51.9248 8.38165 51.9979 8.19271 52 8.00014Z" fill="#2F2744"/>
</svg>
