<svg width="50" height="50" viewBox="0 0 50 50" fill="none" xmlns="http://www.w3.org/2000/svg">
<path d="M12 36H38C38.553 36 39 35.553 39 35V15C39 14.448 38.553 14 38 14H12C11.448 14 11 14.448 11 15C11 15.552 11.448 16 12 16H37V34H13V19C13 18.448 12.552 18 12 18C11.448 18 11 18.448 11 19V35C11 35.553 11.448 36 12 36Z" fill="white"/>
<path d="M24.293 27.7068C24.488 27.9018 24.744 27.9998 25 27.9998C25.256 27.9998 25.512 27.9018 25.707 27.7068L33.707 19.7068C34.098 19.3158 34.098 18.6838 33.707 18.2928C33.316 17.9018 32.684 17.9018 32.293 18.2928L25 25.5858L17.707 18.2928C17.316 17.9018 16.684 17.9018 16.293 18.2928C15.902 18.6838 15.902 19.3158 16.293 19.7068L24.293 27.7068Z" fill="white"/>
<path d="M33.001 31.9998C32.745 31.9998 32.489 31.9018 32.294 31.7068L29.292 28.7048C28.901 28.3138 28.901 27.6818 29.292 27.2908C29.683 26.8998 30.315 26.8998 30.706 27.2908L33.708 30.2928C34.099 30.6838 34.099 31.3158 33.708 31.7068C33.513 31.9018 33.257 31.9998 33.001 31.9998Z" fill="white"/>
<path d="M16.294 31.7072C16.489 31.9022 16.745 32.0002 17.001 32.0002C17.257 32.0002 17.513 31.9022 17.708 31.7072L20.707 28.7082C21.098 28.3172 21.098 27.6852 20.707 27.2942C20.316 26.9032 19.684 26.9032 19.293 27.2942L16.294 30.2932C15.903 30.6842 15.903 31.3162 16.294 31.7072Z" fill="white"/>
</svg>
