<svg width="44" height="44" viewBox="0 0 44 44" fill="none" xmlns="http://www.w3.org/2000/svg">
<path d="M42.8334 32.25V38.5C42.8357 39.0802 42.7169 39.6545 42.4844 40.1861C42.252 40.7177 41.9111 41.195 41.4835 41.5872C41.056 41.9794 40.5512 42.2781 40.0016 42.4639C39.4519 42.6498 38.8695 42.7189 38.2917 42.6666C31.8809 41.9701 25.7229 39.7794 20.3125 36.2708C15.2788 33.0722 11.0111 28.8045 7.81252 23.7708C4.29164 18.3358 2.10053 12.1479 1.41669 5.70831C1.36463 5.1322 1.4331 4.55156 1.61773 4.00336C1.80237 3.45516 2.09913 2.95141 2.48912 2.52419C2.87911 2.09696 3.35378 1.75562 3.88292 1.5219C4.41206 1.28818 4.98407 1.16719 5.56252 1.16664H11.8125C12.8236 1.15669 13.8038 1.51473 14.5704 2.174C15.337 2.83328 15.8377 3.74883 15.9792 4.74998C16.243 6.75012 16.7322 8.71399 17.4375 10.6041C17.7178 11.3498 17.7785 12.1602 17.6123 12.9393C17.4462 13.7184 17.0602 14.4335 16.5 15L13.8542 17.6458C16.8199 22.8615 21.1385 27.1801 26.3542 30.1458L29 27.5C29.5665 26.9398 30.2816 26.5538 31.0607 26.3877C31.8398 26.2215 32.6502 26.2822 33.3959 26.5625C35.286 27.2678 37.2499 27.757 39.25 28.0208C40.262 28.1636 41.1863 28.6733 41.847 29.4531C42.5077 30.2329 42.8587 31.2283 42.8334 32.25Z" stroke="#003DA7" stroke-width="2" stroke-linecap="round" stroke-linejoin="round"/>
</svg>
