<svg viewBox="0 0 32 32" fill="none" xmlns="http://www.w3.org/2000/svg">
<path d="M30.0444 0H1.87385C0.91324 0 0.131348 0.790402 0.131348 1.76147V30.2385C0.131348 31.2096 0.91324 32 1.87385 32H17.0426V19.6246H12.9321V14.7692H17.0426V11.2011C17.0426 7.06845 19.5447 4.81016 23.1861 4.81016C24.9286 4.81016 26.4477 4.94566 26.8721 4.99083V9.30416H24.3477C22.3595 9.30416 21.9797 10.2526 21.9797 11.6528V14.7466H26.7158L26.0903 19.602H21.9574V31.9774H29.9997C30.9603 31.9774 31.7422 31.187 31.7422 30.216V1.76147C31.7422 0.790402 30.9603 0 29.9997 0" fill="white"/>
</svg>
