<svg viewBox="0 0 33 32" fill="none" xmlns="http://www.w3.org/2000/svg">
<path d="M16.5359 0.0673828C12.2466 0.0673828 11.7105 0.0673828 10.0126 0.157714C8.33714 0.225463 7.17546 0.496458 6.17017 0.902951C5.14253 1.30944 4.24894 1.85143 3.37769 2.75475C2.50643 3.63548 1.97028 4.5388 1.54582 5.57762C1.1437 6.59385 0.875619 7.74557 0.8086 9.46188C0.74158 11.1782 0.719238 11.6976 0.719238 16.0561C0.719238 20.4146 0.71924 20.934 0.8086 22.6503C0.875619 24.344 1.1437 25.5183 1.54582 26.5346C1.94794 27.596 2.48409 28.4767 3.37769 29.3574C4.24894 30.2382 5.14253 30.8027 6.17017 31.1866C7.17546 31.5931 8.3148 31.8641 10.0126 31.9319C11.6881 31.9996 12.2466 32.0222 16.5359 32.0222C20.8251 32.0222 21.3613 32.0222 23.0591 31.9319C24.7346 31.8641 25.8963 31.5931 26.9016 31.1866C27.9292 30.7802 28.8228 30.2382 29.694 29.3574C30.5653 28.4767 31.1014 27.5734 31.5259 26.5346C31.928 25.5183 32.1961 24.3666 32.2631 22.6503C32.3301 20.9566 32.3525 20.4146 32.3525 16.0561C32.3525 11.6976 32.3525 11.1782 32.2631 9.46188C32.1961 7.76816 31.928 6.59385 31.5259 5.57762C31.1238 4.51622 30.5876 3.63548 29.694 2.75475C28.8228 1.87402 27.9292 1.30944 26.9016 0.902951C25.8963 0.496458 24.7569 0.248046 23.0591 0.157714C21.3836 0.0899657 20.8251 0.0673828 16.5359 0.0673828ZM16.5359 2.93541C20.7581 2.93541 21.2496 2.93541 22.9251 3.02575C24.4665 3.09349 25.2931 3.36449 25.8516 3.56774C26.5888 3.86131 27.125 4.20006 27.6611 4.76463C28.2196 5.3292 28.5547 5.84861 28.8451 6.59385C29.0685 7.15842 29.3143 7.99399 29.3813 9.55221C29.4483 11.2459 29.4706 11.7428 29.4706 16.0109C29.4706 20.2791 29.4706 20.7759 29.3813 22.4696C29.3143 24.0279 29.0462 24.8634 28.8451 25.428C28.5547 26.1732 28.2196 26.7152 27.6611 27.2572C27.1026 27.8218 26.5888 28.1605 25.8516 28.4541C25.2931 28.6799 24.4665 28.9284 22.9251 28.9961C21.2496 29.0639 20.7581 29.0864 16.5359 29.0864C12.3136 29.0864 11.8221 29.0864 10.1467 28.9961C8.60521 28.9284 7.77864 28.6574 7.22014 28.4541C6.48293 28.1605 5.94676 27.8218 5.4106 27.2572C4.85211 26.6926 4.51701 26.1732 4.22659 25.428C4.0032 24.8634 3.75746 24.0279 3.69044 22.4696C3.62342 20.7759 3.60108 20.2791 3.60108 16.0109C3.60108 11.7428 3.60108 11.2459 3.69044 9.55221C3.75746 7.99399 4.02554 7.15842 4.22659 6.59385C4.51701 5.84861 4.85211 5.30662 5.4106 4.76463C5.9691 4.20006 6.48293 3.86131 7.22014 3.56774C7.77864 3.34191 8.60521 3.09349 10.1467 3.02575C11.8221 2.958 12.3136 2.93541 16.5359 2.93541Z" fill="white"/>
<path d="M16.5359 21.3631C13.6317 21.3631 11.2637 18.9919 11.2637 16.0335C11.2637 13.0752 13.6317 10.704 16.5359 10.704C19.4401 10.704 21.8081 13.0978 21.8081 16.0335C21.8081 18.9693 19.4401 21.3631 16.5359 21.3631ZM16.5359 7.83594C12.0456 7.83594 8.42651 11.517 8.42651 16.0335C8.42651 20.5501 12.0679 24.2311 16.5359 24.2311C21.0038 24.2311 24.6452 20.5501 24.6452 16.0335C24.6452 11.517 21.0038 7.83594 16.5359 7.83594Z" fill="white"/>
<path d="M26.8569 7.52013C26.8569 8.58153 26.0079 9.43968 24.958 9.43968C23.908 9.43968 23.0591 8.58153 23.0591 7.52013C23.0591 6.45874 23.908 5.60059 24.958 5.60059C26.0079 5.60059 26.8569 6.45874 26.8569 7.52013Z" fill="white"/>
</svg>
