<svg viewBox="0 0 34 32" fill="none" xmlns="http://www.w3.org/2000/svg">
<path d="M11.5293 21.951C11.5293 15.1084 11.5293 11.2467 11.4846 10.3885H18.5664V13.5276H18.4993C19.1695 12.4888 19.8844 11.6984 20.644 11.1564C21.828 10.2982 23.2577 9.86914 24.9332 9.86914C26.6087 9.86914 27.9267 10.2305 29.1331 10.9305C30.3841 11.6532 31.3447 12.7146 32.0149 14.1373C32.7298 15.6278 33.0873 17.457 33.0873 19.6024V32.0004H26.0055V20.4379C26.0055 18.9023 25.7374 17.728 25.1789 16.8924C24.5758 15.9891 23.6375 15.56 22.3865 15.56C21.4705 15.56 20.6886 15.831 20.0408 16.3956C19.4823 16.8473 19.0578 17.4344 18.7451 18.1797C18.5887 18.541 18.5217 19.1281 18.5217 19.9411V32.0004H11.4399L11.4846 21.951H11.5293Z" fill="white"/>
<path d="M3.97845 7.45236C3.19655 7.45236 2.50401 7.29428 1.92318 6.95554C1.34234 6.6168 0.873204 6.18772 0.538106 5.62315C0.203008 5.05857 0.0466309 4.42625 0.0466309 3.74876C0.0466309 2.66478 0.404068 1.76147 1.16362 1.0614C1.90084 0.361327 2.88379 0 4.0678 0C5.25181 0 6.21243 0.361327 6.92731 1.0614C7.64218 1.76147 7.99962 2.6422 7.99962 3.72618C7.99962 4.78758 7.64218 5.6909 6.92731 6.39097C6.19009 7.11362 5.22948 7.45236 4.00079 7.45236H3.97845Z" fill="white"/>
<path d="M7.57526 10.4111H0.471191V32.023H7.57526V10.4111Z" fill="white"/>
</svg>
