<svg viewBox="0 0 39 28" fill="none" xmlns="http://www.w3.org/2000/svg">
<path d="M15.7667 19.9054V8.16232L25.8196 14.0339L15.7667 19.9054ZM38.1735 4.61681C37.7267 2.94567 36.4087 1.61328 34.7556 1.16162C31.7397 0.348633 19.6315 0.348633 19.6315 0.348633C19.6315 0.348633 7.52327 0.348633 4.50739 1.16162C2.8319 1.61328 1.53619 2.94567 1.08939 4.61681C0.285158 7.6655 0.285156 14.0339 0.285156 14.0339C0.285156 14.0339 0.285158 20.4023 1.08939 23.451C1.53619 25.1447 2.85424 26.4545 4.50739 26.9061C7.52327 27.7191 19.6315 27.7191 19.6315 27.7191C19.6315 27.7191 31.7397 27.7191 34.7556 26.9061C36.431 26.4545 37.7267 25.1221 38.1735 23.451C38.9778 20.4023 38.9778 14.0339 38.9778 14.0339C38.9778 14.0339 38.9778 7.6655 38.1735 4.61681Z" fill="white"/>
</svg>
